<?xml version="1.0" encoding="utf-8"?>
<!-- Generator: Adobe Illustrator 28.3.0, SVG Export Plug-In . SVG Version: 6.00 Build 0)  -->
<svg version="1.1" id="Layer_1" xmlns="http://www.w3.org/2000/svg" xmlns:xlink="http://www.w3.org/1999/xlink" x="0px" y="0px"
	 viewBox="0 0 1080 1080" style="enable-background:new 0 0 1080 1080;" xml:space="preserve">
<style type="text/css">
	.st0{fill:#FFFFFF;stroke:#FC32AF;stroke-width:9;stroke-miterlimit:10;}
	.st1{stroke:#000000;stroke-width:2;stroke-miterlimit:10;}
	.st2{fill:#223F51;}
	.st3{fill:url(#SVGID_1_);}
	.st4{fill:#D44948;}
	.st5{fill:#772330;}
	.st6{fill:#9D2A36;}
	.st7{fill:#F16B57;}
	.st8{fill:#61A5BD;}
	.st9{fill:#68B4C5;}
	.st10{fill:#111C28;}
	.st11{fill:#244D5D;}
	.st12{fill:#256680;}
	.st13{fill:#13100D;}
	.st14{fill:#20111A;}
	.st15{fill:#7BA2AF;}
	.st16{fill:#DEC361;}
	.st17{fill:#D39B52;}
	.st18{fill:#694832;}
	.st19{fill:#713F31;}
	.st20{fill:#BC383F;}
	.st21{fill:#87C4D6;}
	.st22{fill:#958F98;}
	.st23{fill:#BBACB4;}
	.st24{fill:#B24755;}
	.st25{fill:#4C1B25;}
	.st26{fill:#811D23;}
	.st27{fill:#8F1A16;}
	.st28{fill:#621516;}
	.st29{fill:#C55158;}
	.st30{fill:#E2F1F8;}
	.st31{fill:none;}
	.st32{fill:#BC2424;}
	.st33{font-family:'AmericanTypewriter-Bold';}
	.st34{font-size:60px;}
</style>
<rect x="415.4" y="290.96" class="st0" width="314.84" height="455.24"/>
<rect x="395.55" y="312.23" class="st0" width="314.84" height="455.24"/>
<rect x="375.69" y="333.5" class="st0" width="314.84" height="455.24"/>
<g>
	<path class="st1" d="M414.38,403.23l-3.43,10.39h-4.41l11.22-33.02h5.14l11.27,33.02h-4.56l-3.53-10.39H414.38z M425.21,399.89
		l-3.23-9.51c-0.73-2.16-1.22-4.12-1.71-6.03h-0.1c-0.49,1.96-1.03,3.97-1.67,5.98l-3.23,9.55H425.21z"/>
	<path class="st1" d="M439.03,381.03c2.6-0.39,5.68-0.69,9.06-0.69c6.12,0,10.49,1.42,13.38,4.12c2.94,2.69,4.65,6.52,4.65,11.86
		c0,5.39-1.67,9.8-4.75,12.84c-3.09,3.09-8.18,4.75-14.6,4.75c-3.04,0-5.58-0.15-7.74-0.39V381.03z M443.29,410.23
		c1.08,0.2,2.65,0.25,4.31,0.25c9.11,0,14.06-5.1,14.06-14.01c0.05-7.79-4.36-12.74-13.38-12.74c-2.21,0-3.87,0.2-5,0.44V410.23z"/>
	<path class="st1" d="M485.82,376.87v49h-3.28v-49H485.82z"/>
	<path class="st1" d="M509.49,403.23l-3.43,10.39h-4.41l11.22-33.02h5.14l11.27,33.02h-4.56l-3.53-10.39H509.49z M520.32,399.89
		l-3.23-9.51c-0.73-2.16-1.22-4.12-1.71-6.03h-0.1c-0.49,1.96-1.03,3.97-1.67,5.98l-3.23,9.55H520.32z"/>
	<path class="st1" d="M534.14,381.03c2.6-0.39,5.68-0.69,9.06-0.69c6.12,0,10.49,1.42,13.38,4.12c2.94,2.69,4.65,6.52,4.65,11.86
		c0,5.39-1.67,9.8-4.75,12.84c-3.09,3.09-8.18,4.75-14.6,4.75c-3.04,0-5.58-0.15-7.74-0.39V381.03z M538.4,410.23
		c1.08,0.2,2.65,0.25,4.31,0.25c9.11,0,14.06-5.1,14.06-14.01c0.05-7.79-4.36-12.74-13.38-12.74c-2.21,0-3.87,0.2-5,0.44V410.23z"/>
	<path class="st1" d="M580.93,376.87v49h-3.28v-49H580.93z"/>
	<path class="st1" d="M604.6,403.23l-3.43,10.39h-4.41l11.22-33.02h5.14l11.27,33.02h-4.56l-3.53-10.39H604.6z M615.43,399.89
		l-3.23-9.51c-0.73-2.16-1.22-4.12-1.71-6.03h-0.1c-0.49,1.96-1.03,3.97-1.67,5.98l-3.23,9.55H615.43z"/>
	<path class="st1" d="M629.24,381.03c2.6-0.39,5.68-0.69,9.06-0.69c6.12,0,10.49,1.42,13.38,4.12c2.94,2.69,4.65,6.52,4.65,11.86
		c0,5.39-1.67,9.8-4.75,12.84c-3.09,3.09-8.18,4.75-14.6,4.75c-3.04,0-5.58-0.15-7.74-0.39V381.03z M633.51,410.23
		c1.08,0.2,2.65,0.25,4.31,0.25c9.11,0,14.06-5.1,14.06-14.01c0.05-7.79-4.36-12.74-13.38-12.74c-2.21,0-3.87,0.2-5,0.44V410.23z"/>
</g>
<g>
	<path class="st2" d="M531.47,719.23c0-110.47,0-110.47,0-220.95c9.2,7.04,10.28,17.75,21.51,5.15c2.13-2.38,9.73-15.01,10.31-17.48
		c0.17-0.74,0.06-1.3-0.9-1.12c2.47-4.19,5.41-11.52,6.05-11.65c22.97,9.75,22.97,9.75,45.94,19.5c-14.53,21.4-7.3,44.62-8.52,68.57
		c-0.52,10.33-3.22,24.92-4.03,35.85c0.12,25.75,4.13,51.38,0.45,77.09c-1.48,10.29-2.21,14.22-10.08,21.29
		C577.37,708.78,551.04,717.39,531.47,719.23z"/>
	
		<linearGradient id="SVGID_1_" gradientUnits="userSpaceOnUse" x1="-2452.3569" y1="-1281.6941" x2="-2440.6575" y2="-1172.0536" gradientTransform="matrix(0.4999 0 0 0.4999 1703.4775 1299.969)">
		<stop  offset="0" style="stop-color:#363B4A"/>
		<stop  offset="1" style="stop-color:#223D4E"/>
	</linearGradient>
	<path class="st3" d="M458.87,654.24c-0.48,0.49-2.04,1.73,0,1.79c0.66,0.02,1.33-1.67,1.79-1.12c-0.37,1.27-1.74,2.93-0.22,2.91
		c0.92-1,1.65-2.05,2.46-3.14c4.23-1.71,8.12,1.01,3.14,4.71c1.3,2.35-0.89,4.76,0,6.5c0.64,1.25,1.66,1.13,2.24,1.34
		c1.4,0.52,2.36,0.55,3.81,0.45c9.63,13.21,5.76-0.41,16.81,8.96c2.73,2.32,7.1,7.86,7.62,11.2c0.67,4.3-1.27,6.46-0.22,6.72
		c6.49-3.13,6.43-1.07,8.96-0.9c0.25,0.02-0.26-1.15,1.79-0.9c7.53,0.92,3.17,8.7,3.36,10.53c2.03,4.43,3.63,9.26,4.03,14.12
		c-26.52-4.43-46.1-9.69-64.54-31.15c-1.8-7.48-1.31-15.1-1.79-22.63c-0.21-1.05,0.46-0.65,0.9-1.34c1.16-1.87,1.8-6.04,3.59-8.07
		c1.04-0.97,5.58-1.26,6.5-0.9C459.65,653.56,458.77,653.86,458.87,654.24z"/>
	<path class="st2" d="M515.79,720.57c0.06,0.28,1.33-1.29,0.9,4.93c-23.16-1.01-47.22-3.04-68.57-12.77
		c1.01-10.2,1.01-10.2,2.02-20.39C467.81,709.36,491.68,718.18,515.79,720.57z"/>
	<path class="st2" d="M530.57,725.95c1.4-0.45,1.09-3.2,0.45-4.48c23.21,0.08,53.67-12.44,70.14-29.13
		c1.01,9.75,1.01,9.75,2.02,19.5C581.09,723.23,555.09,725.65,530.57,725.95z"/>
	<path class="st2" d="M531.47,498.28c0-3.14,0-3.14,0-6.27c6.83,6.72,6.83,6.72,13.67,13.45c1.55,0.11,4.93-4.25,6.05-5.38
		c4.96-5.01,7.65-9.21,11.2-15.24c0.95-0.18,1.07,0.38,0.9,1.12c-0.58,2.47-8.18,15.09-10.31,17.48
		C541.75,516.03,540.67,505.32,531.47,498.28z"/>
	<g>
		<path class="st4" d="M440.49,555.64c-0.17,0.45-0.34,2.78-2.02,5.38c-3.92-1.01-3.92-1.01-7.84-2.02
			c2.73,2.35,6.88,2.38,7.17,3.14c1.87,4.95-9.95,2.42-10.31,3.14c1.72,1.43,4.96,1.81,5.15,4.26c-5.94,0.34-5.94,0.34-11.88,0.67
			c12.8,10.81-1.86,2.11-4.26,3.36c0.9,2.91,0.9,2.91,1.79,5.83c-10.34-4.33-8.49-3.02-9.19,1.12c-0.02,0.13-0.62,0.7-0.9,0.67
			c-8.71-10.85-19.01-20.32-28.23-30.7c8.41-9.7,46.23-53.89,54.23-57.14c5.47,12.93,8.61,35.39,7.62,49.07
			C441.55,546.46,438.28,555.26,440.49,555.64z"/>
		<path class="st5" d="M443.63,561.92c-0.26,7.54-0.5,15.09-0.45,22.63c-11.32,7.06-11.32,7.06-22.63,14.12
			c-0.66-0.12-2.81-4.64-3.36-5.38c5.07-4.87,11.2-12.38,15.24-18.15C438.26,566.79,442.48,554.87,443.63,561.92z"/>
		<path class="st6" d="M445.42,541.75c-0.01,1.6-0.43,3.15-0.45,5.83c-0.95-0.65-1.22,5.43-1.34,8.52c-0.08,1.94,0.07,3.89,0,5.83
			c-1.15-7.05-5.36,4.88-11.2,13.22c-4.04,5.77-10.17,13.28-15.24,18.15c-2.9-3.83-6.14-8.59-8.96-12.1
			c0.28,0.03,0.87-0.54,0.9-0.67c0.7-4.14-1.15-5.45,9.19-1.12c-0.9-2.91-0.9-2.91-1.79-5.83c2.4-1.25,17.05,7.45,4.26-3.36
			c5.94-0.34,5.94-0.34,11.88-0.67c-0.19-2.45-3.44-2.83-5.15-4.26c0.35-0.72,12.18,1.81,10.31-3.14c-0.29-0.76-4.44-0.79-7.17-3.14
			c3.92,1.01,3.92,1.01,7.84,2.02c1.68-2.6,1.84-4.93,2.02-5.38c1.34-3.47,4.17-10.44,4.48-13.89
			C445.2,541.75,445.2,541.75,445.42,541.75z"/>
		<path class="st7" d="M444.97,541.75c-0.31,3.45-3.14,10.42-4.48,13.89c-2.21-0.38,1.05-9.19,1.34-13.22
			c0.99-13.69-2.15-36.14-7.62-49.07c0.68-0.28,1.45-0.42,2.02-0.9c0.34,0.34,0.34,0.34,0.67,0.67
			C440.83,503.24,445.81,532.58,444.97,541.75z"/>
	</g>
	<path class="st8" d="M525.65,698.61c0.22,10.53,0.22,10.53,0.45,21.06c-1.12,0-1.12,0-2.24,0c-1.23,0-1.23,0-2.46,0
		c-0.7-0.51-0.62-0.89-0.67-0.9c-0.48-7.15,0.44-14.39,0.45-21.51C523.06,698.5,523.47,699.24,525.65,698.61z"/>
	<path class="st9" d="M523.4,720.57c4.53-0.44,7.24,0.9,7.62,0.9c0.65,1.28,0.95,4.03-0.45,4.48c-3.49,0.04-6.87-0.36-10.31-0.45
		c0.14-1.17-0.2-4.42,0-4.71C520.59,720.33,522.71,720.64,523.4,720.57z"/>
	<path class="st10" d="M517.58,717.88c0.18,0.03-0.96,0.4,3.14,0.9c0.06,0.01-0.03,0.38,0.67,0.9c1.23,0,1.23,0,2.46,0
		c-0.22,0.45-0.22,0.45-0.45,0.9c-0.69,0.07-2.81-0.24-3.14,0.22c-0.2,0.29,0.14,3.54,0,4.71c-0.67-0.02-0.33,0.91-0.67,0.9
		c-0.15,0-2.57-0.88-2.91-0.9c0.43-6.22-0.84-4.65-0.9-4.93c-0.47-2.22,0.73-0.86,0-2.24C516.6,718.46,516.76,717.76,517.58,717.88z
		"/>
	<g>
		<path class="st10" d="M558.36,451.22c0.96,2.5,0.29,2.38-0.9,4.03c-0.09,0.13-1.65,1.61-2.24,2.24
			c-7.34,7.91-18.05,14.65-25.99,21.74c0.48,0.5,1.3,1.48,1.34,1.57c3.2,6.23,9.51,13.44,14.57,18.38c0.72,0.07,5.78-5.79,6.5-6.72
			c3.31-2.24,11.06-11.18,4.48-1.12c-1.16,1.78-5.1,5.13-4.93,8.74c-1.12,1.13-4.5,5.49-6.05,5.38c-6.83-6.72-6.83-6.72-13.67-13.45
			c-0.05-0.43,0.08-0.92,0-1.34c-0.18-0.97-4.93-8.98-5.6-8.96c-0.19,0-2.48,2.31-2.46,2.91c0.03,0.78,5.78,5.9,5.83,7.84
			c-4.23,4.5-4.68,2.11-8.74-3.59c-0.4,0.25-0.23,1.75-0.22,2.24c-4.99,3.75-9,14.7-15.69,11.65c-0.84-1.7-7.21-6.88-7.17-7.39
			c0.09-1.19,1.31-0.41,1.34-0.9c0.01-0.22-2.59-3.96,0.9-1.57c7.56,8.44,8.16,8.58,15.24-0.67c1.06-1.39,6.41-10.38,6.72-11.43
			c0.29-0.95,0.99-0.81-0.22-2.24c-0.65-0.77-13.38-9.76-16.13-12.1c-3.32-2.82-11.01-11.13-13.22-12.55
			c-0.94-0.61-2.02-0.38-2.69-1.34c3.61-4.39,13.58-4.18,19.5-4.48C517.05,447.66,553.19,447.29,558.36,451.22z"/>
		<g>
			<path class="st11" d="M521.61,480.8c-0.32,1.05-5.66,10.04-6.72,11.43c-7.08,9.26-7.68,9.11-15.24,0.67
				c-3.01-3.36-6.31-8.37-8.52-12.32c-7.53-13.51-5.75-11.89,0-24.43c3.35,4.73,26.57,23.61,28.91,24.65
				C520.3,480.91,521.05,480.73,521.61,480.8z"/>
			<path class="st12" d="M521.61,480.8c-0.57-0.07-1.31,0.12-1.57,0c-2.34-1.04-25.56-19.92-28.91-24.65
				c0.06-0.12,0.15-1.13,0.9-2.24c2.21,1.42,9.91,9.73,13.22,12.55c2.76,2.34,15.48,11.33,16.13,12.1
				C522.6,479.99,521.9,479.85,521.61,480.8z"/>
		</g>
		<g>
			<path class="st2" d="M564.64,467.8c0.48,2.92-10.62,21.57-13,24.65c-0.72,0.94-5.78,6.8-6.5,6.72
				c-5.05-4.94-11.36-12.14-14.57-18.38c9.48-6.16,18.04-13.55,26.44-21.06C561.09,465.16,563.36,470.14,564.64,467.8z"/>
			<path class="st12" d="M557.02,459.74c-8.4,7.52-16.97,14.9-26.44,21.06c-0.05-0.09-0.86-1.07-1.34-1.57
				c7.94-7.08,18.66-13.83,25.99-21.74C556.14,457.94,556.45,458.98,557.02,459.74z"/>
		</g>
		<path class="st12" d="M531.47,490.66c-1.21-0.06-1.59,1.1-2.24,1.79c-0.04-1.94-5.8-7.07-5.83-7.84c-0.02-0.6,2.27-2.91,2.46-2.91
			C526.54,481.68,531.29,489.69,531.47,490.66z"/>
	</g>
	<path class="st13" d="M521.16,591.95c0.02-1.49-0.02-2.99,0-4.48C530.87,580.39,530.06,599.24,521.16,591.95z"/>
	<path class="st13" d="M521.61,556.99c0-6.11,0.45-5.52,0.45-5.83C531,546.82,530.06,561.89,521.61,556.99z"/>
	<path class="st13" d="M521.61,519.79c0-0.25-0.33,0.65-0.45-4.48C530.51,508.51,530.88,525.69,521.61,519.79z"/>
	<g>
		<path class="st10" d="M489.34,452.56c0.66,0.96,1.75,0.74,2.69,1.34c-0.74,1.11-0.84,2.12-0.9,2.24
			c-5.75,12.53-7.53,10.91,0,24.43c2.2,3.95,5.5,8.96,8.52,12.32c-3.49-2.39-0.88,1.35-0.9,1.57c-0.03,0.49-1.26-0.3-1.34,0.9
			c-0.04,0.51,6.33,5.7,7.17,7.39c-2.64-1.2-9.69-9.05-11.65-11.65c-4.34-5.76-6.85-12.27-10.53-18.38
			c-21.62,9.3-21.62,9.3-43.25,18.6c5.89,16.38,7.41,28.4,7.17,45.71c0,0.24-0.89,3.33-0.9,4.71c-0.22,0-0.22,0-0.45,0
			c0.83-9.17-4.15-38.51-8.07-48.63c-0.34-0.34-0.34-0.34-0.67-0.67c-0.57,0.47-1.34,0.62-2.02,0.9
			c-7.99,3.26-45.81,47.44-54.23,57.14c9.23,10.38,19.52,19.85,28.23,30.7c2.82,3.51,6.07,8.27,8.96,12.1
			c0.56,0.73,2.7,5.26,3.36,5.38c11.32-7.06,11.32-7.06,22.63-14.12c-0.05-7.54,0.18-15.1,0.45-22.63c0.07-1.94-0.08-3.89,0-5.83
			c0.3,0,0.81-0.11,0.9,0.22c1.34,5.3,1.45,26.07,1.79,33.61c0.13,2.74,1.26,6.12,1.34,8.96c0.63,21.24-1.71,43.35-0.45,64.54
			c0.02,0.37,0.89,0.18,0.9,0.22c0.49,7.53-0.01,15.15,1.79,22.63c18.44,21.46,38.02,26.72,64.54,31.15
			c0.08,0.01,1.26,0.88,1.34,0.9c0.73,1.38-0.47,0.02,0,2.24c-24.11-2.39-47.98-11.21-65.66-28.23c-1.01,10.2-1.01,10.2-2.02,20.39
			c21.35,9.73,45.41,11.76,68.57,12.77c0.34,0.02,2.76,0.89,2.91,0.9c0.34,0.01,0-0.91,0.67-0.9c3.44,0.09,6.82,0.49,10.31,0.45
			c24.52-0.3,50.52-2.72,72.6-14.12c-1.01-9.75-1.01-9.75-2.02-19.5c-16.47,16.69-46.93,29.21-70.14,29.13
			c-0.38,0-3.08-1.33-7.62-0.9c0.22-0.45,0.22-0.45,0.45-0.9c1.12,0,1.12,0,2.24,0c1.84,0.35,3.64-0.28,5.38-0.45
			c19.57-1.84,45.9-10.45,60.73-23.75c7.88-7.07,8.61-11,10.08-21.29c3.69-25.7-0.32-51.33-0.45-77.09
			c0.81-10.94,3.51-25.53,4.03-35.85c1.21-23.95-6.02-47.17,8.52-68.57c-22.97-9.75-22.97-9.75-45.94-19.5
			c-0.64,0.13-3.58,7.47-6.05,11.65c-3.55,6.03-6.24,10.22-11.2,15.24c-0.17-3.61,3.77-6.96,4.93-8.74
			c6.58-10.06-1.17-1.12-4.48,1.12c2.38-3.08,13.48-21.73,13-24.65c-3.59-6.27-3.59-6.27-7.17-12.55c1.18-1.65,1.85-1.53,0.9-4.03
			c3.01,2.29,7.3,14.13,10.08,17.93c1.84,1.57,38.43,15.13,44.82,18.38c17.41,8.85,53.69,53.25,67.9,70.14
			c-15.68,15.45-29.01,33.59-44.15,49.07c-9.78-5.71-19.33-11.94-28.68-18.38c-2.84,0.91,0.98,42.97,1.12,48.18
			c0.36,13.65,0.99,41.45-4.03,51.99c0.53,8.81,0.67,17.7,2.24,26.44c-38.01,21.76-125.31,20.32-164.03,0.45
			c1.12-13.67,1.12-13.67,2.24-27.34c-3.03-4.85-3.9-23.14-4.03-30.48c-0.21-11.25,3.24-62.99,1.34-68.12
			c-0.64-0.88-0.75-0.47-1.57-0.22c-1.52,0.46-25.33,16.73-26.89,17.03c-0.79,0.15-1.85-0.11-2.69,0
			c-13.36-16.72-26.5-33.7-41.9-48.63c11.01-14.99,44.34-53.52,57.14-63.42c12.74-9.85,37.5-17.13,52.88-24.2
			C483.02,467.91,486.11,456.51,489.34,452.56z"/>
		<g>
			<path class="st14" d="M444.97,547.58c-0.04,7.66,2.17,31.51,2.69,44.82c0.06,1.6,0.54,4.61,0.9,6.27
				c-0.22,1.23-0.22,1.23-0.45,2.46c0.18,0.32,0.89,1.48,0.9,1.57c0.21,9.44-0.8,19.2-0.9,28.68c-0.04,3.43,0.02,6.88,0,10.31
				c-0.02,3.42-0.65,18.53,0,20.39c0.12,0.35,0.6,0.22,0.9,0.22c-0.43,0.7-1.1,0.3-0.9,1.34c0-0.05-0.87,0.15-0.9-0.22
				c-1.26-21.19,1.07-43.29,0.45-64.54c-0.08-2.84-1.22-6.22-1.34-8.96c-0.35-7.54-0.45-28.31-1.79-33.61
				c-0.08-0.33-0.59-0.23-0.9-0.22C443.76,553,444.03,546.92,444.97,547.58z"/>
			<path class="st15" d="M564.64,467.8c-1.28,2.34-3.54-2.65-7.62-8.07c-0.57-0.75-0.88-1.79-1.79-2.24
				c0.59-0.63,2.15-2.11,2.24-2.24C561.05,461.53,561.05,461.53,564.64,467.8z"/>
			<g>
				<path class="st16" d="M405.98,582.53c-5.43,0.84-4.86,2.89-3.14,6.27c-14.12-16.02-14.12-16.02-28.23-32.04
					c1.15-0.56,2.76-3.92,3.81-3.81C380.43,553.16,402.48,577.96,405.98,582.53z"/>
				<path class="st17" d="M405.98,582.53c2.99,3.91,6.06,7.81,8.52,12.1c-1.59,1.6-2.85,3.6-2.69,5.83
					c-1.84-1.95-7.88-9.52-8.96-11.65C401.13,585.42,400.55,583.37,405.98,582.53z"/>
				<path class="st18" d="M411.81,600.46c-0.16-2.22,1.09-4.23,2.69-5.83c0.61,1.07,3.48,5.02,3.14,6.05
					c-0.07,0.22-3.54,2.23-4.26,2.02C412.97,602.58,412.32,601,411.81,600.46z"/>
			</g>
			<g>
				<g>
					<path class="st4" d="M640.38,584.33c-2.34-0.51-0.96-5.49-1.34-7.62c-0.69-1.71-7.66,4.11-8.29,4.93
						c0.37-8.66,0.91-5.08-3.14-12.55c-5.88,0.13-8.76,3.85-4.71-2.24c0.5-0.75,1.29-0.23,1.79-1.12c-2.91-2.22-8.16-6.51-11.2-7.84
						c-4.29-18.02-7.05-47.78,6.72-61.85c11.86,9.6,38.92,41.51,50.64,54.9C660.49,561.85,649.22,572.05,640.38,584.33z"/>
					<path class="st7" d="M620.21,496.04c-13.78,14.07-11.01,43.83-6.72,61.85c-0.6-0.26-0.91-0.63-1.79-0.45
						c-1.82-8.47-1.63-12.5-4.93-8.52c-0.08-19.58-0.23-37.72,9.86-55.35C617.37,492.93,619.06,495.11,620.21,496.04z"/>
				</g>
				<g>
					<path class="st16" d="M643.96,593.74c1.67-3.38,1.31-5.33-2.24-5.83c3.35-4.85,6.42-9.64,10.31-14.12
						c2.11-2.43,19.37-20.84,20.84-20.84c0.39,0,3.27,3.58,3.81,4.26C660.32,575.48,660.32,575.48,643.96,593.74z"/>
					<path class="st17" d="M643.96,593.74c-0.86,1.73-1.95,2.59-3.14,4.03c-2.02-1.34-2.02-1.34-4.03-2.69
						c1.56-2.54,3.25-4.74,4.93-7.17C645.27,588.41,645.63,590.36,643.96,593.74z"/>
					<path class="st19" d="M640.83,597.77c-2.74,3.34-3.86,6.1-6.5,4.03c-2.55-1.99,1.3-4.82,2.46-6.72
						C638.81,596.43,638.81,596.43,640.83,597.77z"/>
				</g>
				<g>
					<path class="st5" d="M611.69,557.44c0.3,1.42,0.28,3.81,0.9,6.27c3.07,12.19,15.3,18.73,22.86,28.23
						c-0.67,1.05-4.03,7.97-4.71,8.07c-11.54-7.73-11.54-7.73-23.08-15.46c0.59-11.9-0.85-23.76-0.9-35.63
						C610.06,544.94,609.88,548.97,611.69,557.44z"/>
					<path class="st5" d="M622.9,566.85c-4.05,6.09-1.18,2.37,4.71,2.24c4.05,7.47,3.51,3.89,3.14,12.55
						c0.63-0.82,7.6-6.64,8.29-4.93c-9.97,11.83-4.17,3.9-0.9,10.76c-0.94,1.36-1.77,3.04-2.69,4.48
						c-7.56-9.51-19.79-16.04-22.86-28.23C617.74,565.28,617.74,565.28,622.9,566.85z"/>
					<path class="st20" d="M640.38,584.33c-0.73,1.02-1.53,2.11-2.24,3.14c-3.28-6.86-9.07,1.07,0.9-10.76
						C639.42,578.84,638.04,583.82,640.38,584.33z"/>
					<path class="st6" d="M613.49,557.88c3.04,1.33,8.29,5.62,11.2,7.84c-0.51,0.89-1.3,0.37-1.79,1.12
						c-5.15-1.57-5.15-1.57-10.31-3.14c-0.62-2.46-0.59-4.85-0.9-6.27C612.57,557.25,612.89,557.62,613.49,557.88z"/>
				</g>
			</g>
		</g>
	</g>
	<path class="st13" d="M525.65,698.61c-2.17,0.62-2.59-0.11-4.48-1.34c0-1.49,0-2.99,0-4.48c0.22-0.67,0.22-0.67,0.45-1.34
		C531.08,688.98,529.37,697.54,525.65,698.61z"/>
	<path class="st13" d="M521.16,624.21c0.01-0.15,0-0.3,0-0.45c0.03-1.48,0.07-3.01,0-4.48
		C529.87,612.75,530.95,629.56,521.16,624.21z"/>
	<g>
		<path class="st21" d="M529.23,492.45c0.65-0.69,1.03-1.85,2.24-1.79c0.08,0.42-0.05,0.91,0,1.34c0,3.14,0,3.14,0,6.27
			c0,110.47,0,110.47,0,220.95c-1.74,0.16-3.54,0.8-5.38,0.45c-0.22-10.53-0.22-10.53-0.45-21.06c3.73-1.07,5.43-9.63-4.03-7.17
			c-0.24,0.06-0.61-0.03-0.9,0c0-5.08,0-10.16,0-15.24c-0.01-6.57,0-13.15,0-19.72c0-10.44-0.24-20.94,0-31.37
			c0.6,0.03,0.42-0.42,0.45-0.9c9.78,5.35,8.71-11.46,0-4.93c0-0.05-0.4,0.3-0.45-0.9c-0.33-8.83,0.3-17.63,0.45-26.44
			c8.89,7.29,9.7-11.56,0-4.48c0.14-10.17,0.44-20.29,0.45-30.48c8.45,4.9,9.39-10.17,0.45-5.83c-0.01-10.4-0.25-20.97-0.45-31.37
			c9.27,5.9,8.9-11.28-0.45-4.48c-0.12-5.09-0.43-10.12-0.45-15.24c-0.01-3.01-0.4-6.01-0.45-8.96c-0.01-0.49-0.17-2,0.22-2.24
			C524.55,494.56,525,496.95,529.23,492.45z"/>
		<path class="st13" d="M523.18,653.79c6.14-1.7,6.42,7.31,2.24,8.07C520.23,662.8,519.97,654.68,523.18,653.79z"/>
		<path class="st22" d="M521.61,691.44c-0.22,0.67-0.22,0.67-0.45,1.34c0-0.07-0.45,0.4-0.45-1.34
			C521,691.41,521.37,691.5,521.61,691.44z"/>
		<path class="st23" d="M521.16,624.21c-0.03,0.48,0.16,0.93-0.45,0.9c0.02-0.7-0.2-1.37,0.45-1.34
			C521.16,623.92,521.17,624.07,521.16,624.21z"/>
	</g>
	<g>
		<path class="st6" d="M504.58,502.76c6.68,3.05,10.7-7.91,15.69-11.65c0.05,2.95,0.44,5.95,0.45,8.96
			c-4.76,1.85-9.69,9.04-15.01,7.62c-3.1-0.83-12.69-12.71-12.77-16.58C494.89,493.71,501.94,501.56,504.58,502.76z"/>
		<path class="st20" d="M519.82,618.39c0.27,0.05,0.61-0.03,0.9,0c0.04,1.2,0.45,0.85,0.45,0.9c0.07,1.47,0.03,3.01,0,4.48
			c-0.65-0.03-0.43,0.64-0.45,1.34c-0.24,10.43,0,20.93,0,31.37c-1.9-2.24-1.9-2.24-3.81-4.48c0.34,2.58,0.34,2.58,0.67,5.15
			c-0.66,1.92-1.72,1.26-2.69,2.02c-4.17,3.25,0.07,2.98-3.81-4.03c0.88,9.63-0.8,5.57-1.79,5.83c-0.24,0.06-0.24,1.43-1.34,1.34
			c-2-0.16-3.17-6.07-5.38-7.17c-0.26,9.84-1.49,3.52-2.24,4.03c-0.52,0.35,0.07,1.55-0.45,1.79c-0.48,0.22-4.63-8.45-5.15-9.19
			c-1.23-0.91-0.81,1.07-0.9,1.12c-0.16,0.09-2.61,0.65-3.59-0.22c-1.13,1.06-0.44,5.92,0,7.39c-1.7-1.44-2.91-3.85-4.93-4.93
			c-0.66-0.85-0.35-1.56-0.45-1.79c2.37,0.22-0.76-3.91,0.22-4.48c6.17-1.02,4.6,5.01,5.38-1.79c1.12,1.57,1.12,1.57,2.24,3.14
			c-1.45-7,0.96-4.29,1.12-4.71c0.09-0.23-0.36-3.66,1.57-3.81c0.23-0.02,0.5,0.95,1.57,1.79c0.66,0.53,1.28,1.1,2.24,0.9
			c-0.19,2.71-1.36,10.7,2.91,5.83c-0.46,5.11,0.32,1.33,1.34,0.45c0.5-0.43,1.26,0.14,2.02-0.67c0.13-0.14,0.54-3.3,1.57-3.36
			c0.5-0.03,2.91,3.29,3.14,3.14c0.4-0.26-0.08-0.81,0.67-1.79c1.62,3.96,3.56,7.7,2.24,0.9c0.13,0.08,0.02-1.42,2.02,1.34
			c-0.56-2.13-0.56-2.13-1.12-4.26c10.22-0.79,0.82-5.27,0.9-5.83c0.02-0.13,2.2-1.2,2.24-1.34c0.78-2.51-2.17-1.11-2.69-1.79
			c-0.23-0.3,3.92-3.24,4.03-3.59c1.52-4.56-3.76-2.91-3.81-6.05c-2.87,0.93-2.18,5.39-4.93,3.14c-1.34-1.09-2.75-6.57-1.57-8.07
			c-0.32-7.29,3.57-2.07,4.03-2.46c0.47-0.4,0.12-4.26,1.12-4.71C513.99,614.95,517.95,618.02,519.82,618.39z"/>
		<path class="st20" d="M453.94,583.43c-0.09,4.5-1.17,13.14-5.38,15.24c-0.35-1.67-0.83-4.68-0.9-6.27
			C450.27,590.31,451.07,584.73,453.94,583.43z"/>
		<path class="st6" d="M452.59,654.24c-1.78,2.03-2.42,6.19-3.59,8.07c-0.3,0-0.77,0.13-0.9-0.22c-0.65-1.87-0.02-16.97,0-20.39
			c1.34,3.03,1.34,3.03,2.69,6.05c2.46-4.96,0.68,2.03,1.57,2.46c1.85-8.8,3.54-8.18,3.59,0.45c2.08-4.51,0.07-9.82,3.59-7.17
			c-0.42-3.83,4.41,7.38-1.57,4.26c6.35,4.17-0.2,2.63-0.45,3.14c-0.06,0.12,2.26,0.88,2.24,1.34
			C459.68,654.22,455.63,650.79,452.59,654.24z"/>
		<path class="st5" d="M458.87,656.03c-2.04-0.06-0.48-1.3,0-1.79C459.07,655.04,458.12,655.14,458.87,656.03z"/>
		<path class="st6" d="M515.79,671.27c0.7,1.08,3.52,4.73,4.93,4.93c0,5.08,0,10.16,0,15.24c0,1.74,0.45,1.27,0.45,1.34
			c0,1.49,0,2.99,0,4.48c-0.01,7.12-0.93,14.36-0.45,21.51c-4.1-0.49-2.96-0.87-3.14-0.9c1.05-3.97,0.02-11.46,0.45-12.32
			c0.16-0.33,5.24,0.63-0.9-4.03c-0.6-4.98-1.48-10.45-0.45-16.13c-2.47-2.23-1.16,8.35-3.59,4.48c-0.99-1.58-1.53-11.17,1.34-12.1
			c0.1-0.9-0.89-1.05-0.9-1.12c-0.03-0.3,0.06-0.67,0-0.9C512.16,670.72,507.24,669.26,515.79,671.27z"/>
		<path class="st6" d="M520.72,656.48c0,6.57-0.01,13.15,0,19.72c-1.41-0.2-4.23-3.85-4.93-4.93c-0.4-0.62-3.28-2.37,1.79-5.15
			c-1.23-1.6-2.78,0.76-4.03,1.34c0.1-2.97,2.03-4.46,1.34-8.29c0.97-0.76,2.03-0.09,2.69-2.02c-0.34-2.58-0.34-2.58-0.67-5.15
			C518.81,654.24,518.81,654.24,520.72,656.48z"/>
		<path class="st4" d="M499.2,613.91c1.83,7.51-0.7,5.02-1.34,5.6c-0.95,0.85,1.27,6.37-2.24,3.59c0,1.6-0.78,3.65-0.9,5.15
			c-5.88,6.39-0.43-5.92-3.81-6.27c-0.88-0.09-0.21,2.95-3.36-0.67c3.7,8.66,0.56,4.01-0.22,4.26c-2.07,0.66,2.33,3.59,2.46,3.81
			c0.42,0.69,0.27,3.06,0.45,3.36c-1.33,0.6-1.81-0.13-3.14-1.34c-0.15-0.13-1.52-2.84-2.46-2.69c-1.1,0.17-0.36,2.74-0.9,3.14
			c-0.93,0.69-7.37-2.86-1.57,2.91c-4.61-0.86-0.27,1.52,0,2.69c1.74,7.49-3.19-4.04-6.72-4.26c-0.15-0.01-0.3,0.01-0.45,0
			c2.37-2.42,4.82-8.38,5.6-8.07c0.68,0.27-1.13,3.44,1.57,0.67c0.97-3.15,2.65-5.98,3.36-9.19c0.31,3.43,1.18,0.64,1.79-1.79
			c0.5,4,3.52,2.6,6.27,6.27c1.44-8.91,7.22-0.7,5.6-5.15C498.57,614.18,495.51,614.97,499.2,613.91z"/>
		<path class="st5" d="M493.82,652.9c0.44,0.23,1.78,3.17,1.79,3.36c0.29,6.44-2.18,2.38-2.46,2.46c-0.73,0.22-0.96,7.9-2.91,1.34
			c-0.44-1.47-1.13-6.34,0-7.39C491.22,653.55,493.67,652.99,493.82,652.9z"/>
		<path class="st4" d="M499.2,644.38c-0.96,0.21-1.58-0.37-2.24-0.9c-0.67-1.79-0.67-1.79-1.34-3.59c1.27-1.34,1.58-3.75,2.46-4.03
			C502.02,634.61,499.31,642.85,499.2,644.38z"/>
		<g>
			<path class="st5" d="M471.42,638.56c5.5-2.21,3.88,2.58,4.71,3.14c5.15,3.48-1.24-5.28-0.67-8.52c3.53,0.22,8.47,11.75,6.72,4.26
				c-0.27-1.17-4.61-3.55,0-2.69c-5.8-5.77,0.64-2.22,1.57-2.91c0.54-0.4-0.2-2.97,0.9-3.14c0.94-0.15,2.32,2.56,2.46,2.69
				c-3.07,3.14-2.74,4.38,1.12,6.72c2.01-4.22,4.19,0.52,4.93,3.59c0.13,0.09,2.16-1.47,2.46-1.79c0.67,1.79,0.67,1.79,1.34,3.59
				c-1.07-0.85-1.34-1.81-1.57-1.79c-1.93,0.15-1.48,3.58-1.57,3.81c-0.16,0.42-2.57-2.29-1.12,4.71c-1.12-1.57-1.12-1.57-2.24-3.14
				c-0.78,6.8,0.8,0.78-5.38,1.79c-0.98,0.58,2.14,4.7-0.22,4.48c-3.34-8.32-5.13,1.76-4.93,2.46c0.05,0.19,1.47,1.65,2.02,1.57
				c1.97-0.3,0.13-3.97,3.36-2.24c2.02,1.08,3.23,3.49,4.93,4.93c1.95,6.55,2.18-1.12,2.91-1.34c0.28-0.09,2.76,3.98,2.46-2.46
				c-0.01-0.19-1.36-3.13-1.79-3.36c0.09-0.05-0.33-2.03,0.9-1.12c0.52,0.74,4.68,9.41,5.15,9.19c0.51-0.24-0.07-1.44,0.45-1.79
				c0.75-0.51,1.98,5.81,2.24-4.03c2.21,1.1,3.37,7.01,5.38,7.17c1.1,0.09,1.11-1.29,1.34-1.34c0.99-0.25,2.67,3.8,1.79-5.83
				c3.88,7.02-0.36,7.29,3.81,4.03c0.69,3.83-1.24,5.32-1.34,8.29c1.25-0.59,2.81-2.94,4.03-1.34c-5.07,2.78-2.19,4.53-1.79,5.15
				c-8.55-2.01-3.62-0.56-2.24,4.48c-3.32-2.72-4.13-0.47-4.48-1.12c0.31-2.06,1.58-4.96-1.34-2.69c-0.31-7.9-2.15-0.54-4.93-4.03
				c1.25,10.57,8.33,21.99,6.72,14.79c-0.1-0.44-1.48-0.56-1.34-2.69c0.36-5.69,1.25,1.32,2.91,3.36c2.57-2.41-1.34-4.19,2.46-6.72
				c0.01,0.07,1,0.22,0.9,1.12c-2.88,0.93-2.33,10.52-1.34,12.1c2.42,3.87,1.12-6.71,3.59-4.48c-1.03,5.69-0.15,11.16,0.45,16.13
				c6.14,4.67,1.06,3.71,0.9,4.03c-0.43,0.87,0.6,8.35-0.45,12.32c-0.82-0.12-0.98,0.58-1.79,0.45c-0.08-0.01-1.26-0.88-1.34-0.9
				c-0.4-4.86-2-9.69-4.03-14.12c-0.19-1.84,4.17-9.61-3.36-10.53c-2.06-0.25-1.54,0.91-1.79,0.9c-2.54-0.17-2.47-2.23-8.96,0.9
				c-1.05-0.26,0.89-2.43,0.22-6.72c1.58,0.6,3.29-0.65,2.46-2.24c6.38,1.97,7.69,1.77,1.12-1.57c3.43-1.59,7.7,5.31,5.38-1.79
				c-1.39-0.88-0.57,1.17-1.12,1.57c-0.21,0.15-2.48-1.4-4.93-1.34c-2,0.05-0.04,2.3-1.79,1.34c-0.27-0.15-0.06-1.19-3.81-4.26
				c0.8-1.28,2.97,2.96,6.5,2.46c1.32-0.19,0.66-4.64-6.27-3.59c-0.37-2.83-1.45-7.31-4.48-8.07c-5.35-1.35,0.62,3.02,0.67,3.36
				c0.46,3.25-2.72-0.41-1.34,2.91c-11.05-9.38-7.18,4.24-16.81-8.96c-1.44,0.1-2.41,0.08-3.81-0.45c5.25,0.19,0.46-3.91,0.45-4.26
				c-0.05-1.52,1.54,0.31,1.79-0.45c0.13-0.4-2.01-3.35-2.46-3.36c-2.92-0.09,1.35,2.8-2.02,6.72c-0.89-1.73,1.3-4.15,0-6.5
				c4.98-3.69,1.09-6.42-3.14-4.71c0.08-0.11,0.68-2.29,0.9-2.46c0.64-0.53,2.16,2.53,1.57-3.36c3.31,7.2,1.23,4.56,2.02-0.22
				c0.02-0.11,1.32-1.38,1.34-1.79c0.33-5.08-4.79-12.63-6.27-6.72c-1.84,7.29,1.63,8.06,1.79,8.52c0.05,0.14-2.17,1.67-2.24,1.79
				c-0.28,0.46,0.76,0.94,0.45,1.34c-0.76,0.99-3.43,2.31-3.59,2.46c-0.1-0.39,0.78-0.68,0.22-0.9c-0.92-0.36-5.46-0.07-6.5,0.9
				c3.03-3.45,7.09-0.03,7.17-2.02c0.02-0.46-2.3-1.23-2.24-1.34c0.25-0.51,6.8,1.04,0.45-3.14c5.98,3.13,1.15-8.08,1.57-4.26
				c-3.51-2.65-1.51,2.66-3.59,7.17c-0.04-8.63-1.73-9.25-3.59-0.45c-0.89-0.44,0.9-7.42-1.57-2.46c-1.34-3.03-1.34-3.03-2.69-6.05
				c0.02-3.43-0.04-6.88,0-10.31c4.78-0.71,7.71,6.52,5.15-1.79c1.79,1.79,1.79,1.79,3.59,3.59c1.41-2.54,2.14-0.64,2.69-0.9
				c0.9-0.42,2.61-4.95,5.83-1.34c4.1-6.72,7.21,3.18,3.81,6.05c1.72-0.43,1.21,1.53,2.02,2.46
				C471.59,639.28,471.36,638.58,471.42,638.56z"/>
			<g>
				<path class="st6" d="M496.51,687.86c-0.52-3.35-4.89-8.88-7.62-11.2c-1.38-3.32,1.81,0.33,1.34-2.91
					c-0.05-0.34-6.03-4.71-0.67-3.36c3.03,0.76,4.11,5.23,4.48,8.07c6.94-1.06,7.6,3.4,6.27,3.59c-3.53,0.5-5.7-3.75-6.5-2.46
					c3.75,3.07,3.54,4.11,3.81,4.26c1.76,0.96-0.2-1.3,1.79-1.34c2.45-0.06,4.72,1.49,4.93,1.34c0.55-0.39-0.27-2.45,1.12-1.57
					c2.32,7.1-1.95,0.21-5.38,1.79c6.57,3.34,5.26,3.53-1.12,1.57C499.8,687.21,498.09,688.45,496.51,687.86z"/>
				<path class="st20" d="M462.9,654.69c-0.81,1.09-1.55,2.13-2.46,3.14c-1.52,0.02-0.15-1.64,0.22-2.91
					c-0.46-0.55-1.13,1.14-1.79,1.12c-0.75-0.9,0.2-0.99,0-1.79c0.15-0.16,2.83-1.47,3.59-2.46c0.31-0.41-0.72-0.88-0.45-1.34
					c0.07-0.12,2.29-1.66,2.24-1.79c-0.16-0.45-3.63-1.22-1.79-8.52c1.49-5.9,6.6,1.64,6.27,6.72c-0.03,0.42-1.33,1.68-1.34,1.79
					c-0.79,4.78,1.29,7.42-2.02,0.22c0.59,5.89-0.92,2.83-1.57,3.36C463.58,652.4,462.98,654.59,462.9,654.69z"/>
				<path class="st6" d="M468.28,667.24c-0.58-0.22-1.6-0.09-2.24-1.34c3.36-3.92-0.91-6.81,2.02-6.72c0.45,0.01,2.6,2.96,2.46,3.36
					c-0.25,0.76-1.84-1.07-1.79,0.45C468.74,663.33,473.53,667.43,468.28,667.24z"/>
				<path class="st6" d="M513.54,675.75c0.06,0.23-0.03,0.6,0,0.9c-3.8,2.54,0.1,4.31-2.46,6.72c-1.67-2.04-2.56-9.05-2.91-3.36
					c-0.13,2.13,1.25,2.25,1.34,2.69c1.61,7.2-5.48-4.22-6.72-14.79c2.78,3.49,4.62-3.87,4.93,4.03c2.92-2.27,1.66,0.63,1.34,2.69
					C509.41,675.28,510.22,673.03,513.54,675.75z"/>
				<path class="st20" d="M487.33,661.41c3.41-0.23,2.7,5.69,3.81,8.29c-8.36-4.04-11.28,4.62-13.89-0.9
					c3.81,0.46,1.61-4.52,3.81-4.71c0.11-0.01,1.59,1.44,1.79,1.34c0.77-0.37-0.35-1.57,0-1.79c0.98-0.63,3.43,1.45,3.59,1.34
					C487.7,664.11,484.36,661.61,487.33,661.41z"/>
				<path class="st6" d="M475.45,633.18c-0.57,3.24,5.82,11.99,0.67,8.52c-0.83-0.56,0.8-5.34-4.71-3.14
					c-0.31-2.76,0.44-3.83,0.45-4.03c1.09,0.76,0.82,0.04,0.9,0c0.48-0.27,1.6-0.96,1.79-1.34c0.22,0,0.22,0,0.45,0
					C475.15,633.19,475.3,633.17,475.45,633.18z"/>
				<path class="st4" d="M484.86,653.35c0.09,0.23-0.21,0.94,0.45,1.79c-3.24-1.73-1.39,1.94-3.36,2.24
					c-0.54,0.08-1.96-1.38-2.02-1.57C479.73,655.11,481.52,645.02,484.86,653.35z"/>
				<path class="st20" d="M472.09,653.79c1.03,0.84-1.47,5.8-1.79,5.83C467.01,659.94,470.47,652.48,472.09,653.79z"/>
				<path class="st6" d="M511.08,665.45c1.52-0.11,0.34,1.87,2.69,4.03C507.62,671.09,510.05,665.52,511.08,665.45z"/>
				<path class="st20" d="M468.05,638.56c0.53-0.4,1.76,0.66,2.02,1.12C474.32,647.28,465.27,640.69,468.05,638.56z"/>
				<path class="st6" d="M477.91,664.1c0.34-0.17,1.06,0.44,1.12,0.67C479.59,666.83,474.66,668.79,477.91,664.1z"/>
				<path class="st6" d="M506.6,664.55c1.19,0.19,1.78,3.21,0.9,3.14C507.31,667.67,505.67,665.71,506.6,664.55z"/>
				<path class="st6" d="M512.87,661.86c1.89-0.62,0.67,3.13-0.9,2.24C511.72,663.96,512.76,661.9,512.87,661.86z"/>
				<path class="st20" d="M472.54,660.52c1.26,3.52-0.72,6.47-0.22,0.22C472.42,660.63,472.42,660.63,472.54,660.52z"/>
				<path class="st6" d="M508.84,665c1.49-0.68,1.19,1.36,0.45,1.34C509.22,666.34,508.54,665.13,508.84,665z"/>
			</g>
		</g>
		<g>
			<path class="st5" d="M487.1,602.7c-7.78-0.4-9.82-4.69-16.36-8.07c-4.15,2.8-4.15,2.8-8.29,5.6c8.28,1.25-6.63,1.56-6.27,3.14
				c13.15,0.85,8.24-0.73,9.86-2.69c0.99-1.19,2.36-1.76,3.36-2.91c-1.96,3.34-5.24,8.39-0.45,3.59c1.15,5.47,9.43-6.34,3.36,2.46
				c3.05,0.39,2.99-1.41,5.38,1.12c3.23,3.42-1.23,1.59-0.22,5.83c-0.73-2.14-11.32-3.45-4.93-1.79c2.76,2.48,0.21,12.25,4.71,12.77
				c3.91-13.25,5.15-14.81,4.03,0c0.45,0,0.45,0,0.9,0c1.83-13.98,1.02-18.32,7.84-6.05c0-2.24,0-2.24,0-4.48
				c8.87,7.37,3.63,1.53,3.36,0.67c-0.09-0.31-0.09-1.41,0.22-1.57c3.46,5.31,1.13-2.92,6.5,3.14c-0.05,0,0.34,0.09-0.9,0.45
				c-3.69,1.07-0.63,0.28,0,2.02c1.62,4.45-4.16-3.76-5.6,5.15c-2.75-3.68-5.78-2.28-6.27-6.27c-0.62,2.43-1.48,5.22-1.79,1.79
				c-0.71,3.2-2.39,6.04-3.36,9.19c-2.7,2.77-0.89-0.4-1.57-0.67c-0.78-0.32-3.23,5.65-5.6,8.07c-0.22,0-0.22,0-0.45,0
				c3.04-6.03-0.15-12.16-1.79,1.34c-0.08,0.04,0.19,0.76-0.9,0c0.12-4.36-3.38-10.85,0-13.67c-0.99-2.27,0.23-8.72,1.12-4.26
				c3.18-4.92-6.56-12.19-4.03-2.69c-7.91-9.71-2.63-2.17-2.46-1.57c0.65,2.32,0.34,6.4,0.45,6.72c0.69,2.01,1.92-1.27,2.24,1.79
				c0.13,1.19-1.94,10.53-2.02,1.12c-2.96,9.41-0.93,3.39-4.48,4.93c-2.11,0.91-2.88,4.39-3.14,4.48c-0.17,0.06-2.18-2.05-2.02-2.91
				c0.48-2.58,8.47-1.31,5.83-4.93c-1.74-2.38-2.37,1.99-4.71,1.12c-4.21-1.57,9.45-2.98-0.67-6.05c1.99-2.64-1.28-4.35-3.59-2.24
				c3.51-9.3-2.62,1.11-2.24-3.14c0.05-0.53,2.03-4.14,2.46-4.26c2.91-0.77,3.77,5.18,6.95,0.22c-7.37-1.53-13.15,1.29-8.07-2.24
				c-2.83-1.28,4.1-6.85,6.05-8.29c0.39-0.29,0.86,0.48,0.9,0.45c2.52-1.85,3.15-5.52,2.69-0.45c10.43-12.05,14.65,4.78,23.98,2.46
				c-2.92-1.42-3.46,0.53-7.17-2.91c0.49,0.01,2.05,0.16,2.24-0.22c-3.73-3.66-4.37,0.56-7.84-6.05c-6.18-3.48-6.51,0.37-7.84-1.12
				c4.98-1.94-0.37-10.99-2.91-9.19c-0.64,0.45,0.09,3.5-0.22,4.26c-0.35,0.84-6.6-1.21-9.41,4.48c-2.09,4.23,1.36-1.71,11.65-1.34
				c-6.4,3.63-6.92-0.42-13,6.72c2.46-0.45,2.46-0.45,4.93-0.9c-0.83,0.64-6.24,5.4-6.27,5.83c-0.16,1.79,8.7-0.32,2.46,2.02
				c-0.82,0.31-3.63,0.49-4.71,0c0-0.09-0.71-1.25-0.9-1.57c0.22-1.23,0.22-1.23,0.45-2.46c4.21-2.1,5.29-10.73,5.38-15.24
				c0.08-3.89,0.98-7.24-3.14-8.74c1.74-5.07-2.69-6.09-1.79-7.17c1.12-1.34,7.94,1.63,1.79,0.9c2.89,2.75,0.8,5.41,1.57,6.5
				c0.66,0.95,10.28,2.99,1.57-3.81c7.3-7.61-4.58-2.15-2.69-5.83c0.47-0.91,1.12,1.01,2.91,0.67c4.27-0.81-3.43-7.06,1.34-4.93
				c9.32-9.05-5.11,6.25,3.36,2.91c-2.25,5.17,2.4,3.32,5.15-2.91c1.35,3.48-3.52,5.3-1.12,7.39c-9.34,6.94-2.97,6.51-3.59,8.07
				c-0.45,1.15-3.5,0.29-3.59,0.45c-0.26,0.49-2.71,9.88,1.79,4.48c0.74-0.89,0.39-4.18,2.24-2.24c0.11-5.32,6.98-0.76,7.84-4.26
				c2.1,10.12,2.5,5.48,6.72,4.48c1.14-1.91-5.89,0.08-4.26-2.02c0.21-0.27,5.56-0.64-0.22-3.81c-0.17-0.09-2.35,2.47-0.45-1.79
				c4.35,2.66,1.83-2.57,4.03-5.38c0.25,2.63,1.27,6.22-1.57,7.39c5.14,6.2,2.58,2.12,2.69,1.79c0.25-0.73,1.18,0.45,1.34,0
				c0.28-0.78-0.3-2.18,0.45-3.59c1.35-2.51,5.25-4.09-0.45,4.48c2.43,2.57,5.43-4.35,6.72-2.24c1.14,1.86-5.56,3.87-1.79,6.72
				c-7.59,3.91,1.81,5.72,3.81,0.22c-0.2,2.62,2.39,7.12-1.34,3.59c-4.85,1.64-6.84,0.05-7.39,2.02c-1.75,6.26,7.76,10.33,7.17,5.38
				c0.45,0,0.45,0,0.9,0c0.73,2.62,1.69,10.08,3.36,3.81c1.5,4.82,5.71,4.61,3.59,6.27C487.52,603.65,488.09,602.75,487.1,602.7z"/>
			<g>
				<path class="st4" d="M487.1,602.7c0,0.22,0,0.22,0,0.45c-2.06-0.04-4.71-0.4-4.03,1.79c-3.04-0.27-3.51-1.12-4.26-0.9
					c-0.16,0.05,0.56,1.88-1.12,0.9c-2.39-2.53-2.33-0.73-5.38-1.12c6.07-8.81-2.22,3.01-3.36-2.46c-4.8,4.81-1.51-0.24,0.45-3.59
					c-1,1.15-2.38,1.72-3.36,2.91c-1.62,1.96,3.29,3.54-9.86,2.69c-0.36-1.58,14.56-1.89,6.27-3.14c4.15-2.8,4.15-2.8,8.29-5.6
					C477.29,598.01,479.33,602.31,487.1,602.7z"/>
				<path class="st20" d="M462.68,610.77c1.11-0.16,3.22,4.21,3.36,5.15c0.49,3.23-1.21,15.1-3.14,4.03
					c-4.12-1.51-7.84-11.25-1.57-4.71C461.86,614.85,461.02,611,462.68,610.77z"/>
				<path class="st4" d="M468.95,582.53c0.29-0.01,3.42,3.33,3.81,3.81c4.68,5.76,3.85,6-0.22,3.81c-0.42-0.23,0.72-1.1,0-1.34
					c-0.4-0.14-1.8,1.31-2.91-0.22C469.42,588.3,467.49,582.56,468.95,582.53z"/>
				<path class="st4" d="M459.54,580.29c0.43,0,3.6,4.12,2.91,5.15c-5.85-2.52-7.48,2.74-7.84,2.46
					C452.86,586.58,459.06,580.29,459.54,580.29z"/>
				<path class="st20" d="M459.09,604.05c11.87-0.18-0.3,3.9-2.24,3.59C453.36,607.06,457.94,605.54,459.09,604.05z"/>
				<path class="st4" d="M461.33,577.6c0.12-0.06,2.52-0.07,2.69,0c3.63,1.53-1.92,3.17-1.79,4.48
					C461.2,581.19,459.7,578.47,461.33,577.6z"/>
				<path class="st4" d="M472.98,582.53c3.97-1.33,2.41,3.62,1.79,5.38C474.64,586.36,469.65,583.66,472.98,582.53z"/>
				<path class="st4" d="M457.3,566.4c0.9,2.32,2.89,0.37,3.36,1.12C462.01,569.66,454.44,574.57,457.3,566.4z"/>
				<path class="st6" d="M474.55,633.18c-0.2,0.39-1.32,1.07-1.79,1.34C474.4,621.02,477.6,627.15,474.55,633.18z"/>
				<path class="st6" d="M480.16,617.49c0.33,1.48,1,3.17,0.67,4.71C479.44,628.67,477.02,620.08,480.16,617.49z"/>
				<path class="st4" d="M477.91,578.5c2.62,2.08-2.61,4.82-5.15,2.02C474.38,580.59,477.7,578.33,477.91,578.5z"/>
				<path class="st4" d="M466.26,577.6c0.3-0.04,3.57,3.47,2.24,4.48C467.19,583.09,464.16,577.89,466.26,577.6z"/>
				<path class="st20" d="M470.74,604.49c4.66-0.86,8.95,3.83-0.67,0.67C470.34,604.97,470.6,604.52,470.74,604.49z"/>
				<path class="st20" d="M490.91,614.35c5.62,4.26,0.79,4.16,0.22,3.36C491,617.52,491.3,615.52,490.91,614.35z"/>
				<path class="st20" d="M469.85,606.74c2.58,0.34,2.58,0.34,5.15,0.67C475,608.67,470.34,607.62,469.85,606.74z"/>
				<path class="st20" d="M466.26,604.94c4.84-1.33-2.1,3.68-2.91,2.02C464.43,606.64,465.32,605.2,466.26,604.94z"/>
				<path class="st6" d="M472.09,623.77c0.18,0.03,0.96,3.25,0.45,3.59C471.59,627.98,471.26,623.63,472.09,623.77z"/>
				<path class="st20" d="M466.71,607.18c2.03,0.01-1.12,2.23-1.12,0.67C465.59,607.79,466.64,607.18,466.71,607.18z"/>
				<path class="st24" d="M462.68,608.53c0.05-0.04,0.73,0.45,0.45,0.9C462.44,610.5,462.11,608.93,462.68,608.53z"/>
			</g>
		</g>
		<g>
			<path class="st5" d="M508.17,622.42c-1.18,1.49,0.23,6.97,1.57,8.07c2.75,2.25,2.06-2.21,4.93-3.14
				c0.05,3.14,5.33,1.49,3.81,6.05c-0.12,0.35-4.26,3.29-4.03,3.59c0.52,0.68,3.47-0.71,2.69,1.79c-0.04,0.14-2.22,1.22-2.24,1.34
				c-0.08,0.56,9.33,5.04-0.9,5.83c0.56,2.13,0.56,2.13,1.12,4.26c-2-2.77-1.89-1.27-2.02-1.34c-1.27-0.74-0.84-2.73-2.24-0.9
				c-0.75,0.98-0.27,1.53-0.67,1.79c-0.23,0.15-2.64-3.17-3.14-3.14c-1.02,0.06-1.44,3.22-1.57,3.36c-0.75,0.82-1.52,0.24-2.02,0.67
				c-1.03,0.89-1.8,4.66-1.34-0.45c-4.27,4.88-3.1-3.11-2.91-5.83c0.11-1.53,2.82-9.77-1.12-8.52c-0.89,0.28-1.2,2.7-2.46,4.03
				c-0.3,0.32-2.34,1.88-2.46,1.79c-0.74-3.07-2.92-7.81-4.93-3.59c-3.86-2.34-4.19-3.58-1.12-6.72c1.33,1.22,1.8,1.95,3.14,1.34
				c0.36,0.62,0.73,1.31,0.9,2.02c6.28,5.64,3.55,2.9,3.59,0.9c0.01-0.77,0.94-1.56,0.9-2.24c-0.02-0.28-1.31,0.04-0.9-5.15
				c0.12-1.5,0.89-3.55,0.9-5.15c3.51,2.78,1.3-2.73,2.24-3.59c0.64-0.58,3.17,1.91,1.34-5.6c1.23-0.36,0.85-0.45,0.9-0.45
				c0.15,0,0.3-0.02,0.45,0c0.19,0.02,0.96,1.42,3.14,1.57c0.01,1.56,3.35,4.49,3.59,4.93
				C507.36,620.13,505.29,620.79,508.17,622.42z"/>
			<path class="st5" d="M513.1,648.86c1.32,6.8-0.62,3.06-2.24-0.9C512.26,646.13,511.83,648.13,513.1,648.86z"/>
			<path class="st6" d="M510.63,634.52c0.56,0.11,0.56,0.11,1.12,0.22c0.19,9.18,5.92,7.5,3.81,9.64
				C509.29,641.88,508.15,642.46,510.63,634.52z"/>
		</g>
		<g>
			<path class="st4" d="M492.93,491.11c0.08,3.87,9.68,15.76,12.77,16.58c5.32,1.42,10.25-5.77,15.01-7.62
				c0.02,5.11,0.33,10.15,0.45,15.24c0.12,5.13,0.44,4.23,0.45,4.48c0.2,10.41,0.44,20.97,0.45,31.37c0,0.3-0.45-0.29-0.45,5.83
				c0,10.18-0.31,20.31-0.45,30.48c-0.02,1.49,0.02,2.99,0,4.48c-0.14,8.81-0.78,17.61-0.45,26.44c-0.29-0.03-0.62,0.05-0.9,0
				c-1.18-2.05-5.55-3.22-5.83-5.6c-0.74-6.4,10.08-2.31,0.67-9.64c-1.93,1.38,3.89,2.78,2.69,4.93c-6.19-2.67-5.03,1.06-7.17-0.9
				c-0.49,0.34,0.85,5.12-0.45,5.83c-1.56,0.85-2.77-2.09-2.91-2.24c-4.11-4.5-2.04-0.68-3.36-0.45c-0.56,0.1-1.41-3.87-1.57,1.34
				c-0.67,0.9-0.67,0.9-1.34,1.79c-0.15-0.02-0.3,0-0.45,0c-5.37-6.06-3.04,2.17-6.5-3.14c-0.31,0.16-0.32,1.26-0.22,1.57
				c0.27,0.86,5.51,6.7-3.36-0.67c0,2.24,0,2.24,0,4.48c-6.83-12.27-6.01-7.93-7.84,6.05c-0.45,0-0.45,0-0.9,0
				c1.12-14.81-0.13-13.25-4.03,0c-4.49-0.52-1.94-10.29-4.71-12.77c-6.39-1.66,4.2-0.35,4.93,1.79c-1-4.24,3.45-2.41,0.22-5.83
				c1.68,0.99,0.96-0.85,1.12-0.9c0.75-0.22,1.22,0.62,4.26,0.9c1.88,0.17,4.36,1.75,4.03-1.79c0-0.22,0-0.22,0-0.45
				c0.98,0.05,0.42,0.95,3.81-0.45c2.13-1.66-2.08-1.45-3.59-6.27c-1.67,6.27-2.63-1.19-3.36-3.81c-0.45,0-0.45,0-0.9,0
				c0.59,4.95-8.93,0.89-7.17-5.38c0.55-1.96,2.54-0.38,7.39-2.02c3.73,3.54,1.15-0.97,1.34-3.59c-2,5.5-11.4,3.68-3.81-0.22
				c-3.77-2.86,2.93-4.86,1.79-6.72c-1.29-2.11-4.29,4.81-6.72,2.24c5.7-8.58,1.8-6.99,0.45-4.48c-0.75,1.4-0.17,2.81-0.45,3.59
				c-0.16,0.45-1.1-0.73-1.34,0c-0.11,0.33,2.45,4.41-2.69-1.79c2.84-1.17,1.82-4.77,1.57-7.39c-2.21,2.81,0.32,8.04-4.03,5.38
				c-1.9,4.26,0.28,1.7,0.45,1.79c5.78,3.17,0.43,3.54,0.22,3.81c-1.63,2.1,5.39,0.11,4.26,2.02c-4.22,1-4.63,5.64-6.72-4.48
				c-0.86,3.5-7.73-1.06-7.84,4.26c-1.85-1.93-1.5,1.35-2.24,2.24c-4.5,5.4-2.06-3.99-1.79-4.48c0.09-0.16,3.13,0.7,3.59-0.45
				c0.62-1.56-5.75-1.13,3.59-8.07c-2.4-2.09,2.48-3.91,1.12-7.39c-2.76,6.23-7.4,8.08-5.15,2.91c-8.47,3.34,5.96-11.96-3.36-2.91
				c-4.77-2.13,2.92,4.12-1.34,4.93c-1.79,0.34-2.45-1.58-2.91-0.67c-1.9,3.67,9.99-1.78,2.69,5.83c8.71,6.8-0.9,4.76-1.57,3.81
				c-0.77-1.09,1.32-3.75-1.57-6.5c6.15,0.74-0.67-2.24-1.79-0.9c-0.9,1.08,3.53,2.1,1.79,7.17c4.12,1.5,3.21,4.85,3.14,8.74
				c-2.87,1.3-3.67,6.88-6.27,8.96c-0.52-13.31-2.73-37.16-2.69-44.82c0.01-2.67,0.44-4.23,0.45-5.83c0.01-1.37,0.89-4.47,0.9-4.71
				c0.24-17.31-1.29-29.33-7.17-45.71c21.62-9.3,21.62-9.3,43.25-18.6C486.08,478.83,488.59,485.35,492.93,491.11z"/>
			<g>
				<path class="st5" d="M506.82,610.77c-0.56,2.91-0.56,2.91-1.12,5.83c-1.6-5.06-3.9-1.84-3.81-4.93
					c0.16-5.21,1.01-1.25,1.57-1.34C504.78,610.09,502.72,606.27,506.82,610.77z"/>
				<path class="st25" d="M497.63,605.84c5.99,2.67-8.02,5.38-4.48,0.9C494.71,604.76,498.42,610.18,497.63,605.84z"/>
				<path class="st5" d="M450.58,556.09c0.85,0.59,0.79,1.6,0.67,2.46C450.9,561.04,444.61,566.23,450.58,556.09z"/>
				<path class="st5" d="M487.1,603.15c0.33,3.54-2.15,1.96-4.03,1.79C482.39,602.75,485.05,603.11,487.1,603.15z"/>
				<path class="st26" d="M482.4,586.12c5.04,4.43,0.74,1.36,0.45,1.34C482.21,587.44,477.55,591.47,482.4,586.12z"/>
				<path class="st26" d="M504.8,577.16c-0.69,4.81-4.09,1.63-3.81,1.12C501.38,577.56,503.13,579.38,504.8,577.16z"/>
				<path class="st27" d="M490.91,579.85c2.05-0.29-2.65,3.5-3.36,2.02C489.55,581.17,490.72,579.87,490.91,579.85z"/>
				<path class="st28" d="M495.84,603.6c0.45,0.9,0.45,0.9,0.9,1.79C495.42,605.66,495.32,604.77,495.84,603.6z"/>
				<g>
					<path class="st5" d="M495.62,597.77c0.13,1.75,7.07,3.13,2.02-1.79C497.13,596.88,496.3,597.19,495.62,597.77
						c-0.04-0.56,1.44,0.17-0.67-4.48c-1.81-1.28-7.02,2.7-4.26-1.12c-5.02-4.79,0.36-0.34,0.67-0.22c7.67,2.97-2.21-3.84-2.02-4.26
						c4.35-0.75,7.05,6.95,6.27,2.69c-0.1-0.54-4.13-4.35-1.57-4.71c0.41-0.06,3.98,5.31,4.03,6.72c2.27-8.24-2.44-9.23,3.36-6.27
						c-3.63,11.15,2.65,7.07,0.9,1.12c-0.02-0.08-0.62-1.15-0.9-1.12c0.44-1.35,0.58-2.72,1.12-4.03c0.45,2.69,0.45,2.69,0.9,5.38
						c3.65-9.26-0.22,1.26,5.38-4.48c-0.31,3.03-3.59,2.77-4.71,5.15c-3.85,8.17,2.5-2.55,6.95-0.67c1.27-4.68,0.84-0.49,1.34,0
						c0.55,0.53,5.27-0.26,6.05,5.15c1.48,10.26-2.48-0.87-3.14-1.79c-4.26-5.99-10.18-1.13-9.41,0.45
						c0.21,0.44,3.97,0.57,4.03,2.24c-0.23,0.42-6.81-3.2-8.52,1.34c-2.36,6.27,3.48,0.9,3.81,1.12c1.21,0.81-2.44,3.75,3.59,1.79
						c2.9,4.15,6.3-4.27,4.03,3.14c-9.63-4.34-5.92,3.39-6.95,4.26c-3.9-4.88-0.18,0.66-1.57,0.67c-1.95-1.11-4.33-4.82-5.38-5.38
						C495.51,598.6,491.51,601.3,495.62,597.77z"/>
					<g>
						<path class="st4" d="M503.91,597.77c1.62,0.24,1.45,4.53,0.9,4.93c-0.22,0.16-4.28-0.83-3.36-3.36
							C501.53,599.11,503.76,597.75,503.91,597.77z"/>
						<path class="st4" d="M501.44,586.12c0.27-0.03,0.87,1.04,0.9,1.12C504.1,593.18,497.81,597.27,501.44,586.12z"/>
						<path class="st4" d="M495.62,597.77c0.68-0.59,1.51-0.9,2.02-1.79C502.69,600.9,495.75,599.53,495.62,597.77z"/>
						<path class="st29" d="M496.29,591.05c0.13-0.06,1.1,2.11,1.12,2.46C497.6,596.42,495.32,591.47,496.29,591.05z"/>
						<path class="st29" d="M499.43,593.29c1.02-0.46,0.78,2.65,0.45,2.69C499.72,596,498.91,593.52,499.43,593.29z"/>
					</g>
				</g>
			</g>
		</g>
		<g>
			<path class="st5" d="M519.82,618.39c-1.87-0.37-5.83-3.43-6.5-3.14c-1,0.44-0.65,4.31-1.12,4.71c-0.46,0.4-4.35-4.83-4.03,2.46
				c-2.88-1.63-0.8-2.29-0.9-2.46c-0.23-0.44-3.58-3.37-3.59-4.93c-2.17-0.15-2.95-1.55-3.14-1.57c0.67-0.9,0.67-0.9,1.34-1.79
				c-0.09,3.09,2.21-0.13,3.81,4.93c0.56-2.91,0.56-2.91,1.12-5.83c0.14,0.16,1.36,3.09,2.91,2.24c1.29-0.71-0.04-5.49,0.45-5.83
				c2.14,1.96,0.98-1.77,7.17,0.9c1.2-2.15-4.62-3.55-2.69-4.93c9.41,7.32-1.41,3.24-0.67,9.64
				C514.27,615.16,518.64,616.34,519.82,618.39z"/>
			<path class="st20" d="M507.94,614.35c2.16-0.78,0.81,4.04,0,4.03C507.52,618.39,506.59,614.84,507.94,614.35z"/>
			<path class="st24" d="M511.08,609.87c1.04,1.44,2.11,2.04,0.9,3.59C511.53,611.67,511.53,611.67,511.08,609.87z"/>
			<path class="st24" d="M511.98,613.91c1.42,2.36-3.18,3.71-1.57,1.12C511.42,613.41,511.42,616.66,511.98,613.91z"/>
		</g>
		<g>
			<path class="st4" d="M479.93,598.22c-0.06,0,0.04-0.38-0.67-0.9C478.46,598.42,479.85,598.14,479.93,598.22
				c3.71,3.45,4.25,1.49,7.17,2.91c-9.33,2.32-13.54-14.52-23.98-2.46c0.47-5.07-0.17-1.4-2.69,0.45c-0.04,0.03-0.5-0.74-0.9-0.45
				c-1.95,1.45-8.88,7.01-6.05,8.29c-5.08,3.53,0.69,0.71,8.07,2.24c-3.18,4.95-4.04-0.99-6.95-0.22c-0.43,0.12-2.42,3.72-2.46,4.26
				c-0.37,4.24,5.75-6.16,2.24,3.14c2.3-2.11,5.58-0.4,3.59,2.24c10.12,3.07-3.54,4.48,0.67,6.05c2.34,0.87,2.97-3.5,4.71-1.12
				c2.64,3.62-5.35,2.35-5.83,4.93c-0.16,0.86,1.85,2.97,2.02,2.91c0.26-0.09,1.03-3.57,3.14-4.48c3.55-1.54,1.52,4.48,4.48-4.93
				c0.08,9.41,2.14,0.07,2.02-1.12c-0.32-3.06-1.55,0.22-2.24-1.79c-0.11-0.32,0.2-4.4-0.45-6.72c-0.17-0.6-5.45-8.14,2.46,1.57
				c-2.53-9.5,7.22-2.23,4.03,2.69c-0.89-4.46-2.11,1.99-1.12,4.26c-3.38,2.82,0.12,9.31,0,13.67c-0.01,0.2-0.76,1.27-0.45,4.03
				c-0.05,0.02,0.17,0.72-0.22,0.9c-0.81-0.94-0.3-2.89-2.02-2.46c3.4-2.87,0.29-12.77-3.81-6.05c-3.22-3.6-4.93,0.93-5.83,1.34
				c-0.55,0.25-1.28-1.64-2.69,0.9c-1.79-1.79-1.79-1.79-3.59-3.59c2.56,8.31-0.37,1.09-5.15,1.79c0.1-9.49,1.11-19.25,0.9-28.68
				c1.08,0.49,3.89,0.31,4.71,0c6.23-2.34-2.63-0.23-2.46-2.02c0.04-0.43,5.44-5.18,6.27-5.83c-2.46,0.45-2.46,0.45-4.93,0.9
				c6.08-7.14,6.6-3.09,13-6.72c-10.29-0.36-13.74,5.58-11.65,1.34c2.81-5.7,9.06-3.64,9.41-4.48c0.32-0.76-0.42-3.8,0.22-4.26
				c2.55-1.8,7.89,7.24,2.91,9.19c1.33,1.49,1.67-2.36,7.84,1.12c3.48,6.61,4.12,2.39,7.84,6.05
				C481.98,598.38,480.42,598.24,479.93,598.22z"/>
			<path class="st5" d="M455.06,617.04c1.94-0.54,1.9,6.42-1.34,8.96c-1.08-2.41,1.55-4.01,1.57-4.26
				C455.3,621.5,453.26,617.55,455.06,617.04z"/>
			<path class="st26" d="M455.95,625.56c1.05,0.38-1.83,5.22-1.12,1.57C454.86,627.01,455.83,625.52,455.95,625.56z"/>
			<path class="st5" d="M479.93,598.22c-0.08-0.08-1.47,0.2-0.67-0.9C479.97,597.84,479.88,598.22,479.93,598.22z"/>
		</g>
		<g>
			<path class="st5" d="M494.72,628.25c-0.42,5.19,0.88,4.88,0.9,5.15c0.04,0.68-0.88,1.47-0.9,2.24c-0.03,2.01,2.69,4.75-3.59-0.9
				c-0.16-0.71-0.54-1.4-0.9-2.02c-0.17-0.3-0.03-2.68-0.45-3.36c-0.14-0.22-4.53-3.15-2.46-3.81c0.78-0.25,3.92,4.41,0.22-4.26
				c3.15,3.62,2.48,0.58,3.36,0.67C494.29,622.32,488.84,634.64,494.72,628.25z"/>
			<path class="st24" d="M491.81,630.49c0.31-0.01,1.15,2.8,0.45,3.14C491.97,633.76,490.58,630.53,491.81,630.49z"/>
		</g>
	</g>
</g>
<ellipse transform="matrix(0.2761 -0.9611 0.9611 0.2761 -199.7377 948.0854)" class="st30" cx="529.51" cy="606.64" rx="107.75" ry="199.78"/>
<rect x="508.83" y="424.36" transform="matrix(0.2761 -0.9611 0.9611 0.2761 -198.3951 962.1833)" class="st31" width="61.43" height="376.88"/>
<text transform="matrix(0.9611 0.2761 -0.2761 0.9611 355.7297 570.059)" class="st32 st33 st34">Løp og kjøp!</text>
</svg>
