<?xml version="1.0" encoding="utf-8"?>
<!-- Generator: Adobe Illustrator 28.3.0, SVG Export Plug-In . SVG Version: 6.00 Build 0)  -->
<svg version="1.1" id="Layer_1" xmlns="http://www.w3.org/2000/svg" xmlns:xlink="http://www.w3.org/1999/xlink" x="0px" y="0px"
	 viewBox="0 0 2000 1200" style="enable-background:new 0 0 2000 1200;" xml:space="preserve">
<style type="text/css">
	.st0{fill:#4A4B4D;stroke:#000000;stroke-miterlimit:10;}
	.st1{fill:#A2BCCC;stroke:#000000;stroke-miterlimit:10;}
	.st2{opacity:0.78;fill:#E1E8EF;stroke:#000000;stroke-width:0.25;stroke-miterlimit:10;}
	.st3{fill:#A3A5A7;stroke:#000000;stroke-miterlimit:10;}
	.st4{fill:#4D6472;stroke:#000000;stroke-miterlimit:10;}
	.st5{fill:#525759;stroke:#000000;stroke-miterlimit:10;}
	.st6{fill:#657F8C;stroke:#000000;stroke-miterlimit:10;}
	.st7{fill:#A4B2BC;stroke:#000000;stroke-miterlimit:10;}
	.st8{fill:#8AACC6;stroke:#000000;stroke-miterlimit:10;}
	.st9{fill:#8F9EAA;stroke:#000000;stroke-miterlimit:10;}
	.st10{fill:#8099A8;stroke:#000000;stroke-miterlimit:10;}
	.st11{fill:#839BAA;stroke:#000000;stroke-miterlimit:10;}
	.st12{fill:#778389;stroke:#000000;stroke-miterlimit:10;}
	.st13{opacity:0.78;fill:#E1E8EF;stroke:#000000;stroke-miterlimit:10;}
	.st14{opacity:0.73;}
	.st15{fill:#E1E8EF;}
</style>
<g>
	<rect x="1860.89" y="301.83" class="st0" width="27.9" height="46.96"/>
	<g>
		<rect x="1182.67" y="351.84" class="st0" width="27.9" height="46.96"/>
		<g>
			<g>
				<polygon class="st1" points="1146.61,797.76 975.79,797.76 975.79,445.58 1146.61,336.77 				"/>
				
					<rect x="1004.45" y="463.68" transform="matrix(-1 -4.489266e-11 4.489266e-11 -1 2122.3972 964.8068)" class="st2" width="113.49" height="37.44"/>
				
					<rect x="1004.45" y="648.58" transform="matrix(-1 -4.489266e-11 4.489266e-11 -1 2122.3972 1334.5996)" class="st2" width="113.49" height="37.44"/>
				
					<rect x="1004.45" y="589.79" transform="matrix(-1 -4.489266e-11 4.489266e-11 -1 2122.3972 1217.012)" class="st2" width="113.49" height="37.44"/>
				
					<rect x="1004.45" y="525.11" transform="matrix(-1 -4.489266e-11 4.489266e-11 -1 2122.3972 1087.6595)" class="st2" width="113.49" height="37.44"/>
				
					<rect x="1004.45" y="715.89" transform="matrix(-1 -4.489266e-11 4.489266e-11 -1 2122.3972 1469.217)" class="st2" width="113.49" height="37.44"/>
			</g>
			<g>
				
					<rect x="1109.74" y="386.49" transform="matrix(-1 -4.489665e-11 4.489665e-11 -1 2373.9233 1134.5251)" class="st3" width="154.44" height="361.54"/>
				
					<rect x="1130.22" y="413.4" transform="matrix(-1 -4.489266e-11 4.489266e-11 -1 2373.9233 864.2491)" class="st2" width="113.49" height="37.44"/>
				
					<rect x="1130.22" y="467.23" transform="matrix(-1 -4.489266e-11 4.489266e-11 -1 2373.9233 971.8915)" class="st2" width="113.49" height="37.44"/>
				
					<rect x="1130.22" y="521.05" transform="matrix(-1 -4.489266e-11 4.489266e-11 -1 2373.9233 1079.5339)" class="st2" width="113.49" height="37.44"/>
				
					<rect x="1130.22" y="682.51" transform="matrix(-1 -4.489266e-11 4.489266e-11 -1 2373.9233 1402.4611)" class="st2" width="113.49" height="37.44"/>
				
					<rect x="1130.22" y="628.69" transform="matrix(-1 -4.489266e-11 4.489266e-11 -1 2373.9233 1294.8187)" class="st2" width="113.49" height="37.44"/>
				
					<rect x="1130.22" y="574.87" transform="matrix(-1 -4.489266e-11 4.489266e-11 -1 2373.9233 1187.1763)" class="st2" width="113.49" height="37.44"/>
			</g>
			<g>
				
					<rect x="1752.98" y="343.79" transform="matrix(-1 -4.490420e-11 4.490420e-11 -1 3656.8909 964.9359)" class="st4" width="150.93" height="277.36"/>
				
					<rect x="1772.99" y="364.43" transform="matrix(-1 -4.490376e-11 4.490376e-11 -1 3656.8909 757.5886)" class="st2" width="110.91" height="28.72"/>
				
					<rect x="1772.99" y="405.72" transform="matrix(-1 -4.490376e-11 4.490376e-11 -1 3656.8909 840.1685)" class="st2" width="110.91" height="28.72"/>
				
					<rect x="1772.99" y="447.01" transform="matrix(-1 -4.490376e-11 4.490376e-11 -1 3656.8909 922.7484)" class="st2" width="110.91" height="28.72"/>
				
					<rect x="1772.99" y="570.88" transform="matrix(-1 -4.490376e-11 4.490376e-11 -1 3656.8909 1170.488)" class="st2" width="110.91" height="28.72"/>
				
					<rect x="1772.99" y="529.59" transform="matrix(-1 -4.490376e-11 4.490376e-11 -1 3656.8909 1087.9081)" class="st2" width="110.91" height="28.72"/>
				
					<rect x="1772.99" y="488.3" transform="matrix(-1 -4.490376e-11 4.490376e-11 -1 3656.8909 1005.3282)" class="st2" width="110.91" height="28.72"/>
			</g>
			<g>
				
					<rect x="1236.7" y="344.99" transform="matrix(-1 -4.490331e-11 4.490331e-11 -1 2693.3745 1051.5178)" class="st5" width="219.96" height="361.54"/>
				
					<rect x="1265.87" y="371.9" transform="matrix(-1 -4.490065e-11 4.490065e-11 -1 2693.3745 781.2418)" class="st2" width="161.64" height="37.44"/>
				
					<rect x="1265.87" y="425.72" transform="matrix(-1 -4.490065e-11 4.490065e-11 -1 2693.3745 888.8842)" class="st2" width="161.64" height="37.44"/>
				
					<rect x="1265.87" y="479.54" transform="matrix(-1 -4.490065e-11 4.490065e-11 -1 2693.3745 996.5266)" class="st2" width="161.64" height="37.44"/>
				
					<rect x="1265.87" y="641.01" transform="matrix(-1 -4.490065e-11 4.490065e-11 -1 2693.3745 1319.4537)" class="st2" width="161.64" height="37.44"/>
				
					<rect x="1265.87" y="587.19" transform="matrix(-1 -4.490065e-11 4.490065e-11 -1 2693.3745 1211.8114)" class="st2" width="161.64" height="37.44"/>
				
					<rect x="1265.87" y="533.36" transform="matrix(-1 -4.490065e-11 4.490065e-11 -1 2693.3745 1104.1689)" class="st2" width="161.64" height="37.44"/>
			</g>
			<g>
				<polygon class="st6" points="1616,821.19 1445.17,821.19 1445.17,469.01 1616,360.2 				"/>
				
					<rect x="1473.84" y="487.12" transform="matrix(-1 -4.490909e-11 4.490909e-11 -1 3061.1704 1011.6724)" class="st2" width="113.49" height="37.44"/>
				
					<rect x="1473.84" y="672.01" transform="matrix(-1 -4.490909e-11 4.490909e-11 -1 3061.1704 1381.4652)" class="st2" width="113.49" height="37.44"/>
				
					<rect x="1473.84" y="613.22" transform="matrix(-1 -4.490909e-11 4.490909e-11 -1 3061.1704 1263.8776)" class="st2" width="113.49" height="37.44"/>
				
					<rect x="1473.84" y="548.54" transform="matrix(-1 -4.490909e-11 4.490909e-11 -1 3061.1704 1134.5251)" class="st2" width="113.49" height="37.44"/>
				
					<rect x="1473.84" y="739.32" transform="matrix(-1 -4.490909e-11 4.490909e-11 -1 3061.1704 1516.0826)" class="st2" width="113.49" height="37.44"/>
			</g>
			<g>
				
					<rect x="1604.38" y="452.34" transform="matrix(-1 -4.490021e-11 4.490021e-11 -1 3386.3687 1196.6011)" class="st7" width="177.6" height="291.91"/>
				
					<rect x="1627.93" y="474.07" transform="matrix(-1 -4.489221e-11 4.489221e-11 -1 3386.3687 978.3746)" class="st2" width="130.51" height="30.23"/>
				
					<rect x="1627.93" y="517.53" transform="matrix(-1 -4.489932e-11 4.489932e-11 -1 3386.3687 1065.2874)" class="st2" width="130.51" height="30.23"/>
				
					<rect x="1627.93" y="560.98" transform="matrix(-1 -4.489221e-11 4.489221e-11 -1 3386.3687 1152.2)" class="st2" width="130.51" height="30.23"/>
				
					<rect x="1627.93" y="691.35" transform="matrix(-1 -4.489221e-11 4.489221e-11 -1 3386.3687 1412.9381)" class="st2" width="130.51" height="30.23"/>
				
					<rect x="1627.93" y="647.9" transform="matrix(-1 -4.489221e-11 4.489221e-11 -1 3386.3687 1326.0254)" class="st2" width="130.51" height="30.23"/>
				
					<rect x="1627.93" y="604.44" transform="matrix(-1 -4.489221e-11 4.489221e-11 -1 3386.3687 1239.1127)" class="st2" width="130.51" height="30.23"/>
			</g>
			<g>
				
					<rect x="1854.37" y="432.45" transform="matrix(-1 -4.489665e-11 4.489665e-11 -1 3863.1736 1226.4368)" class="st8" width="154.44" height="361.54"/>
				
					<rect x="1874.84" y="459.36" transform="matrix(-1 -4.489266e-11 4.489266e-11 -1 3863.1736 956.1607)" class="st2" width="113.49" height="37.44"/>
				
					<rect x="1874.84" y="513.18" transform="matrix(-1 -4.488466e-11 4.488466e-11 -1 3863.1736 1063.8031)" class="st2" width="113.49" height="37.44"/>
				
					<rect x="1874.84" y="567" transform="matrix(-1 -4.489266e-11 4.489266e-11 -1 3863.1736 1171.4454)" class="st2" width="113.49" height="37.44"/>
				
					<rect x="1874.84" y="728.47" transform="matrix(-1 -4.489266e-11 4.489266e-11 -1 3863.1736 1494.3727)" class="st2" width="113.49" height="37.44"/>
				
					<rect x="1874.84" y="674.64" transform="matrix(-1 -4.489266e-11 4.489266e-11 -1 3863.1736 1386.7302)" class="st2" width="113.49" height="37.44"/>
				
					<rect x="1874.84" y="620.82" transform="matrix(-1 -4.489266e-11 4.489266e-11 -1 3863.1736 1279.0879)" class="st2" width="113.49" height="37.44"/>
			</g>
		</g>
	</g>
</g>
<g>
	<rect x="147.64" y="222.59" class="st0" width="32.04" height="53.94"/>
	<g>
		<g>
			<polygon class="st1" points="887.75,710.55 1058.57,710.55 1058.57,358.38 887.75,249.56 			"/>
			<rect x="916.42" y="376.48" class="st2" width="113.49" height="37.44"/>
			<rect x="916.42" y="561.37" class="st2" width="113.49" height="37.44"/>
			<rect x="916.42" y="502.58" class="st2" width="113.49" height="37.44"/>
			<rect x="916.42" y="437.9" class="st2" width="113.49" height="37.44"/>
			<rect x="916.42" y="628.68" class="st2" width="113.49" height="37.44"/>
		</g>
		<g>
			<rect x="770.18" y="299.29" class="st3" width="154.44" height="361.54"/>
			<rect x="790.65" y="326.2" class="st2" width="113.49" height="37.44"/>
			<rect x="790.65" y="380.02" class="st2" width="113.49" height="37.44"/>
			<rect x="790.65" y="433.84" class="st2" width="113.49" height="37.44"/>
			<rect x="790.65" y="595.31" class="st2" width="113.49" height="37.44"/>
			<rect x="790.65" y="541.48" class="st2" width="113.49" height="37.44"/>
			<rect x="790.65" y="487.66" class="st2" width="113.49" height="37.44"/>
		</g>
		<g>
			<rect x="130.45" y="256.58" class="st4" width="150.93" height="277.36"/>
			<rect x="150.46" y="277.23" class="st2" width="110.91" height="28.72"/>
			<rect x="150.46" y="318.52" class="st2" width="110.91" height="28.72"/>
			<rect x="150.46" y="359.81" class="st2" width="110.91" height="28.72"/>
			<rect x="150.46" y="483.68" class="st2" width="110.91" height="28.72"/>
			<rect x="150.46" y="442.39" class="st2" width="110.91" height="28.72"/>
			<rect x="150.46" y="401.1" class="st2" width="110.91" height="28.72"/>
		</g>
		<g>
			<rect x="577.69" y="257.79" class="st5" width="219.96" height="361.54"/>
			<rect x="606.85" y="284.7" class="st2" width="161.64" height="37.44"/>
			<rect x="606.85" y="338.52" class="st2" width="161.64" height="37.44"/>
			<rect x="606.85" y="392.34" class="st2" width="161.64" height="37.44"/>
			<rect x="606.85" y="553.8" class="st2" width="161.64" height="37.44"/>
			<rect x="606.85" y="499.98" class="st2" width="161.64" height="37.44"/>
			<rect x="606.85" y="446.16" class="st2" width="161.64" height="37.44"/>
		</g>
		<g>
			<polygon class="st6" points="418.36,733.99 589.19,733.99 589.19,381.81 418.36,273 			"/>
			<rect x="447.03" y="399.91" class="st2" width="113.49" height="37.44"/>
			<rect x="447.03" y="584.81" class="st2" width="113.49" height="37.44"/>
			<rect x="447.03" y="526.01" class="st2" width="113.49" height="37.44"/>
			<rect x="447.03" y="461.34" class="st2" width="113.49" height="37.44"/>
			<rect x="447.03" y="652.12" class="st2" width="113.49" height="37.44"/>
		</g>
		<g>
			<rect x="252.37" y="365.14" class="st7" width="177.6" height="291.91"/>
			<rect x="275.92" y="386.87" class="st2" width="130.51" height="30.23"/>
			<rect x="275.92" y="430.32" class="st2" width="130.51" height="30.23"/>
			<rect x="275.92" y="473.78" class="st2" width="130.51" height="30.23"/>
			<rect x="275.92" y="604.15" class="st2" width="130.51" height="30.23"/>
			<rect x="275.92" y="560.69" class="st2" width="130.51" height="30.23"/>
			<rect x="275.92" y="517.24" class="st2" width="130.51" height="30.23"/>
		</g>
		<g>
			<rect x="25.55" y="345.24" class="st8" width="154.44" height="361.54"/>
			<rect x="46.03" y="372.16" class="st2" width="113.49" height="37.44"/>
			<rect x="46.03" y="425.98" class="st2" width="113.49" height="37.44"/>
			<rect x="46.03" y="479.8" class="st2" width="113.49" height="37.44"/>
			<rect x="46.03" y="641.26" class="st2" width="113.49" height="37.44"/>
			<rect x="46.03" y="587.44" class="st2" width="113.49" height="37.44"/>
			<rect x="46.03" y="533.62" class="st2" width="113.49" height="37.44"/>
		</g>
	</g>
</g>
<g>
	<rect x="571.01" y="355.29" class="st8" width="402.63" height="402.63"/>
	<rect x="621.22" y="395.65" class="st1" width="107.61" height="84.29"/>
	<rect x="820.3" y="656.59" class="st1" width="107.61" height="84.29"/>
	<rect x="621.22" y="656.59" class="st1" width="107.61" height="84.29"/>
	<rect x="820.3" y="520.29" class="st1" width="107.61" height="84.29"/>
	<rect x="621.22" y="520.29" class="st1" width="107.61" height="84.29"/>
	<rect x="820.3" y="395.65" class="st1" width="107.61" height="84.29"/>
</g>
<g>
	<polyline class="st1" points="503.54,1208.49 185.79,1208.49 185.79,553.4 503.54,351 	"/>
	<polyline class="st2" points="450.22,587.08 239.11,587.08 239.11,656.72 450.22,656.72 	"/>
	<polyline class="st2" points="450.22,931.01 239.11,931.01 239.11,1000.65 450.22,1000.65 	"/>
	<polyline class="st2" points="450.22,821.64 239.11,821.64 239.11,891.29 450.22,891.29 	"/>
	<polyline class="st2" points="450.22,701.34 239.11,701.34 239.11,770.98 450.22,770.98 	"/>
	<polyline class="st2" points="450.22,1056.21 239.11,1056.21 239.11,1125.85 450.22,1125.85 	"/>
</g>
<g>
	<rect x="-3.56" y="529.46" class="st9" width="316.39" height="672.5"/>
	<rect x="38.39" y="579.52" class="st2" width="232.5" height="69.64"/>
	<rect x="38.39" y="679.63" class="st2" width="232.5" height="69.64"/>
	<rect x="38.39" y="779.75" class="st2" width="232.5" height="69.64"/>
	<rect x="38.39" y="1080.09" class="st2" width="232.5" height="69.64"/>
	<rect x="38.39" y="979.97" class="st2" width="232.5" height="69.64"/>
	<rect x="38.39" y="879.86" class="st2" width="232.5" height="69.64"/>
</g>
<g>
	<rect x="1545.37" y="575.07" class="st10" width="463.57" height="672.5"/>
	<rect x="1606.83" y="625.12" class="st2" width="340.65" height="69.64"/>
	<rect x="1606.83" y="725.24" class="st2" width="340.65" height="69.64"/>
	<rect x="1606.83" y="825.35" class="st2" width="340.65" height="69.64"/>
	<rect x="1606.83" y="1125.69" class="st2" width="340.65" height="69.64"/>
	<rect x="1606.83" y="1025.58" class="st2" width="340.65" height="69.64"/>
	<rect x="1606.83" y="925.46" class="st2" width="340.65" height="69.64"/>
</g>
<g>
	<rect x="283.73" y="720.11" class="st11" width="488.6" height="488.6"/>
	<rect x="344.66" y="769.08" class="st1" width="130.58" height="102.29"/>
	<rect x="586.24" y="1085.75" class="st1" width="130.58" height="102.29"/>
	<rect x="344.66" y="1085.75" class="st1" width="130.58" height="102.29"/>
	<rect x="586.24" y="920.34" class="st1" width="130.58" height="102.29"/>
	<rect x="344.66" y="920.34" class="st1" width="130.58" height="102.29"/>
	<rect x="586.24" y="769.08" class="st1" width="130.58" height="102.29"/>
</g>
<rect x="1604.25" y="119.52" class="st0" width="129.78" height="95.31"/>
<g>
	<g>
		<polygon class="st12" points="1313.09,178.01 1313.09,591.41 709.66,591.41 709.66,1208.17 1313.09,1208.17 1326.43,1208.17 
			1753.16,1208.17 1753.16,178.01 		"/>
	</g>
</g>
<rect x="786.58" y="653.22" class="st13" width="164.84" height="129.12"/>
<rect x="786.58" y="1052.95" class="st13" width="164.84" height="129.12"/>
<rect x="786.58" y="844.16" class="st13" width="164.84" height="129.12"/>
<g class="st14">
	
		<ellipse transform="matrix(0.9859 -0.1672 0.1672 0.9859 -109.818 208.4938)" class="st15" cx="1183.64" cy="756.62" rx="134.07" ry="132.09"/>
	
		<ellipse transform="matrix(0.9859 -0.1672 0.1672 0.9859 -101.0503 242.5592)" class="st15" cx="1390.39" cy="721.57" rx="126.54" ry="124.67"/>
	
		<ellipse transform="matrix(0.9859 -0.1672 0.1672 0.9859 -138.5688 207.0577)" class="st15" cx="1160.74" cy="926.69" rx="117.2" ry="115.46"/>
	
		<ellipse transform="matrix(0.9859 -0.1672 0.1672 0.9859 -111.4839 260.5913)" class="st15" cx="1492.29" cy="792.56" rx="114.23" ry="112.55"/>
	
		<ellipse transform="matrix(0.9859 -0.1672 0.1672 0.9859 -162.4381 224.3035)" class="st15" cx="1251.25" cy="1077.11" rx="110.51" ry="108.87"/>
	
		<ellipse transform="matrix(0.9859 -0.1672 0.1672 0.9859 -133.8365 275.7387)" class="st15" cx="1571.1" cy="932.92" rx="126.98" ry="125.1"/>
	
		<ellipse transform="matrix(0.9859 -0.1672 0.1672 0.9859 -151.3647 261.133)" class="st15" cx="1475.57" cy="1029.74" rx="119.85" ry="118.08"/>
	
		<ellipse transform="matrix(0.9859 -0.1672 0.1672 0.9859 -137.5269 235.4324)" class="st15" cx="1329.82" cy="934.69" rx="122.22" ry="120.41"/>
</g>
<rect x="1384.65" y="418.11" class="st2" width="323.39" height="106.68"/>
<rect x="1378.39" y="255.89" class="st2" width="323.39" height="106.68"/>
</svg>
