<?xml version="1.0" encoding="UTF-8"?>
<svg id="Layer_1" data-name="Layer 1" xmlns="http://www.w3.org/2000/svg" xmlns:xlink="http://www.w3.org/1999/xlink" version="1.1" viewBox="0 0 2000 1200">
  <defs>
    <style>
      .cls-1 {
        fill: url(#radial-gradient);
      }

      .cls-1, .cls-2, .cls-3, .cls-4, .cls-5, .cls-6, .cls-7, .cls-8, .cls-9 {
        stroke: #000;
        stroke-miterlimit: 10;
      }

      .cls-10 {
        fill: #759daa;
      }

      .cls-10, .cls-11, .cls-12, .cls-13, .cls-14, .cls-15, .cls-16, .cls-17, .cls-18, .cls-19, .cls-20, .cls-21, .cls-22, .cls-23, .cls-24, .cls-25, .cls-26, .cls-27, .cls-28, .cls-29, .cls-30 {
        stroke-width: 0px;
      }

      .cls-11 {
        fill: #e9e672;
      }

      .cls-12 {
        fill: #466f7f;
      }

      .cls-13 {
        fill: #5953a3;
      }

      .cls-2 {
        fill: #534e56;
      }

      .cls-3 {
        fill: #d77920;
        opacity: .7;
      }

      .cls-3, .cls-8 {
        isolation: isolate;
      }

      .cls-14 {
        fill: #c97654;
      }

      .cls-15 {
        fill: url(#linear-gradient);
      }

      .cls-16 {
        fill: #694159;
      }

      .cls-17 {
        fill: #577f60;
      }

      .cls-18 {
        fill: #197665;
      }

      .cls-19 {
        fill: #276743;
      }

      .cls-20, .cls-7 {
        fill: #534f57;
      }

      .cls-21 {
        fill: #4a4747;
      }

      .cls-22, .cls-4, .cls-5 {
        fill: #b09c9a;
      }

      .cls-5 {
        stroke-width: .2px;
      }

      .cls-23 {
        fill: #b72d2c;
      }

      .cls-24 {
        fill: #ed7872;
      }

      .cls-25 {
        fill: #724442;
      }

      .cls-26 {
        fill: #cd5a9b;
      }

      .cls-31 {
        opacity: .9;
      }

      .cls-32 {
        opacity: .9;
      }

      .cls-33 {
        opacity: .8;
      }

      .cls-34 {
        opacity: .9;
      }

      .cls-35 {
        opacity: .9;
      }

      .cls-6 {
        fill: #b19782;
      }

      .cls-27 {
        fill: #9d9796;
      }

      .cls-28 {
        fill: #805656;
      }

      .cls-29 {
        fill: #1d363d;
      }

      .cls-8 {
        fill: #ebaf2b;
        opacity: .7;
      }

      .cls-9 {
        fill: #585759;
      }

      .cls-30 {
        fill: #af722a;
      }
    </style>
    <linearGradient id="linear-gradient" x1="-912" y1="1196.6" x2="-912" y2="2082.4" gradientTransform="translate(88 -1238.2) rotate(-180) scale(1 -1)" gradientUnits="userSpaceOnUse">
      <stop offset=".1" stop-color="#6d7492"/>
      <stop offset="1" stop-color="#fff"/>
    </linearGradient>
    <radialGradient id="radial-gradient" cx="1665.3" cy="976.5" fx="1665.3" fy="976.5" r="95.4" gradientTransform="translate(0 1202) scale(1 -1)" gradientUnits="userSpaceOnUse">
      <stop offset="0" stop-color="#feff8e" stop-opacity=".6"/>
      <stop offset="0" stop-color="#fff538" stop-opacity=".6"/>
      <stop offset="0" stop-color="#ffee35" stop-opacity=".6"/>
      <stop offset="0" stop-color="#fcd973" stop-opacity=".6"/>
      <stop offset="0" stop-color="#fbc844" stop-opacity=".6"/>
      <stop offset=".1" stop-color="#fbba28" stop-opacity=".6"/>
      <stop offset=".1" stop-color="#f2b329" stop-opacity=".6"/>
      <stop offset=".2" stop-color="#edaf2a" stop-opacity=".6"/>
      <stop offset=".2" stop-color="#ebae2b" stop-opacity=".6"/>
      <stop offset=".3" stop-color="#ebaf2b" stop-opacity=".5"/>
      <stop offset=".7" stop-color="#e29a00" stop-opacity=".9"/>
      <stop offset=".9" stop-color="#e27212"/>
      <stop offset="1" stop-color="#d77920"/>
    </radialGradient>
  </defs>
  <polygon class="cls-15" points="-20 -41.6 2020 -41.6 2020 844.2 -20 844.2 -20 -41.6"/>
  <g>
    <path class="cls-5" d="M712.6,581h0c-5.3,0-9.6-4.3-9.6-9.6v-181.8c0-5.3,4.3-9.6,9.6-9.6h0c5.3,0,9.6,4.3,9.6,9.6v181.8c0,5.3-4.3,9.6-9.6,9.6Z"/>
    <path class="cls-22" d="M649.5,422.2c-2,20.1,6.4,44.1,27.5,50.1,10.9,3.1,22.7,1.1,33.3-2.1,9.2-2.8,5.3-17.3-4-14.5-5.7,1.7-11.4,3-17.3,3.1-2,0-4.1-.1-5.5-.4-1.1-.2-2.2-.5-3.3-.8-.2,0-2.3-.8-1.2-.4-3.9-1.6-5.2-2.8-7.7-5.6-1-1.2.5.8-.5-.6-.5-.7-1-1.5-1.5-2.3-.3-.6-.7-1.2-1-1.8-.1-.3-1.3-2.8-.6-1.2-1.2-2.8-2-5.7-2.5-8.6-.2-.8-.3-1.6-.4-2.4-.3-1.6.1,1.4,0-.6-.1-1.3-.2-2.6-.3-3.9-.1-2.6-.2-5.4,0-8,.4-4-3.7-7.5-7.5-7.5-4.4,0-7.1,3.4-7.5,7.5h0Z"/>
    <path class="cls-22" d="M750.5,448.3c0,.7.2,1.8-.2-1.2,0,.6.2,1.2.2,1.9.2,2.2.5,4.3.6,6.5.5,6.6.7,13.2.5,19.7,0,1.8-.2,3.5-.3,5.3-.2,2.2-.4,4-.5,4.7-.5,3.5-1.3,7-2.4,10.4-.3.8-.6,1.6-.9,2.5.6-1.5-.4.8-.5,1.1-.8,1.4-1.5,2.8-2.5,4.1.9-1.2-1.6,1.6-2.3,2.2,1.7-1.4-3.5,1.7-1.5.9-.8.3-1.7.5-2.5.7-.2,0-1.5.2-.5.1,1.1-.1-.8,0-.9,0-2.9,0-2.7,0-5.1-.5-5.6-1.3-10.5-4-15.4-7.1-8.2-5.1-15.8,7.9-7.6,13,9.5,5.9,20.8,11.2,32.2,9.2,8.2-1.4,14.7-7.1,18.5-14.3,7.8-14.5,7.9-32.9,6.9-48.9-.3-4.8-.8-9.6-1.5-14.3-.6-4-5.7-6.2-9.2-5.2-4.3,1.2-5.8,5.2-5.2,9.3h0Z"/>
  </g>
  <g>
    <circle class="cls-3" cx="1665.3" cy="225.5" r="146.2"/>
    <circle class="cls-8" cx="1665.3" cy="225.5" r="127.2"/>
    <circle class="cls-1" cx="1665.3" cy="225.5" r="95.4"/>
  </g>
  <path class="cls-9" d="M1524.5,475.8c314.8-321.7,487.9-149.8,487.9-149.8l-4,542.9-363.7,61.4"/>
  <path class="cls-4" d="M365.3,668.5c315-70,255-162.5,457.5-117.5s190-95,362.5-35,195-117.5,325-47.5,155,91.7,155,91.7v145.8l-1280,52.5-20-90Z"/>
  <path class="cls-2" d="M2011.9,511.1s-198.6-199.4-361.3-33.1-268,215.7-419.3,234.9-540.5-134-540.5-134C-16.5,322.4-60.7,651.7-60.7,651.7l133.4,520.5,1987.9-219.3"/>
  <path class="cls-6" d="M0,755.5s175.5-220,355.5-72.5,290,185,442.5,187.5,522.5-192.5,522.5-192.5c675-332.5,755-10,755-10l-75.5,532H0"/>
  <g>
    <path class="cls-5" d="M1304.6,546.8h0c5.3,0,9.6-4.3,9.6-9.6v-181.8c0-5.3-4.3-9.6-9.6-9.6h0c-5.3,0-9.6,4.3-9.6,9.6v181.8c0,5.3,4.3,9.6,9.6,9.6Z"/>
    <path class="cls-22" d="M1352.7,388c.3,2.6.2,5.3,0,8,0,1.2-.2,2.5-.3,3.7-.2,2.2.1-.5-.1.9-.1.8-.3,1.6-.4,2.4-.6,2.9-1.4,5.9-2.5,8.6.6-1.5-.3.6-.5.9-.4.7-.7,1.4-1.1,2.1-.5.8-.9,1.5-1.5,2.3-1.3,1.8.9-1-.5.6-2.4,2.8-3.8,4-7.7,5.6,1.1-.4-1.2.4-1.2.4-1.1.3-2.2.6-3.3.8-1.4.3-3.6.4-5.5.4-5.9,0-11.7-1.4-17.3-3.1-9.3-2.8-13.2,11.7-4,14.5,16.3,4.9,36.2,6.3,48.9-7.2,8.3-8.8,11.4-21,12-32.8.1-2.6.2-5.4,0-8-.4-4-3.2-7.5-7.5-7.5-3.7,0-7.9,3.4-7.5,7.5h0Z"/>
    <path class="cls-22" d="M1252.2,410.1c-1.7,11.3-2.3,23-1.5,34.4,1.1,15.9,5.2,37.2,22.8,42.5,12,3.6,24.8-2.4,34.8-8.6,8.2-5.1.7-18.1-7.6-13-4.4,2.7-8.8,5.2-13.8,6.7-2.1.6-3.4.8-4.3.9-.9,0-1.8,0-2.7,0-1.7,0,.6.4-1.4-.2-.7-.2-1.3-.4-1.9-.6-1-.4,1.2.6.2.1-.3-.2-.7-.3-1-.5-.6-.3-1.1-.7-1.6-1.1,1.5,1.1-.6-.6-1-1-.8-.8-3-4.4-3.8-6.2-2.4-5.8-3.4-13.1-3.8-19.4-.4-6.9-.3-13.9.1-20.8.2-2.7.4-5.3.7-8,0-.7.2-1.5.3-2.2,0-1-.3,2.4-.1,1,.6-4-1-8-5.2-9.2-3.5-1-8.6,1.2-9.2,5.2h0Z"/>
  </g>
  <g>
    <path class="cls-7" d="M121.2,545.5h0c8.3,0,15-6.7,15-15V245.5c0-8.3-6.7-15-15-15h0c-8.3,0-15,6.7-15,15v285c0,8.3,6.7,15,15,15Z"/>
    <path class="cls-20" d="M193.4,296.5c.3,2.8.3,5.6.3,8.4,0,2.9-.2,5.9-.5,8.8,0,.8-.2,1.7-.3,2.5-.2,2.2.7-4.4.1-1.1-.3,1.9-.6,3.8-1.1,5.7-.9,3.9-2.2,7.6-3.5,11.4-.7,2.2,1.8-3.7.2-.5-.4.9-.9,1.8-1.3,2.7-1,1.9-2.2,3.7-3.3,5.5-1.9,2.9,1.8-2,.3-.3-.7.8-1.3,1.6-2.1,2.3-.7.8-1.5,1.5-2.2,2.2-.3.3-.7.6-1.1.9-1.9,1.9,3.1-2,.8-.6-1.8,1.1-3.4,2.3-5.3,3.3-.6.3-1.1.5-1.7.8-1.9,1,1.4-1,1.4-.6s-3.3,1.2-3.8,1.3c-1.4.4-2.7.7-4.1,1-.6.1-1.2.2-1.7.3-3,.7,3.3-.1.4,0-3.4.1-6.6.4-10,.2-1.8,0-3.7-.3-5.5-.5-3.7-.4,2.2.6,0,0-1.2-.3-2.4-.4-3.6-.6-4.7-.9-9.2-2.1-13.8-3.5-7.5-2.3-16.7,2.7-18.4,10.5-1.8,8.1,2.4,16,10.5,18.5,26.7,8.1,59.8,9.9,80.3-12.7,13.3-14.7,18.5-34.5,19.4-53.9.2-3.9.2-7.9-.2-11.8-.8-7.8-6.3-15.4-15-15-7.5.4-15.8,6.7-15,15h0Z"/>
    <path class="cls-20" d="M36.1,330.3c-2.6,17.8-3.7,36-2.5,53.9,1.7,26.8,8.6,61.5,38.1,70.6,19.6,6.1,40.8-3.5,57.2-13.8,6.9-4.3,9.6-13.4,5.4-20.5-4-6.9-13.6-9.7-20.5-5.4-4,2.5-8.1,4.8-12.3,6.9-.9.4-1.9.8-2.7,1.3-1.5.8,1.4-.6,1.4-.6-.6.2-1.2.5-1.7.7-1.8.7-3.6,1.3-5.4,1.8-1.5.4-3.1.8-4.7,1.1-.7.1-3.4.5-.6.1,2.9-.4-.1,0-.8,0-1.3,0-2.7,0-4,0-.5,0-1.4-.3-1.9-.1,1.2-.4,4,.8,1.3.1-1.2-.3-2.4-.7-3.7-1-2.5-.7,1.1,0,1.5.6-.2-.4-1.4-.7-1.8-.9-.9-.6-1.9-1.3-2.8-1.8-.7-.3,3,2.7,1.3,1-.4-.5-1-.9-1.4-1.3-.8-.8-1.5-1.7-2.3-2.5-1.5-1.6,2.1,3.1.9,1.2-.4-.6-.8-1.1-1.2-1.7-1.5-2.3-2.5-4.7-3.7-7-.4-.8,1.4,3.8.5,1.2-.2-.6-.5-1.2-.7-1.8-.5-1.4-.9-2.7-1.3-4.1-.8-2.7-1.5-5.5-2-8.3-.3-1.5-.6-3-.8-4.5-.1-.7-.2-1.4-.3-2.1-.4-2.3.5,3.9.1.8-.3-3-.6-5.9-.8-8.9-.8-11-.6-22.1.2-33.1.3-4.2.7-8.5,1.1-12.7.1-1.2.3-2.5.4-3.7,0-.9-.7,5.2-.3,2.5,1.1-7.7-1.9-16.5-10.5-18.5-7.2-1.6-17.3,2.2-18.5,10.5h0Z"/>
  </g>
  <g>
    <path class="cls-7" d="M1694,879h0c-8.4,0-15.3-6.8-15.3-15.3v-290.3c0-8.4,6.8-15.3,15.3-15.3h0c8.4,0,15.3,6.8,15.3,15.3v290.3c0,8.4-6.8,15.3-15.3,15.3Z"/>
    <path class="cls-20" d="M1597.7,625.3c-3,30.1,8.9,66.9,40.9,75.7,16.6,4.6,34.5,1.5,50.6-3.4,9.2-2.8,5.3-17.3-4-14.5-12.5,3.8-26.9,6.7-39.3,4.2-9.1-1.9-15.5-5.5-21.4-12.5-1.3-1.5-.2-.2-1.1-1.4-.6-.8-1.2-1.7-1.7-2.5-1.2-1.9-2.2-3.9-3.2-5.9-.2-.4-.4-.8-.5-1.2.1.3.5,1.3,0,0-.4-.9-.7-1.8-1-2.8-.7-1.9-1.3-3.9-1.8-5.9-.5-1.8-.9-3.6-1.2-5.5-.2-.9-.3-1.8-.5-2.7-.2-1.3-.3-2.5-.2-1.5-.4-3.2-.6-6.3-.7-9.5-.1-3.5-.1-7.1.2-10.7.4-4-3.7-7.5-7.5-7.5-4.4,0-7.1,3.5-7.5,7.5h0Z"/>
    <path class="cls-20" d="M1758.8,665.8c.2,1.4,0,.3-.1-.8.1,1,.3,2,.4,3,.4,3.4.7,6.9,1,10.3.9,10.9,1.2,21.9.7,32.8-.6,12.2-1.6,22.1-5.8,34.1-1.1,3.1-1,3-2.8,6.4-.6,1.1-1.2,2.1-1.8,3.2-.3.5-.7,1-1,1.5-1,1.5,0,0-.6.8-.7.9-1.5,1.7-2.3,2.5-.6.6-2.6,2.3-2.2,2,.8-.6-.8.5-1.1.7-.5.3-.9.6-1.4.9-.5.3-1,.5-1.5.8-1.1.6,1.1-.3-.6.2-1.4.5-2.8.9-4.2,1.2-1.4.3-.7.1-.7.1-.7,0-1.5.1-2.2.2-4.2.1-5.3,0-9-1-9.3-2.2-17.7-6.7-25.8-11.8-8.2-5.1-15.7,7.8-7.6,13,14.1,8.8,31,17,48.1,14.2,12.2-2,21.8-10.9,27.2-21.7,11.4-22.6,11.4-50.6,9.8-75.2-.4-7.1-1.1-14.3-2.2-21.3-.6-4-5.7-6.2-9.2-5.2-4.3,1.2-5.8,5.2-5.2,9.2h0Z"/>
  </g>
  <g>
    <path class="cls-7" d="M1881.7,470.6h0c6.2,0,11.2-5,11.2-11.2v-213.3c0-6.2-5-11.2-11.2-11.2h0c-6.2,0-11.2,5-11.2,11.2v213.3c0,6.2,5,11.2,11.2,11.2Z"/>
    <path class="cls-20" d="M1939.4,284.2c.2,2,.2,4.1.2,6.1,0,2.2-.1,4.3-.3,6.5,0,.5-.1,1.1-.2,1.6-.2,1.8.2-.8,0,.6s-.5,2.8-.8,4.2c-.6,2.7-1.4,5.4-2.3,8-.4,1.2.3-.6-.4.9-.3.6-.6,1.2-.9,1.8-.7,1.4-1.5,2.7-2.4,4-2.5,3.9-7.5,7.6-12.7,9.1-9.7,2.9-20.9.8-30.9-2.3-9.3-2.8-13.2,11.7-4,14.5,18.7,5.6,41.7,7.3,56.2-8.3,9.4-10.1,13-24.3,13.7-37.8.1-3,.2-6-.1-9-.4-4-3.2-7.5-7.5-7.5-3.7,0-7.9,3.5-7.5,7.5h0Z"/>
    <path class="cls-20" d="M1821.5,310.5c-1.9,13.1-2.6,26.7-1.7,39.9,1.2,18.1,5.7,42.5,25.8,48.7,13.7,4.2,28.5-2.8,39.9-9.9,8.2-5.1.7-18.1-7.6-13-5.2,3.3-10.6,6.3-16.5,8-1.2.3-2.3.6-3.5.8-1.7.4,0,.1-2,.2-1,0-2,0-3,0-.5,0-1.1,0-1.6-.1,1.3.2.3,0-.4-.1-.8-.2-1.5-.4-2.2-.6-1.8-.6,1,.5,0,0-.4-.2-.8-.4-1.2-.6-.6-.4-1.3-.8-1.9-1.2,1.5,1.1-.8-.8-1.2-1.2-.6-.6-1.2-1.2-1.7-1.9,1.1,1.4-.4-.7-.7-1.1-1-1.6-1.9-3.4-2.7-5.2.7,1.5-.5-1.5-.6-1.8-.3-.8-.6-1.7-.8-2.5-.6-2.2-1.2-4.4-1.6-6.7-.2-1.1-.4-2.3-.6-3.5-.3-1.7,0-.5-.2-1.5-.3-2.4-.5-4.7-.7-7.1-.5-8.1-.4-16.3.2-24.4.2-3.1.5-6.2.8-9.3,0-.9.2-1.8.3-2.7,0-.3-.3,2.4-.1.8.6-4-1-8-5.2-9.2-3.5-1-8.6,1.3-9.2,5.3h0Z"/>
  </g>
  <g>
    <path class="cls-7" d="M1825,985.4h0c6.4,0,11.6-5.2,11.6-11.6v-220.1c0-6.4-5.2-11.6-11.6-11.6h0c-6.4,0-11.6,5.2-11.6,11.6v220.1c0,6.4,5.2,11.6,11.6,11.6Z"/>
    <path class="cls-20" d="M1884.8,793.2c.2,2.1.2,4.2.2,6.2,0,2.2-.1,4.5-.3,6.8,0,.6-.1,1.3-.2,1.9-.2,1.5.2-1.2,0,.3s-.5,3-.8,4.5c-.6,2.8-1.4,5.6-2.4,8.3-.4,1.2.3-.6-.4,1-.3.7-.7,1.4-1,2.1-.7,1.4-1.5,2.7-2.4,4-.9,1.3-.6.9-2,2.5-.6.6-1.1,1.2-1.7,1.7-.3.3-2.1,1.8-1.2,1.1-2.9,2.2-5.3,3.3-8.1,4.1-10.2,3.1-21.7.8-32.1-2.3-9.3-2.8-13.2,11.7-4,14.5,19.3,5.8,43.1,7.6,58-8.7,9.5-10.4,13.1-24.8,13.8-38.5.2-3.1.2-6.3-.1-9.4-.4-4-3.2-7.5-7.5-7.5-3.7,0-7.9,3.4-7.5,7.5h0Z"/>
    <path class="cls-20" d="M1763.1,820.3c-2,13.6-2.7,27.5-1.8,41.2,1.2,18.4,5.8,43.6,26.3,50,14.2,4.4,29.3-2.8,41.1-10.2,8.2-5.1.7-18.1-7.6-13-5.5,3.4-11.2,6.6-17.4,8.3-1,.3-2.1.5-3.1.7-2,.4-.4.2-2.3.3-1,0-2,0-3,0-.5,0-1.1,0-1.6-.1,1.9.2-.1,0-.4-.1-.9-.2-1.9-.5-2.8-.8,1.5.5-.2,0-.8-.4-.8-.5-1.6-1-2.3-1.5,1.5,1.1-.6-.6-1-1-.7-.7-1.3-1.4-1.9-2.1,1.2,1.4-.6-1-.8-1.4-.4-.7-.8-1.4-1.2-2.1-.3-.5-1.7-3.7-1.1-2.2-1.6-3.9-2.7-8.1-3.5-12.3-.9-4.6-1.2-7-1.5-12.5-.5-8.4-.4-16.8.2-25.1.2-3.3.5-6.5.9-9.8.1-.9.2-1.9.3-2.8,0-.6-.3,2.5-.1.9.6-4-1-8-5.2-9.2-3.5-1-8.6,1.2-9.2,5.2h0Z"/>
  </g>
  <g>
    <g>
      <rect class="cls-24" x="531" y="805.5" width="122.3" height="82.2" transform="translate(-367.4 463.6) rotate(-33.3)"/>
      <rect class="cls-24" x="508.5" y="802.5" width="76.9" height="26.2" transform="translate(-419 992.3) rotate(-66.5)"/>
      <rect class="cls-24" x="564.7" y="888.3" width="77.1" height="26.3"/>
    </g>
    <g>
      <rect class="cls-28" x="441.7" y="1009.8" width="75.5" height="52.4" transform="translate(-660.1 1104.9) rotate(-68.6)"/>
      <polygon class="cls-28" points="511.2 1060.9 527.5 1057.7 517 1010.9 500.7 1014.1 511.2 1060.9"/>
      <polygon class="cls-28" points="438.2 1032.4 428.4 1019 468 991.7 477.9 1005.1 438.2 1032.4"/>
    </g>
    <g>
      <path class="cls-12" d="M431.5,1031.8l.9-48.1c0-4.9,4.2-8.8,9.1-8.8l13.8.3c4.9,0,8.8,4.2,8.8,9.1l-.9,48.1c0,4.9-4.2,8.8-9.1,8.8l-13.8-.3c-4.9,0-8.8-4.2-8.8-9.1Z"/>
      <rect class="cls-12" x="330" y="1012.6" width="115" height="32.3" transform="translate(-96.3 41.6) rotate(-5.5)"/>
      <rect class="cls-12" x="372.1" y="928.8" width="32.3" height="115" transform="translate(-630.3 1279.7) rotate(-84.6)"/>
    </g>
    <g>
      <path class="cls-10" d="M532.8,869.2l-36-31.9c-3.7-3.3-4-8.9-.8-12.6l9.1-10.3c3.3-3.7,8.9-4,12.6-.8l36,31.9c3.7,3.3,4,8.9.8,12.6l-9.2,10.3c-3.3,3.7-8.9,4-12.6.8Z"/>
      <rect class="cls-10" x="444.4" y="884.6" width="115" height="32.3" transform="translate(-523.9 796.3) rotate(-55.1)"/>
      <rect class="cls-10" x="412.6" y="856.5" width="115" height="32.3" transform="translate(-475.1 574.2) rotate(-44.2)"/>
    </g>
    <g>
      <rect class="cls-26" x="411.2" y="888.3" width="82.2" height="122.3" transform="translate(-362.7 284.8) rotate(-25.3)"/>
      <rect class="cls-26" x="476" y="870.5" width="26.2" height="76.9" transform="translate(-541.5 852.4) rotate(-58.6)"/>
      <rect class="cls-26" x="357.8" y="939.7" width="77.1" height="26.3" transform="translate(-602.1 1214.2) rotate(-82.1)"/>
    </g>
    <g>
      <rect class="cls-25" x="508.6" y="897.6" width="86.9" height="58.4" transform="translate(-281.9 242.5) rotate(-19.8)"/>
      <rect class="cls-25" x="550.9" y="946.4" width="54.6" height="18.6" transform="translate(-533.2 844) rotate(-53.1)"/>
      <rect class="cls-25" x="544.1" y="859.6" width="18.7" height="54.8" transform="translate(-437.7 1219.8) rotate(-76.6)"/>
    </g>
    <g>
      <path class="cls-29" d="M562.4,951.9l-17.5,44.8c-1.8,4.6-7,6.8-11.5,5l-12.9-5c-4.6-1.8-6.8-7-5-11.5l17.5-44.8c1.8-4.6,7-6.8,11.5-5l12.9,5c4.6,1.8,6.8,7,5,11.5Z"/>
      <rect class="cls-29" x="586.5" y="912.5" width="32.3" height="115" transform="translate(-489.3 1304.4) rotate(-75.2)"/>
      <rect class="cls-29" x="571.1" y="952.1" width="32.3" height="115" transform="translate(-577.2 1100.7) rotate(-64.3)"/>
    </g>
    <g>
      <rect class="cls-17" x="480.7" y="934.5" width="52.4" height="75.5" transform="translate(-189.6 125.4) rotate(-11.9)"/>
      <polygon class="cls-17" points="466.7 969 454.8 980.6 489.3 1013.9 501.1 1002.3 466.7 969"/>
      <polygon class="cls-17" points="543.3 952.8 558.9 958.6 540.7 1003.1 525.1 997.3 543.3 952.8"/>
    </g>
  </g>
  <g>
    <g>
      <rect class="cls-18" x="889.2" y="623.5" width="66.7" height="99.2" transform="translate(-125.9 220.5) rotate(-12.8)"/>
      <rect class="cls-18" x="875.6" y="667.4" width="21.3" height="62.4" transform="translate(-231.9 851.1) rotate(-46)"/>
      <rect class="cls-18" x="936.2" y="669.5" width="62.6" height="21.3" transform="translate(-8.1 1348.6) rotate(-69.5)"/>
    </g>
    <g>
      <rect class="cls-28" x="977.6" y="725.2" width="42.5" height="61.2" transform="translate(-230.7 995) rotate(-48.1)"/>
      <polygon class="cls-28" points="1026.7 738.7 1028.9 725.4 990.4 720.1 988.2 733.4 1026.7 738.7"/>
      <polygon class="cls-28" points="984.3 786 971.3 789.7 961.9 751.8 974.8 748.2 984.3 786"/>
    </g>
    <g>
      <path class="cls-12" d="M1019.4,851.5l-33.2-13.1c-4.6-1.8-6.8-7-5-11.6l2.9-7.3c1.8-4.6,7-6.8,11.6-5l33.2,13.1c4.6,1.8,6.8,7,5,11.6l-2.9,7.3c-1.8,4.6-7,6.8-11.6,5Z"/>
      <rect class="cls-12" x="959.4" y="871.7" width="93.3" height="26.2" transform="translate(-109.4 1626.9) rotate(-75)"/>
      <rect class="cls-12" x="927.4" y="859" width="93.3" height="26.2" transform="translate(-236.1 1366.9) rotate(-64.1)"/>
    </g>
    <g>
      <path class="cls-10" d="M924.7,729.7l-31.5,16.7c-4.3,2.3-9.8.7-12.1-3.7l-3.7-6.9c-2.3-4.3-.7-9.8,3.7-12.1l31.5-16.7c4.3-2.3,9.8-.7,12.1,3.7l3.7,6.9c2.3,4.3.7,9.7-3.7,12Z"/>
      <rect class="cls-10" x="928.3" y="714.7" width="26.2" height="93.3" transform="translate(-265.7 668.1) rotate(-34.5)"/>
      <rect class="cls-10" x="897.8" y="730.8" width="26.2" height="93.3" transform="translate(-235.5 430.9) rotate(-23.7)"/>
    </g>
    <g>
      <rect class="cls-30" x="914.7" y="779.5" width="99.2" height="66.7" transform="translate(-64.9 84) rotate(-4.8)"/>
      <rect class="cls-30" x="912.8" y="762.7" width="62.4" height="21.3" transform="translate(-276 746.6) rotate(-38.1)"/>
      <rect class="cls-30" x="940.3" y="825.1" width="21.4" height="62.6" transform="translate(-254.8 1285.1) rotate(-61.6)"/>
    </g>
    <g>
      <rect class="cls-25" x="940.1" y="707" width="70.5" height="47.4" transform="translate(233.4 1697.5) rotate(-89.3)"/>
      <rect class="cls-25" x="997.2" y="696.8" width="15.1" height="44.3" transform="translate(-229.1 654.2) rotate(-32.6)"/>
      <rect class="cls-25" x="923.3" y="710.8" width="44.5" height="15.2" transform="translate(-178.1 1102.4) rotate(-56.1)"/>
    </g>
    <g>
      <path class="cls-29" d="M995.1,735.8l26.5,23.8c3.7,3.3,4,8.9.7,12.6l-5.2,5.8c-3.3,3.7-8.9,4-12.6.7l-26.5-23.8c-3.7-3.3-4-8.9-.7-12.6l5.2-5.8c3.3-3.7,8.9-4,12.6-.7Z"/>
      <rect class="cls-29" x="972.5" y="696" width="93.3" height="26.2" transform="translate(-148.8 1130.4) rotate(-54.7)"/>
      <rect class="cls-29" x="998.1" y="719.1" width="93.3" height="26.2" transform="translate(-216.2 926.4) rotate(-43.8)"/>
    </g>
    <g>
      <rect class="cls-17" x="975.8" y="747.2" width="42.5" height="61.2" transform="translate(78.8 1647.2) rotate(-81.4)"/>
      <polygon class="cls-17" points="983.2 807.5 988.7 819.8 1023.8 803.1 1018.3 790.8 983.2 807.5"/>
      <polygon class="cls-17" points="992.7 744.7 1001.5 734.5 1030.2 761 1021.3 771.1 992.7 744.7"/>
    </g>
  </g>
  <g>
    <g>
      <rect class="cls-24" x="952.7" y="1051.1" width="83.6" height="124.3" transform="translate(-473.9 1382.1) rotate(-58.6)"/>
      <rect class="cls-24" x="964.1" y="1045" width="78.2" height="26.7" transform="translate(-33.6 32.9) rotate(-1.8)"/>
      <rect class="cls-24" x="935.4" y="1108.2" width="26.8" height="78.4" transform="translate(-399.9 516.8) rotate(-25.4)"/>
    </g>
    <g>
      <rect class="cls-28" x="815.1" y="1083" width="76.8" height="53.3" transform="translate(-74.5 61.5) rotate(-4)"/>
      <polygon class="cls-28" points="844.5 1149.7 854.5 1163.2 892.9 1133.2 882.9 1119.7 844.5 1149.7"/>
      <polygon class="cls-28" points="838.9 1070.2 847 1055.3 889.3 1079.9 881.2 1094.8 838.9 1070.2"/>
    </g>
    <g>
      <path class="cls-12" d="M747.4,1045.6l44.9-20.2c4.5-2,9.8,0,11.8,4.5l5.9,13.1c2,4.5,0,9.8-4.5,11.8l-44.9,20.2c-4.5,2-9.8,0-11.8-4.5l-5.9-13.1c-2-4.5,0-9.8,4.5-11.8Z"/>
      <rect class="cls-12" x="714.7" y="945.1" width="32.9" height="117" transform="translate(-410.8 515.9) rotate(-30.8)"/>
      <rect class="cls-12" x="754.1" y="927.5" width="32.9" height="117" transform="translate(-289.7 321.4) rotate(-19.9)"/>
    </g>
    <g>
      <path class="cls-10" d="M941,1068l13.7-47.3c1.4-4.7,6.3-7.5,11-6.1l13.8,4c4.7,1.4,7.5,6.3,6.1,11l-13.7,47.3c-1.4,4.7-6.3,7.4-11,6.1l-13.8-4c-4.7-1.4-7.5-6.3-6.1-11Z"/>
      <rect class="cls-10" x="882.2" y="994.7" width="32.9" height="117" transform="translate(-289.9 1763.2) rotate(-80.4)"/>
      <rect class="cls-10" x="894.2" y="953.2" width="32.9" height="117" transform="translate(-355.9 1510.2) rotate(-69.5)"/>
    </g>
    <g>
      <rect class="cls-26" x="770.1" y="987" width="124.3" height="83.6" transform="translate(-491 1020.2) rotate(-50.7)"/>
      <rect class="cls-26" x="846.4" y="1031.6" width="78.2" height="26.7" transform="translate(-247.6 1814.5) rotate(-83.9)"/>
      <rect class="cls-26" x="765.6" y="965.5" width="78.4" height="26.8" transform="translate(-256 285.6) rotate(-17.4)"/>
    </g>
    <g>
      <rect class="cls-25" x="866.8" y="1066.4" width="59.4" height="88.4" transform="translate(-523.1 963.4) rotate(-45.2)"/>
      <rect class="cls-25" x="871.9" y="1119.3" width="19" height="55.6" transform="translate(-419.3 1780.2) rotate(-78.4)"/>
      <rect class="cls-25" x="924.2" y="1066.6" width="19" height="55.8" transform="translate(-206.1 216.6) rotate(-11.9)"/>
    </g>
    <g>
      <path class="cls-29" d="M876.9,1123.7l-49.1,3.4c-4.9.3-9.2-3.4-9.5-8.3l-1-14.3c-.3-4.9,3.4-9.2,8.3-9.5l49.1-3.4c4.9-.3,9.2,3.4,9.5,8.3l1,14.3c.3,4.9-3.4,9.2-8.3,9.5Z"/>
      <rect class="cls-29" x="861.1" y="1110.2" width="32.9" height="117" transform="translate(-198.2 179.5) rotate(-10.5)"/>
      <rect class="cls-29" x="776" y="1155.2" width="117" height="32.9" transform="translate(-342.7 1998.2) rotate(-89.6)"/>
    </g>
    <g>
      <rect class="cls-17" x="796.7" y="1062.2" width="76.8" height="53.3" transform="translate(-488.6 727.1) rotate(-37.2)"/>
      <polygon class="cls-17" points="820.5 1050.5 804.8 1044.6 789.2 1090.8 804.9 1096.6 820.5 1050.5"/>
      <polygon class="cls-17" points="868.8 1113.8 870.2 1130.7 821.4 1133.4 820 1116.5 868.8 1113.8"/>
    </g>
  </g>
  <g>
    <g>
      <rect class="cls-21" x="634.1" y="770.3" width="91.6" height="136.3" transform="translate(-359.8 1128.5) rotate(-66.5)"/>
      <rect class="cls-21" x="635.9" y="884.7" width="85.7" height="29.2" transform="translate(-143 128.5) rotate(-9.8)"/>
      <rect class="cls-21" x="709.6" y="751.5" width="29.3" height="86" transform="translate(-317.2 528) rotate(-33.3)"/>
    </g>
    <g>
      <rect class="cls-28" x="791.5" y="791.9" width="84.1" height="58.4" transform="translate(-151.4 189.5) rotate(-11.9)"/>
      <polygon class="cls-28" points="837.1 776.2 824.2 763 787.1 801.4 800 814.6 837.1 776.2"/>
      <polygon class="cls-28" points="855.2 861.6 848.8 879 799.1 858.7 805.6 841.4 855.2 861.6"/>
    </g>
    <g>
      <path class="cls-12" d="M959,874l-47.1,29.7c-4.2,2.6-9.7,1.4-12.3-2.8l-9.3-14.8c-2.6-4.2-1.4-9.7,2.8-12.3l47.1-29.7c4.2-2.6,9.7-1.4,12.3,2.8l9.3,14.8c2.6,4.2,1.4,9.7-2.8,12.3Z"/>
      <rect class="cls-12" x="964.3" y="853.5" width="36" height="128.2" transform="translate(-358.1 816.6) rotate(-38.7)"/>
      <rect class="cls-12" x="924.2" y="878.7" width="36" height="128.2" transform="translate(-331.3 549.4) rotate(-27.9)"/>
    </g>
    <g>
      <path class="cls-10" d="M744.9,878.6l-8,55.1c-.7,4.9-5.2,8.2-10.1,7.5l-17.2-2.5c-4.9-.7-8.2-5.2-7.5-10.1l8-55.1c.7-4.9,5.2-8.2,10.1-7.5l17.2,2.5c4.9.7,8.2,5.2,7.5,10.1Z"/>
      <rect class="cls-10" x="775.1" y="825.1" width="36" height="128.2" transform="translate(-118.9 1655.9) rotate(-88.3)"/>
      <rect class="cls-10" x="768.3" y="871.8" width="36" height="128.2" transform="translate(-298.2 1499.9) rotate(-77.4)"/>
    </g>
    <g>
      <rect class="cls-19" x="800.6" y="859.8" width="136.3" height="91.6" transform="translate(-356.8 1175.3) rotate(-58.6)"/>
      <rect class="cls-19" x="793.9" y="853.1" width="29.2" height="85.7" transform="translate(-28.4 26.5) rotate(-1.8)"/>
      <rect class="cls-19" x="863.1" y="940.9" width="86" height="29.3" transform="translate(-321.9 480) rotate(-25.4)"/>
    </g>
    <g>
      <rect class="cls-25" x="754.1" y="778" width="65.1" height="96.9" transform="translate(-346.5 959.7) rotate(-53.1)"/>
      <rect class="cls-25" x="787.2" y="754.1" width="20.8" height="60.9" transform="translate(-36 1530.7) rotate(-86.4)"/>
      <rect class="cls-25" x="738.3" y="819" width="20.9" height="61.1" transform="translate(-244.2 305) rotate(-19.9)"/>
    </g>
    <g>
      <path class="cls-29" d="M805.1,809.5l54.5-11.5c4.8-1,9.5,2.1,10.6,6.9l3.6,17c1,4.8-2.1,9.5-6.9,10.6l-54.5,11.5c-4.8,1-9.5-2.1-10.6-6.9l-3.6-17c-1-4.8,2.1-9.5,6.9-10.6Z"/>
      <rect class="cls-29" x="780.4" y="696.6" width="36" height="128.2" transform="translate(-199.7 291.7) rotate(-18.4)"/>
      <rect class="cls-29" x="826.7" y="686.8" width="36" height="128.2" transform="translate(-91.4 117.6) rotate(-7.6)"/>
    </g>
    <g>
      <rect class="cls-17" x="814.5" y="811.6" width="84.1" height="58.4" transform="translate(-343.6 855.5) rotate(-45.2)"/>
      <polygon class="cls-17" points="878.2 880.3 896.2 884.2 906.2 831.8 888.1 827.8 878.2 880.3"/>
      <polygon class="cls-17" points="816.2 818.8 812.1 800.7 864.7 790.4 868.8 808.5 816.2 818.8"/>
    </g>
  </g>
  <g>
    <g>
      <rect class="cls-11" x="1110.8" y="770.3" width="116.2" height="78.1" transform="translate(-252.4 773.9) rotate(-33.3)"/>
      <rect class="cls-11" x="1089.4" y="767.4" width="73" height="24.9" transform="translate(-38 1501.8) rotate(-66.5)"/>
      <rect class="cls-11" x="1142.8" y="849" width="73.3" height="25"/>
    </g>
    <g>
      <rect class="cls-28" x="1073.5" y="902" width="71.7" height="49.8" transform="translate(-158 1622.2) rotate(-68.6)"/>
      <polygon class="cls-28" points="1139.6 950.5 1155.1 947.5 1145.1 903 1129.6 906.1 1139.6 950.5"/>
      <polygon class="cls-28" points="1070.3 923.4 1061 910.7 1098.6 884.8 1107.9 897.5 1070.3 923.4"/>
    </g>
    <g>
      <path class="cls-12" d="M1012.9,990.3l.8-44.8c0-4.9,4.2-8.8,9.1-8.8l12.2.2c4.9,0,8.8,4.2,8.8,9.1l-.8,44.8c0,4.9-4.2,8.8-9.1,8.8l-12.2-.2c-4.9,0-8.8-4.2-8.8-9.1Z"/>
      <rect class="cls-12" x="916.4" y="972.4" width="109.3" height="30.7" transform="translate(-89.7 97) rotate(-5.5)"/>
      <rect class="cls-12" x="956.4" y="892.8" width="30.7" height="109.3" transform="translate(-63.2 1825.5) rotate(-84.6)"/>
    </g>
    <g>
      <path class="cls-10" d="M1108.8,835.9l-33.6-29.7c-3.7-3.3-4-8.9-.8-12.6l8.1-9.2c3.3-3.7,8.9-4,12.6-.8l33.6,29.7c3.7,3.3,4,8.9.8,12.6l-8.1,9.2c-3.3,3.7-8.9,4-12.6.8Z"/>
      <rect class="cls-10" x="1025.2" y="850.8" width="109.3" height="30.7" transform="translate(-248.7 1255.2) rotate(-55.1)"/>
      <rect class="cls-10" x="994.9" y="824.1" width="109.3" height="30.7" transform="translate(-288.2 968.5) rotate(-44.2)"/>
    </g>
    <g>
      <rect class="cls-14" x="993.6" y="854.4" width="78.1" height="116.2" transform="translate(-291.1 529.5) rotate(-25.3)"/>
      <rect class="cls-14" x="1055.2" y="837.5" width="24.9" height="73" transform="translate(-234.8 1329.3) rotate(-58.6)"/>
      <rect class="cls-14" x="942.8" y="903.2" width="73.3" height="25" transform="translate(-62.5 1759.7) rotate(-82.1)"/>
    </g>
    <g>
      <rect class="cls-25" x="1086.2" y="863.2" width="82.6" height="55.5" transform="translate(-235.5 435.7) rotate(-19.8)"/>
      <rect class="cls-25" x="1126.3" y="909.6" width="51.9" height="17.7" transform="translate(-274.1 1288.1) rotate(-53.1)"/>
      <rect class="cls-25" x="1119.9" y="827.1" width="17.8" height="52.1" transform="translate(37.2 1753.4) rotate(-76.6)"/>
    </g>
    <g>
      <path class="cls-29" d="M1130.4,913.3l-16.3,41.7c-1.8,4.6-7,6.8-11.6,5l-11.4-4.5c-4.6-1.8-6.8-7-5.1-11.5l16.3-41.7c1.8-4.6,7-6.8,11.6-5l11.4,4.5c4.6,1.8,6.8,7,5.1,11.5Z"/>
      <rect class="cls-29" x="1153.5" y="875.4" width="30.7" height="109.3" transform="translate(-29.4 1822) rotate(-75.2)"/>
      <rect class="cls-29" x="1138.8" y="913" width="30.7" height="109.3" transform="translate(-218.4 1587.7) rotate(-64.3)"/>
    </g>
    <g>
      <rect class="cls-17" x="1059.6" y="898.3" width="49.8" height="71.7" transform="translate(-169.3 243.7) rotate(-11.9)"/>
      <polygon class="cls-17" points="1046.3 931.1 1035 942 1067.8 973.7 1079 962.7 1046.3 931.1"/>
      <polygon class="cls-17" points="1119.1 915.6 1133.9 921.2 1116.6 963.5 1101.8 957.9 1119.1 915.6"/>
    </g>
  </g>
  <g class="cls-33">
    <g>
      <rect class="cls-13" x="1026.5" y="720.7" width="81.5" height="54.8" transform="translate(-233.3 832.4) rotate(-38.7)"/>
      <rect class="cls-13" x="1073.5" y="757" width="51.3" height="17.5" transform="translate(31 1574.2) rotate(-72)"/>
      <rect class="cls-13" x="1030.6" y="703.5" width="51.4" height="17.5" transform="translate(-63.4 104.5) rotate(-5.5)"/>
    </g>
    <g>
      <rect class="cls-28" x="1104.9" y="597.6" width="50.3" height="34.9" transform="translate(228.8 1533.3) rotate(-74.1)"/>
      <polygon class="cls-28" points="1107.3 600.7 1096.7 603.8 1106.7 634.2 1117.2 631 1107.3 600.7"/>
      <polygon class="cls-28" points="1157.5 615 1164.9 623.2 1140.3 643.8 1133 635.6 1157.5 615"/>
    </g>
    <g>
      <path class="cls-12" d="M1162.3,617.9l2,26c.4,4.9-3.3,9.2-8.2,9.6l-3.2.2c-4.9.4-9.2-3.3-9.6-8.2l-2-26c-.4-4.9,3.3-9.2,8.2-9.6l3.2-.2c4.9-.4,9.2,3.3,9.6,8.2Z"/>
      <rect class="cls-12" x="1153.1" y="603.4" width="76.7" height="21.6" transform="translate(-94.9 237.2) rotate(-10.9)"/>
      <rect class="cls-12" x="1155.3" y="631.6" width="76.7" height="21.6"/>
    </g>
    <g>
      <path class="cls-10" d="M1107.5,731l21.1,15.4c4,2.9,4.9,8.5,2,12.5l-1.9,2.6c-2.9,4-8.5,4.9-12.5,2l-21.1-15.4c-4-2.9-4.9-8.5-2-12.5l1.9-2.6c2.9-4,8.5-4.9,12.5-2Z"/>
      <rect class="cls-10" x="1085.3" y="695.6" width="76.7" height="21.6" transform="translate(-44.2 1336.9) rotate(-60.5)"/>
      <rect class="cls-10" x="1108.2" y="712.2" width="76.7" height="21.6" transform="translate(-146.9 1128.3) rotate(-49.6)"/>
    </g>
    <g>
      <rect class="cls-23" x="1126.1" y="630.2" width="54.8" height="81.5" transform="translate(-180.9 685.2) rotate(-30.8)"/>
      <rect class="cls-23" x="1122.9" y="674.5" width="17.5" height="51.2" transform="translate(6.8 1411.1) rotate(-64)"/>
      <rect class="cls-23" x="1164.7" y="656.2" width="51.4" height="17.5" transform="translate(475.2 1825.9) rotate(-87.6)"/>
    </g>
    <g>
      <rect class="cls-25" x="1059.8" y="672.8" width="57.9" height="38.9" transform="translate(-191.4 531.9) rotate(-25.3)"/>
      <rect class="cls-25" x="1051.3" y="668.5" width="36.4" height="12.4" transform="translate(-64 1235.2) rotate(-58.6)"/>
      <rect class="cls-25" x="1084.2" y="700.5" width="12.5" height="36.6" transform="translate(228.1 1699.5) rotate(-82.1)"/>
    </g>
    <g>
      <path class="cls-29" d="M1081.1,673.4l7.2-25.1c1.3-4.7,6.3-7.5,11-6.1l3.1.9c4.7,1.3,7.5,6.3,6.1,11l-7.2,25.1c-1.3,4.7-6.3,7.5-11,6.1l-3.1-.9c-4.7-1.3-7.5-6.3-6.1-11Z"/>
      <rect class="cls-29" x="1041.5" y="628.4" width="21.6" height="76.7" transform="translate(223.2 1596.6) rotate(-80.6)"/>
      <rect class="cls-29" x="1049.3" y="601.2" width="21.6" height="76.7" transform="translate(93.2 1412.7) rotate(-69.8)"/>
    </g>
    <g>
      <rect class="cls-17" x="1098.3" y="634.1" width="34.9" height="50.3" transform="translate(-145.9 363.1) rotate(-17.4)"/>
      <polygon class="cls-17" points="1142.7 658.8 1149.8 650.4 1124.8 630.5 1117.7 638.9 1142.7 658.8"/>
      <polygon class="cls-17" points="1092.9 674.5 1082.2 671.6 1091.4 640.9 1102.1 643.8 1092.9 674.5"/>
    </g>
  </g>
  <g>
    <g>
      <rect class="cls-27" x="1255.9" y="1149" width="68.2" height="101.4" transform="translate(-185.2 236.8) rotate(-9.8)"/>
      <rect class="cls-27" x="1317.7" y="1143.5" width="21.8" height="63.8" transform="translate(-444.7 1223.1) rotate(-43)"/>
      <rect class="cls-27" x="1212.6" y="1179.1" width="64" height="21.8" transform="translate(-342.4 1858.2) rotate(-66.5)"/>
    </g>
    <g>
      <rect class="cls-28" x="1161.4" y="1019.9" width="43.5" height="62.6" transform="translate(-396.5 1148.6) rotate(-45.1)"/>
      <polygon class="cls-28" points="1153.8 1067.2 1150.8 1080.7 1189.9 1088.1 1192.8 1074.7 1153.8 1067.2"/>
      <polygon class="cls-28" points="1199.6 1021.1 1213 1018.1 1220.7 1057.2 1207.2 1060.3 1199.6 1021.1"/>
    </g>
    <g>
      <path class="cls-12" d="M1203.6,1016.8l33.5,15.3c4.5,2.1,6.4,7.3,4.4,11.8l-3.5,7.7c-2.1,4.5-7.3,6.4-11.8,4.4l-33.5-15.3c-4.5-2.1-6.4-7.3-4.4-11.8l3.5-7.7c2-4.5,7.3-6.4,11.8-4.4Z"/>
      <rect class="cls-12" x="1171.4" y="970.1" width="95.5" height="26.8" transform="translate(-93.2 1838.7) rotate(-72)"/>
      <rect class="cls-12" x="1203.4" y="984.8" width="95.5" height="26.8" transform="translate(-227.4 1611.1) rotate(-61.1)"/>
    </g>
    <g>
      <path class="cls-10" d="M1293.9,1146.4l33.4-15.6c4.5-2.1,9.8-.2,11.8,4.3l3.6,7.6c2.1,4.5.2,9.8-4.3,11.8l-33.4,15.6c-4.5,2.1-9.8.2-11.8-4.3l-3.6-7.6c-2.1-4.5-.1-9.8,4.3-11.8Z"/>
      <rect class="cls-10" x="1265.3" y="1065.3" width="26.8" height="95.5" transform="translate(-393.5 834.1) rotate(-31.6)"/>
      <rect class="cls-10" x="1297.3" y="1050.5" width="26.8" height="95.5" transform="translate(-303.4 533.7) rotate(-20.7)"/>
    </g>
    <g>
      <rect class="cls-16" x="1207.3" y="1025.1" width="101.5" height="68.2" transform="translate(-33.5 41.1) rotate(-1.8)"/>
      <rect class="cls-16" x="1244.8" y="1089.8" width="63.8" height="21.8" transform="translate(-400.7 934.1) rotate(-35.1)"/>
      <rect class="cls-16" x="1263" y="983.5" width="21.8" height="64" transform="translate(-256.5 1573.8) rotate(-58.6)"/>
    </g>
    <g>
      <rect class="cls-25" x="1206.3" y="1118.3" width="72.1" height="48.5" transform="translate(23.2 2309.9) rotate(-86.4)"/>
      <rect class="cls-25" x="1204.1" y="1130.3" width="15.5" height="45.3" transform="translate(-411.4 749.2) rotate(-29.6)"/>
      <rect class="cls-25" x="1249.5" y="1149.1" width="45.5" height="15.5" transform="translate(-416.7 1480.1) rotate(-53.1)"/>
    </g>
    <g>
      <path class="cls-29" d="M1218.7,1141.2l-26.1-26c-3.5-3.5-3.5-9.1,0-12.6l5.9-6c3.5-3.5,9.1-3.5,12.6,0l26.1,26c3.5,3.5,3.5,9.1,0,12.6l-5.9,6c-3.5,3.5-9.1,3.5-12.6,0Z"/>
      <rect class="cls-29" x="1145" y="1153.5" width="95.5" height="26.8" transform="translate(-462.3 1379.5) rotate(-51.7)"/>
      <rect class="cls-29" x="1119.9" y="1128.7" width="95.5" height="26.8" transform="translate(-462.5 1040.6) rotate(-40.8)"/>
    </g>
    <g>
      <rect class="cls-17" x="1200.9" y="1062" width="43.5" height="62.6" transform="translate(-93.9 2071.5) rotate(-78.4)"/>
      <polygon class="cls-17" points="1238.4 1063.7 1233.5 1050.8 1196.8 1066.1 1201.7 1078.9 1238.4 1063.7"/>
      <polygon class="cls-17" points="1225.4 1127.4 1215.9 1137.3 1188 1108.8 1197.6 1098.8 1225.4 1127.4"/>
    </g>
  </g>
  <g>
    <g>
      <rect class="cls-13" x="975.8" y="1103.7" width="98.9" height="66.5" transform="translate(-485.9 891.7) rotate(-38.7)"/>
      <rect class="cls-13" x="1032.8" y="1147.8" width="62.2" height="21.2" transform="translate(-366.7 1811.9) rotate(-72)"/>
      <rect class="cls-13" x="980.8" y="1082.9" width="62.4" height="21.3" transform="translate(-100.1 102) rotate(-5.5)"/>
    </g>
    <g>
      <rect class="cls-28" x="1070.9" y="954.4" width="61" height="42.4" transform="translate(-138.7 1767.4) rotate(-74.1)"/>
      <polygon class="cls-28" points="1073.8 958.2 1061 962 1073.1 998.8 1085.9 995 1073.8 958.2"/>
      <polygon class="cls-28" points="1134.8 975.5 1143.7 985.5 1113.9 1010.5 1105 1000.5 1134.8 975.5"/>
    </g>
    <g>
      <path class="cls-12" d="M1140.3,977.1l2.7,35.4c.4,4.9-3.3,9.2-8.2,9.6l-7.7.6c-4.9.4-9.2-3.3-9.6-8.2l-2.7-35.4c-.4-4.9,3.3-9.2,8.2-9.6l7.7-.6c4.9-.4,9.2,3.3,9.6,8.2Z"/>
      <rect class="cls-12" x="1129.4" y="961.4" width="93" height="26.1" transform="translate(-163.5 240.8) rotate(-10.9)"/>
      <rect class="cls-12" x="1132.1" y="995.6" width="93" height="26.2"/>
    </g>
    <g>
      <path class="cls-10" d="M1072.6,1115.1l28.7,20.9c4,2.9,4.9,8.5,2,12.5l-4.6,6.3c-2.9,4-8.5,4.9-12.5,2l-28.7-20.9c-4-2.9-4.9-8.5-2-12.5l4.6-6.3c2.9-4,8.5-4.9,12.5-2Z"/>
      <rect class="cls-10" x="1047.1" y="1073.3" width="93" height="26.1" transform="translate(-390.3 1503.8) rotate(-60.5)"/>
      <rect class="cls-10" x="1075" y="1093.4" width="93" height="26.2" transform="translate(-447.9 1244.3) rotate(-49.6)"/>
    </g>
    <g>
      <rect class="cls-23" x="1096.6" y="993.9" width="66.5" height="98.9" transform="translate(-374.9 725.6) rotate(-30.8)"/>
      <rect class="cls-23" x="1092.7" y="1047.7" width="21.2" height="62.2" transform="translate(-349.5 1598.6) rotate(-64)"/>
      <rect class="cls-23" x="1143.5" y="1025.6" width="62.4" height="21.3" transform="translate(89.2 2165.5) rotate(-87.6)"/>
    </g>
    <g>
      <rect class="cls-25" x="1016.2" y="1045.6" width="70.3" height="47.2" transform="translate(-356.2 552.1) rotate(-25.3)"/>
      <rect class="cls-25" x="1005.9" y="1040.4" width="44.2" height="15.1" transform="translate(-402.3 1378.3) rotate(-58.6)"/>
      <rect class="cls-25" x="1045.8" y="1079.2" width="15.1" height="44.3" transform="translate(-182.9 1992.6) rotate(-82.1)"/>
    </g>
    <g>
      <path class="cls-29" d="M1041.5,1048.2l9.7-34.1c1.3-4.7,6.3-7.5,11-6.1l7.5,2.1c4.7,1.3,7.5,6.3,6.1,11l-9.7,34.1c-1.3,4.7-6.3,7.5-11,6.1l-7.5-2.1c-4.7-1.4-7.5-6.3-6.1-11Z"/>
      <rect class="cls-29" x="994.1" y="991.8" width="26.2" height="93" transform="translate(-181.2 1863.1) rotate(-80.6)"/>
      <rect class="cls-29" x="1003.5" y="958.7" width="26.2" height="93" transform="translate(-278.4 1611.1) rotate(-69.8)"/>
    </g>
    <g>
      <rect class="cls-17" x="1062.9" y="998.6" width="42.4" height="61" transform="translate(-257.8 370.5) rotate(-17.4)"/>
      <polygon class="cls-17" points="1116.8 1028.7 1125.4 1018.4 1095.1 994.3 1086.5 1004.5 1116.8 1028.7"/>
      <polygon class="cls-17" points="1056.3 1047.6 1043.3 1044.2 1054.5 1006.9 1067.5 1010.4 1056.3 1047.6"/>
    </g>
  </g>
  <g>
    <g>
      <rect class="cls-27" x="679" y="1100.5" width="68.2" height="101.4" transform="translate(-185.3 138) rotate(-9.8)"/>
      <rect class="cls-27" x="740.8" y="1095.1" width="21.8" height="63.8" transform="translate(-566.9 816.3) rotate(-43)"/>
      <rect class="cls-27" x="635.6" y="1130.7" width="64" height="21.8" transform="translate(-645.4 1299.7) rotate(-66.5)"/>
    </g>
    <g>
      <rect class="cls-28" x="584.4" y="971.5" width="43.5" height="62.6" transform="translate(-532.3 725.2) rotate(-45.1)"/>
      <polygon class="cls-28" points="576.8 1018.8 573.8 1032.3 612.9 1039.7 615.8 1026.3 576.8 1018.8"/>
      <polygon class="cls-28" points="622.6 972.7 636 969.7 643.7 1008.8 630.2 1011.9 622.6 972.7"/>
    </g>
    <g>
      <path class="cls-12" d="M626.6,968.4l33.5,15.3c4.5,2,6.5,7.3,4.4,11.8l-3.5,7.7c-2,4.5-7.3,6.5-11.8,4.4l-33.5-15.3c-4.5-2-6.5-7.3-4.4-11.8l3.5-7.7c2.1-4.5,7.3-6.5,11.8-4.4Z"/>
      <rect class="cls-12" x="594.4" y="921.8" width="95.5" height="26.8" transform="translate(-445.8 1256.6) rotate(-72)"/>
      <rect class="cls-12" x="626.4" y="936.4" width="95.5" height="26.8" transform="translate(-483.2 1081) rotate(-61.1)"/>
    </g>
    <g>
      <path class="cls-10" d="M716.9,1098l33.4-15.6c4.5-2.1,9.8-.2,11.8,4.3l3.6,7.6c2.1,4.5.2,9.8-4.3,11.8l-33.4,15.6c-4.5,2.1-9.8.2-11.8-4.3l-3.6-7.6c-2.1-4.5-.2-9.8,4.3-11.8Z"/>
      <rect class="cls-10" x="688.3" y="1016.9" width="26.8" height="95.5" transform="translate(-453.5 524.9) rotate(-31.6)"/>
      <rect class="cls-10" x="720.2" y="1002.1" width="26.8" height="95.5" transform="translate(-323.5 326.8) rotate(-20.7)"/>
    </g>
    <g>
      <rect class="cls-16" x="630.3" y="976.7" width="101.5" height="68.2" transform="translate(-32.2 22.5) rotate(-1.8)"/>
      <rect class="cls-16" x="667.8" y="1041.4" width="63.8" height="21.8" transform="translate(-477.8 593.6) rotate(-35.1)"/>
      <rect class="cls-16" x="686" y="935.1" width="21.8" height="64" transform="translate(-491.6 1058.2) rotate(-58.6)"/>
    </g>
    <g>
      <rect class="cls-25" x="629.3" y="1069.9" width="72.1" height="48.5" transform="translate(-468.9 1688.7) rotate(-86.4)"/>
      <rect class="cls-25" x="627.1" y="1081.9" width="15.5" height="45.3" transform="translate(-462.8 457.8) rotate(-29.6)"/>
      <rect class="cls-25" x="672.4" y="1100.7" width="45.5" height="15.5" transform="translate(-608.7 999.2) rotate(-53.1)"/>
    </g>
    <g>
      <path class="cls-29" d="M641.7,1092.7l-26.1-26c-3.5-3.5-3.5-9.1,0-12.6l5.9-6c3.5-3.5,9.1-3.5,12.6,0l26.1,26c3.5,3.5,3.5,9.1,0,12.6l-5.9,6c-3.5,3.5-9.1,3.5-12.6,0Z"/>
      <rect class="cls-29" x="568" y="1105.1" width="95.5" height="26.8" transform="translate(-643.6 908.3) rotate(-51.7)"/>
      <rect class="cls-29" x="542.9" y="1080.3" width="95.5" height="26.8" transform="translate(-571.1 651.8) rotate(-40.8)"/>
    </g>
    <g>
      <rect class="cls-17" x="623.9" y="1013.6" width="43.5" height="62.6" transform="translate(-507.6 1467.5) rotate(-78.4)"/>
      <polygon class="cls-17" points="661.4 1015.3 656.5 1002.4 619.8 1017.7 624.7 1030.5 661.4 1015.3"/>
      <polygon class="cls-17" points="648.4 1079 638.8 1088.9 611 1060.3 620.5 1050.4 648.4 1079"/>
    </g>
  </g>
  <g>
    <g>
      <rect class="cls-11" x="1280.6" y="596.7" width="75.9" height="51" transform="translate(-125.2 825.3) rotate(-33.3)"/>
      <rect class="cls-11" x="1266.6" y="594.8" width="47.7" height="16.3" transform="translate(223.2 1546.3) rotate(-66.5)"/>
      <rect class="cls-11" x="1301.5" y="648.1" width="47.9" height="16.3"/>
    </g>
    <g>
      <rect class="cls-28" x="1256.2" y="682.7" width="46.8" height="32.5" transform="translate(162.4 1635.9) rotate(-68.6)"/>
      <polygon class="cls-28" points="1299.4 714.4 1309.5 712.4 1302.9 683.4 1292.8 685.4 1299.4 714.4"/>
      <polygon class="cls-28" points="1254.1 696.7 1248 688.4 1272.6 671.5 1278.7 679.8 1254.1 696.7"/>
    </g>
    <g>
      <path class="cls-12" d="M1216.7,737.3l.4-23.1c0-4.9,4.2-8.8,9.1-8.8h1.8c4.9.1,8.8,4.2,8.8,9.1l-.4,23.1c0,4.9-4.2,8.8-9.1,8.8h-1.8c-4.9-.1-8.8-4.2-8.8-9.1Z"/>
      <rect class="cls-12" x="1153.6" y="728.7" width="71.4" height="20.1" transform="translate(-65 116.7) rotate(-5.5)"/>
      <rect class="cls-12" x="1179.8" y="676.7" width="20.1" height="71.4" transform="translate(368.2 1829.6) rotate(-84.6)"/>
    </g>
    <g>
      <path class="cls-10" d="M1276.9,637.5l-17.3-15.3c-3.7-3.3-4-8.9-.8-12.6l1.2-1.3c3.3-3.7,8.9-4,12.6-.8l17.3,15.3c3.7,3.3,4,8.9.8,12.6l-1.2,1.3c-3.3,3.7-8.9,4-12.6.8Z"/>
      <rect class="cls-10" x="1224.7" y="649.3" width="71.4" height="20.1" transform="translate(-2 1314.8) rotate(-55.1)"/>
      <rect class="cls-10" x="1204.8" y="631.8" width="71.4" height="20.1" transform="translate(-96.6 1045.7) rotate(-44.2)"/>
    </g>
    <g>
      <rect class="cls-14" x="1204" y="651.6" width="51" height="75.9" transform="translate(-176.8 592.3) rotate(-25.3)"/>
      <rect class="cls-14" x="1244.2" y="640.6" width="16.3" height="47.7" transform="translate(32.4 1386.7) rotate(-58.6)"/>
      <rect class="cls-14" x="1170.8" y="683.6" width="47.9" height="16.3" transform="translate(345.1 1779.9) rotate(-82.1)"/>
    </g>
    <g>
      <rect class="cls-25" x="1264.5" y="657.4" width="53.9" height="36.2" transform="translate(-152.6 478.6) rotate(-19.8)"/>
      <rect class="cls-25" x="1290.7" y="687.7" width="33.9" height="11.6" transform="translate(-32.2 1322.5) rotate(-53.1)"/>
      <rect class="cls-25" x="1286.5" y="633.8" width="11.6" height="34" transform="translate(359.7 1757.1) rotate(-76.6)"/>
    </g>
    <g>
      <path class="cls-29" d="M1292.2,693l-8.4,21.5c-1.8,4.6-7,6.8-11.6,5l-1.7-.7c-4.6-1.8-6.8-7-5.1-11.5l8.4-21.5c1.8-4.6,7-6.8,11.6-5l1.7.7c4.6,1.8,6.8,7,5.1,11.5Z"/>
      <rect class="cls-29" x="1308.4" y="665.4" width="20.1" height="71.4" transform="translate(303.3 1796.2) rotate(-75.2)"/>
      <rect class="cls-29" x="1298.9" y="689.9" width="20.1" height="71.4" transform="translate(87.2 1590.1) rotate(-64.3)"/>
    </g>
    <g>
      <rect class="cls-17" x="1247.1" y="680.3" width="32.5" height="46.8" transform="translate(-118 275.6) rotate(-11.9)"/>
      <polygon class="cls-17" points="1238.4 701.7 1231.1 708.9 1252.4 729.6 1259.8 722.4 1238.4 701.7"/>
      <polygon class="cls-17" points="1286 691.6 1295.6 695.2 1284.4 722.9 1274.7 719.3 1286 691.6"/>
    </g>
  </g>
  <g>
    <g>
      <rect class="cls-21" x="1177.5" y="869.4" width="136.3" height="91.6" transform="translate(-299.6 951.3) rotate(-37.6)"/>
      <rect class="cls-21" x="1255.5" y="931.1" width="85.7" height="29.2" transform="translate(-20.3 1862.9) rotate(-70.9)"/>
      <rect class="cls-21" x="1185.6" y="840.4" width="86" height="29.3" transform="translate(-62 96.7) rotate(-4.4)"/>
    </g>
    <g>
      <rect class="cls-28" x="1262.6" y="743" width="84.1" height="58.4" transform="translate(184.7 1794.1) rotate(-73)"/>
      <polygon class="cls-28" points="1267.1 747.5 1249.3 752.3 1265 803.4 1282.8 798.5 1267.1 747.5"/>
      <polygon class="cls-28" points="1350.6 772.9 1362.7 787 1321 820.6 1308.9 806.5 1350.6 772.9"/>
    </g>
    <g>
      <path class="cls-12" d="M1411.7,688l3.2,55.5c.3,4.9-3.5,9.1-8.4,9.4l-17.4,1c-4.9.3-9.1-3.5-9.4-8.4l-3.2-55.5c-.3-4.9,3.5-9.1,8.4-9.4l17.4-1c4.9-.3,9.1,3.5,9.4,8.4Z"/>
      <rect class="cls-12" x="1396.9" y="670.7" width="128.2" height="36" transform="translate(-96.2 259.8) rotate(-9.8)"/>
      <rect class="cls-12" x="1445.7" y="671.9" width="36" height="128.2" transform="translate(701.2 2186) rotate(-89)"/>
    </g>
    <g>
      <path class="cls-10" d="M1312.2,877.7l44.4,33.6c3.9,3,4.7,8.6,1.7,12.5l-10.5,13.9c-3,3.9-8.6,4.7-12.5,1.7l-44.4-33.6c-3.9-3-4.7-8.6-1.7-12.5l10.5-13.9c3-3.9,8.6-4.7,12.5-1.7Z"/>
      <rect class="cls-10" x="1280.5" y="822.5" width="128.2" height="36" transform="translate(-63 1570.7) rotate(-59.4)"/>
      <rect class="cls-10" x="1318.3" y="851.2" width="128.2" height="36" transform="translate(-184.3 1329.7) rotate(-48.5)"/>
    </g>
    <g>
      <rect class="cls-19" x="1349.9" y="714.3" width="91.6" height="136.2" transform="translate(-204.3 794.4) rotate(-29.7)"/>
      <rect class="cls-19" x="1343.5" y="787.6" width="29.2" height="85.7" transform="translate(.8 1662.3) rotate(-62.9)"/>
      <rect class="cls-19" x="1414.5" y="759.1" width="86" height="29.3" transform="translate(595.2 2180.7) rotate(-86.5)"/>
    </g>
    <g>
      <rect class="cls-25" x="1238.3" y="783.4" width="96.9" height="65.1" transform="translate(-221.5 599.6) rotate(-24.2)"/>
      <rect class="cls-25" x="1224.9" y="775.8" width="60.9" height="20.8" transform="translate(-82.6 1421.5) rotate(-57.5)"/>
      <rect class="cls-25" x="1278.2" y="829.8" width="20.8" height="61.1" transform="translate(236.8 1998) rotate(-81)"/>
    </g>
    <g>
      <path class="cls-29" d="M1280.8,791.6l16.3-53.2c1.4-4.7,6.4-7.4,11.1-5.9l16.7,5.1c4.7,1.4,7.4,6.4,5.9,11.1l-16.3,53.2c-1.4,4.7-6.4,7.4-11.1,5.9l-16.7-5.1c-4.7-1.4-7.4-6.4-5.9-11.1Z"/>
      <rect class="cls-29" x="1216.7" y="709.8" width="36" height="128.2" transform="translate(249.6 1847.6) rotate(-79.5)"/>
      <rect class="cls-29" x="1230.6" y="664.5" width="36" height="128.2" transform="translate(115.6 1626.5) rotate(-68.7)"/>
    </g>
    <g>
      <rect class="cls-17" x="1303.8" y="719.6" width="58.4" height="84.1" transform="translate(-160 404) rotate(-16.3)"/>
      <polygon class="cls-17" points="1378 761.8 1390.2 748 1349.1 713.9 1336.9 727.8 1378 761.8"/>
      <polygon class="cls-17" points="1294.2 786.4 1276.5 781.2 1292.9 730.2 1310.7 735.3 1294.2 786.4"/>
    </g>
  </g>
  <g class="cls-32">
    <g>
      <rect class="cls-24" x="1446.6" y="805" width="83.6" height="124.3" transform="translate(577.6 2329.2) rotate(-88.3)"/>
      <rect class="cls-24" x="1429.7" y="801.8" width="78.2" height="26.7" transform="translate(-209.4 889) rotate(-31.5)"/>
      <rect class="cls-24" x="1452.3" y="880.2" width="26.8" height="78.4" transform="translate(-127.5 1594.2) rotate(-55.1)"/>
    </g>
    <g>
      <rect class="cls-28" x="1325.7" y="907.3" width="76.8" height="53.3" transform="translate(-288.9 912.5) rotate(-33.7)"/>
      <polygon class="cls-28" points="1376.2 973.1 1391.6 979.9 1410.1 934.8 1394.7 928 1376.2 973.1"/>
      <polygon class="cls-28" points="1332 906.8 1331.6 889.9 1380.5 890.3 1380.9 907.2 1332 906.8"/>
    </g>
    <g>
      <path class="cls-12" d="M1240.3,930.8l29-39.8c2.9-4,8.5-4.9,12.5-2l11.6,8.4c4,2.9,4.9,8.5,2,12.5l-29,39.8c-2.9,4-8.5,4.9-12.5,2l-11.6-8.4c-4-2.9-4.9-8.5-2-12.5Z"/>
      <rect class="cls-12" x="1188.9" y="843.8" width="32.9" height="117" transform="translate(-173.6 1507) rotate(-60.5)"/>
      <rect class="cls-12" x="1214.3" y="809" width="32.9" height="117" transform="translate(-227.5 1242.8) rotate(-49.6)"/>
    </g>
    <g>
      <path class="cls-10" d="M1419.6,854.3l-11.5-47.8c-1.2-4.8,1.8-9.6,6.6-10.8l13.9-3.4c4.8-1.2,9.6,1.8,10.8,6.6l11.5,47.8c1.2,4.8-1.8,9.6-6.6,10.8l-13.9,3.4c-4.8,1.2-9.6-1.8-10.8-6.6Z"/>
      <rect class="cls-10" x="1316.8" y="846" width="117" height="32.9" transform="translate(-212.5 524.6) rotate(-20.1)"/>
      <rect class="cls-10" x="1306.8" y="804" width="117" height="32.9" transform="translate(-113.6 228.7) rotate(-9.2)"/>
    </g>
    <g>
      <rect class="cls-26" x="1243.6" y="832.3" width="124.3" height="83.6" transform="translate(225.2 2015) rotate(-80.4)"/>
      <rect class="cls-26" x="1346.6" y="822.7" width="26.7" height="78.2" transform="translate(-231.3 616.6) rotate(-23.6)"/>
      <rect class="cls-26" x="1217.9" y="830.9" width="78.4" height="26.8" transform="translate(-217.1 1190.7) rotate(-47.1)"/>
    </g>
    <g>
      <rect class="cls-25" x="1372.2" y="869.2" width="59.4" height="88.4" transform="translate(154.3 2028.3) rotate(-74.9)"/>
      <rect class="cls-25" x="1379.2" y="943.1" width="55.6" height="19" transform="translate(-226.5 484.8) rotate(-18.1)"/>
      <rect class="cls-25" x="1416.9" y="853.1" width="19" height="55.8" transform="translate(-225.1 1170) rotate(-41.6)"/>
    </g>
    <g>
      <path class="cls-29" d="M1391.5,934.4l-41,27.3c-4.1,2.7-9.6,1.6-12.4-2.5l-7.9-11.9c-2.7-4.1-1.6-9.6,2.5-12.4l41-27.3c4.1-2.7,9.6-1.6,12.4,2.5l7.9,11.9c2.7,4.1,1.6,9.6-2.5,12.4Z"/>
      <rect class="cls-29" x="1397.9" y="914.6" width="32.9" height="117" transform="translate(-294 1142.8) rotate(-40.2)"/>
      <rect class="cls-29" x="1361.9" y="938.6" width="32.9" height="117" transform="translate(-311.7 802.5) rotate(-29.3)"/>
    </g>
    <g>
      <rect class="cls-17" x="1299.6" y="898.3" width="76.8" height="53.3" transform="translate(-37.3 1793.4) rotate(-66.9)"/>
      <polygon class="cls-17" points="1306.2 898.8 1289.6 901.5 1298.9 949.3 1315.6 946.6 1306.2 898.8"/>
      <polygon class="cls-17" points="1379.6 929.9 1389.2 943.8 1348.1 970.4 1338.5 956.4 1379.6 929.9"/>
    </g>
  </g>
  <g>
    <g>
      <rect class="cls-13" x="557.2" y="1037.8" width="72.9" height="108.5" transform="translate(-563 1547.1) rotate(-82.9)"/>
      <rect class="cls-13" x="546.8" y="1033.5" width="68.2" height="23.3" transform="translate(-401.7 363.7) rotate(-26.2)"/>
      <rect class="cls-13" x="558.1" y="1101.3" width="23.3" height="68.4" transform="translate(-664.8 835.7) rotate(-49.7)"/>
    </g>
    <g>
      <rect class="cls-28" x="375" y="1132.2" width="67" height="46.5" transform="translate(-498.9 331.8) rotate(-28.3)"/>
      <polygon class="cls-28" points="415.9 1190.5 428.7 1197.7 448.5 1160 435.6 1152.8 415.9 1190.5"/>
      <polygon class="cls-28" points="382.9 1129.3 383.9 1114.6 426.4 1118.9 425.4 1133.6 382.9 1129.3"/>
    </g>
    <g>
      <path class="cls-12" d="M379.3,1124.3l26.9-30.5c3.3-3.7,8.9-4.1,12.6-.8l7.7,6.8c3.7,3.3,4,8.9.8,12.6l-26.9,30.5c-3.3,3.7-8.9,4.1-12.6.8l-7.7-6.8c-3.7-3.3-4-8.9-.8-12.6Z"/>
      <rect class="cls-12" x="336.2" y="1046.7" width="28.7" height="102.1" transform="translate(-750.5 758) rotate(-55.1)"/>
      <rect class="cls-12" x="361.1" y="1018.4" width="28.7" height="102.1" transform="translate(-639.8 565.6) rotate(-44.3)"/>
    </g>
    <g>
      <path class="cls-10" d="M540.4,1072.2l-5.8-40.3c-.7-4.9,2.7-9.4,7.6-10.1l10.1-1.5c4.9-.7,9.4,2.7,10.1,7.6l5.8,40.3c.7,4.9-2.7,9.4-7.6,10.1l-10.1,1.5c-4.9.7-9.4-2.7-10.1-7.6Z"/>
      <rect class="cls-10" x="450.5" y="1062.4" width="102.1" height="28.7" transform="translate(-257.3 162.9) rotate(-14.7)"/>
      <rect class="cls-10" x="445.1" y="1025.2" width="102.1" height="28.7" transform="translate(-68.5 35.6) rotate(-3.8)"/>
    </g>
    <g>
      <rect class="cls-23" x="385.8" y="1044.7" width="108.5" height="72.9" transform="translate(-718.2 1226.5) rotate(-75)"/>
      <rect class="cls-23" x="476.6" y="1040.9" width="23.3" height="68.2" transform="translate(-312.1 207) rotate(-18.3)"/>
      <rect class="cls-23" x="365.9" y="1039.9" width="68.4" height="23.3" transform="translate(-598.7 533.7) rotate(-41.8)"/>
    </g>
    <g>
      <rect class="cls-25" x="494.6" y="1084.7" width="51.8" height="77.1" transform="translate(-713.8 1217.8) rotate(-69.5)"/>
      <rect class="cls-25" x="497.3" y="1149.4" width="48.5" height="16.5" transform="translate(-242.9 143.8) rotate(-12.8)"/>
      <rect class="cls-25" x="536" y="1072.7" width="16.6" height="48.7" transform="translate(-543.6 534.7) rotate(-36.3)"/>
    </g>
    <g>
      <path class="cls-29" d="M512.2,1146.6l-35.8,19.3c-4.3,2.3-9.7.7-12.1-3.6l-4.9-9c-2.3-4.3-.7-9.7,3.6-12.1l35.8-19.3c4.3-2.3,9.7-.7,12.1,3.6l4.9,9c2.3,4.3.7,9.7-3.6,12.1Z"/>
      <rect class="cls-29" x="515.6" y="1130.6" width="28.7" height="102.1" transform="translate(-580.1 514.7) rotate(-34.8)"/>
      <rect class="cls-29" x="482.4" y="1148.4" width="28.7" height="102.1" transform="translate(-444.3 305.1) rotate(-24)"/>
    </g>
    <g>
      <rect class="cls-17" x="430.4" y="1104.9" width="67" height="46.5" transform="translate(-749 999.1) rotate(-61.6)"/>
      <polygon class="cls-17" points="438.5 1102.8 423.8 1103.8 428 1146.1 442.7 1145.1 438.5 1102.8"/>
      <polygon class="cls-17" points="499.7 1135.8 506.9 1148.7 469 1168.4 461.8 1155.5 499.7 1135.8"/>
    </g>
  </g>
  <g class="cls-34">
    <g>
      <rect class="cls-21" x="520.5" y="1181.2" width="136.2" height="91.6" transform="translate(-302.6 198.6) rotate(-15.3)"/>
      <rect class="cls-21" x="583" y="1260.7" width="85.7" height="29.2" transform="translate(-744.2 899.8) rotate(-48.5)"/>
      <rect class="cls-21" x="581" y="1121.9" width="29.3" height="86" transform="translate(-696.1 1372.5) rotate(-72)"/>
    </g>
    <g>
      <rect class="cls-28" x="655.5" y="1088.1" width="84.1" height="58.4" transform="translate(-608.7 948.1) rotate(-50.6)"/>
      <polygon class="cls-28" points="672.3 1080.1 654 1077.9 649.1 1131.1 667.4 1133.3 672.3 1080.1"/>
      <polygon class="cls-28" points="739.9 1135.4 745.7 1153 694.3 1168.3 688.5 1150.7 739.9 1135.4"/>
    </g>
    <g>
      <path class="cls-12" d="M828.7,1080.2l-18.2,52.6c-1.6,4.7-6.7,7.1-11.3,5.5l-16.5-5.7c-4.7-1.6-7.1-6.7-5.5-11.3l18.2-52.6c1.6-4.7,6.7-7.1,11.3-5.5l16.5,5.7c4.7,1.6,7.1,6.7,5.5,11.3Z"/>
      <rect class="cls-12" x="856" y="1035.5" width="36" height="128.2" transform="translate(-388.9 1714.4) rotate(-77.5)"/>
      <rect class="cls-12" x="840.5" y="1080.2" width="36" height="128.2" transform="translate(-532.7 1477.6) rotate(-66.6)"/>
    </g>
    <g>
      <path class="cls-10" d="M664.5,1217.8l28.3,47.9c2.5,4.2,1.1,9.7-3.2,12.2l-15,8.8c-4.2,2.5-9.7,1.1-12.2-3.2l-28.3-47.9c-2.5-4.2-1.1-9.7,3.2-12.2l15-8.8c4.2-2.5,9.7-1.1,12.2,3.2Z"/>
      <rect class="cls-10" x="644.6" y="1177.8" width="128.2" height="36" transform="translate(-577.5 668.7) rotate(-37.1)"/>
      <rect class="cls-10" x="668.5" y="1218.5" width="128.2" height="36" transform="translate(-470.4 450.1) rotate(-26.2)"/>
    </g>
    <g>
      <rect class="cls-19" x="732.1" y="1093.2" width="91.6" height="136.3" transform="translate(-142 108.9) rotate(-7.3)"/>
      <rect class="cls-19" x="710.3" y="1148.7" width="29.2" height="85.7" transform="translate(-600.8 758.3) rotate(-40.6)"/>
      <rect class="cls-19" x="795.4" y="1162.2" width="86" height="29.3" transform="translate(-586.6 1416.8) rotate(-64.1)"/>
    </g>
    <g>
      <rect class="cls-25" x="616" y="1118.4" width="96.9" height="65.1" transform="translate(-36.9 22.1) rotate(-1.9)"/>
      <rect class="cls-25" x="616.2" y="1101.1" width="60.9" height="20.8" transform="translate(-521.5 574) rotate(-35.1)"/>
      <rect class="cls-25" x="638.8" y="1162.2" width="20.9" height="61.1" transform="translate(-707.1 1125.8) rotate(-58.6)"/>
    </g>
    <g>
      <path class="cls-29" d="M668.2,1126.2l35.3-43c3.1-3.8,8.7-4.4,12.5-1.2l13.5,11.1c3.8,3.1,4.4,8.7,1.2,12.6l-35.3,43c-3.1,3.8-8.7,4.4-12.5,1.2l-13.5-11.1c-3.8-3.1-4.4-8.7-1.2-12.6Z"/>
      <rect class="cls-29" x="614.4" y="1028.2" width="36" height="128.2" transform="translate(-628.3 1031.9) rotate(-57.2)"/>
      <rect class="cls-29" x="644.3" y="991.6" width="36" height="128.2" transform="translate(-558.5 805.2) rotate(-46.3)"/>
    </g>
    <g>
      <rect class="cls-17" x="685.9" y="1089.2" width="84.1" height="58.4" transform="translate(-461.2 1723.7) rotate(-83.9)"/>
      <polygon class="cls-17" points="769.5 1135.6 786 1127.4 760.9 1080.3 744.4 1088.5 769.5 1135.6"/>
      <polygon class="cls-17" points="682.6 1126.5 668.1 1114.9 702.7 1074 717.2 1085.5 682.6 1126.5"/>
    </g>
  </g>
  <g class="cls-35">
    <g>
      <rect class="cls-11" x="888.7" y="1130.3" width="116.2" height="78.1" transform="translate(-95.4 84.2) rotate(-4.8)"/>
      <rect class="cls-11" x="934" y="1203.1" width="73" height="24.9" transform="translate(-543.2 857.6) rotate(-38.1)"/>
      <rect class="cls-11" x="949.8" y="1081.8" width="25" height="73.3" transform="translate(-479.2 1433) rotate(-61.6)"/>
    </g>
    <g>
      <rect class="cls-28" x="1019.2" y="1069.3" width="71.7" height="49.8" transform="translate(-457 939.5) rotate(-40.2)"/>
      <polygon class="cls-28" points="1039.6 1059.1 1024.6 1054.4 1012.3 1098.2 1027.3 1102.9 1039.6 1059.1"/>
      <polygon class="cls-28" points="1087.7 1115.9 1089.9 1131.6 1044.4 1136.4 1042.3 1120.8 1087.7 1115.9"/>
    </g>
    <g>
      <path class="cls-12" d="M1170.1,1084.4l-22.1,39c-2.4,4.3-7.9,5.8-12.2,3.4l-10.7-6c-4.3-2.4-5.8-7.9-3.4-12.2l22.1-39c2.4-4.3,7.9-5.8,12.2-3.4l10.7,6c4.3,2.4,5.8,7.9,3.4,12.2Z"/>
      <rect class="cls-12" x="1190.3" y="1051.9" width="30.7" height="109.3" transform="translate(-283.4 1785.2) rotate(-67)"/>
      <rect class="cls-12" x="1170.5" y="1087" width="30.7" height="109.3" transform="translate(-422.7 1490.8) rotate(-56.2)"/>
    </g>
    <g>
      <path class="cls-10" d="M1012.2,1174.5l15.4,42.1c1.7,4.6-.7,9.8-5.3,11.4l-11.5,4.2c-4.6,1.7-9.8-.7-11.4-5.3l-15.4-42.1c-1.7-4.6.7-9.8,5.3-11.4l11.5-4.2c4.6-1.7,9.8.7,11.4,5.3Z"/>
      <rect class="cls-10" x="997.4" y="1146.4" width="109.3" height="30.7" transform="translate(-409.1 594.8) rotate(-26.6)"/>
      <rect class="cls-10" x="1011.4" y="1184.2" width="109.3" height="30.7" transform="translate(-285.5 334.2) rotate(-15.7)"/>
    </g>
    <g>
      <rect class="cls-14" x="1057.6" y="1104.5" width="116.2" height="78.1" transform="translate(-86.5 2195.9) rotate(-86.9)"/>
      <rect class="cls-14" x="1054.2" y="1124.1" width="24.9" height="73" transform="translate(-438.6 692.7) rotate(-30.1)"/>
      <rect class="cls-14" x="1127.3" y="1153.4" width="73.3" height="25" transform="translate(-464.9 1412.5) rotate(-53.7)"/>
    </g>
    <g>
      <rect class="cls-25" x="994.3" y="1076" width="55.5" height="82.6" transform="translate(-235.3 1961.2) rotate(-81.4)"/>
      <rect class="cls-25" x="987.3" y="1072.5" width="51.9" height="17.7" transform="translate(-358.8 521.5) rotate(-24.7)"/>
      <rect class="cls-25" x="994" y="1123.9" width="17.8" height="52.1" transform="translate(-522.8 1130.4) rotate(-48.2)"/>
    </g>
    <g>
      <path class="cls-29" d="M1030,1096.2l34.2-28.9c3.8-3.2,9.4-2.7,12.6,1.1l7.9,9.3c3.2,3.8,2.7,9.4-1.1,12.6l-34.2,28.9c-3.8,3.2-9.4,2.7-12.6-1.1l-7.9-9.3c-3.2-3.8-2.7-9.4,1.1-12.6Z"/>
      <rect class="cls-29" x="988.9" y="1008.5" width="30.7" height="109.3" transform="translate(-458.2 1066.1) rotate(-46.7)"/>
      <rect class="cls-29" x="1019.8" y="982.4" width="30.7" height="109.3" transform="translate(-411.3 803) rotate(-35.9)"/>
    </g>
    <g>
      <rect class="cls-17" x="1044.5" y="1074.8" width="71.7" height="49.8" transform="translate(-281.2 1822.7) rotate(-73.5)"/>
      <polygon class="cls-17" points="1112.5 1120.7 1127.6 1116.3 1113.9 1072.9 1098.8 1077.2 1112.5 1120.7"/>
      <polygon class="cls-17" points="1041.1 1099.6 1030.7 1087.6 1066.1 1058.6 1076.4 1070.6 1041.1 1099.6"/>
    </g>
  </g>
  <g>
    <rect class="cls-21" x="1353.9" y="1130.2" width="136.2" height="91.6" transform="translate(-242.1 1973.3) rotate(-65.2)"/>
    <rect class="cls-21" x="1468.4" y="1135.9" width="29.2" height="85.7" transform="translate(-156.9 230.3) rotate(-8.4)"/>
    <rect class="cls-21" x="1336.2" y="1116.1" width="86" height="29.3" transform="translate(-389.4 901) rotate(-31.9)"/>
  </g>
  <g>
    <rect class="cls-28" x="1379.2" y="979.9" width="58.4" height="84.1" transform="translate(-163.2 275) rotate(-10.5)"/>
    <polygon class="cls-28" points="1363.6 1017.3 1350.1 1029.9 1387.7 1067.9 1401.2 1055.3 1363.6 1017.3"/>
    <polygon class="cls-28" points="1449.5 1001.3 1466.7 1008.2 1445.2 1057.3 1428.1 1050.4 1449.5 1001.3"/>
  </g>
  <g>
    <path class="cls-12" d="M1464.3,897.8l28.5,47.8c2.5,4.2,1.1,9.7-3.1,12.2l-15,8.9c-4.2,2.5-9.7,1.1-12.2-3.1l-28.5-47.8c-2.5-4.2-1.1-9.7,3.1-12.2l15-8.9c4.2-2.5,9.7-1.1,12.2,3.1Z"/>
    <rect class="cls-12" x="1444.3" y="857.5" width="128.2" height="36" transform="translate(-221.7 1095.7) rotate(-37.4)"/>
    <rect class="cls-12" x="1468.6" y="898.2" width="128.2" height="36" transform="translate(-247.8 780.2) rotate(-26.5)"/>
  </g>
  <g>
    <path class="cls-10" d="M1463.9,1112l54.9,9.3c4.9.8,8.1,5.4,7.3,10.3l-2.9,17.2c-.8,4.9-5.4,8.1-10.3,7.3l-54.9-9.3c-4.9-.8-8.1-5.4-7.3-10.3l2.9-17.2c.8-4.9,5.4-8.1,10.3-7.3Z"/>
    <rect class="cls-10" x="1411.5" y="1046" width="128.2" height="36" transform="translate(335 2481.2) rotate(-87)"/>
    <rect class="cls-10" x="1458" y="1053.9" width="128.2" height="36" transform="translate(115.7 2291.5) rotate(-76.1)"/>
  </g>
  <g>
    <rect class="cls-19" x="1448" y="920.7" width="91.6" height="136.2" transform="translate(-146 1710.2) rotate(-57.2)"/>
    <rect class="cls-19" x="1439.8" y="1034.3" width="85.7" height="29.2" transform="translate(-9 12.8) rotate(-.5)"/>
    <rect class="cls-19" x="1529.9" y="909.6" width="29.3" height="86" transform="translate(-253.9 710.7) rotate(-24)"/>
  </g>
  <g>
    <rect class="cls-25" x="1364.2" y="1036.5" width="96.9" height="65.1" transform="translate(-301.3 1517) rotate(-51.8)"/>
    <rect class="cls-25" x="1340.6" y="1046.8" width="60.9" height="20.8" transform="translate(198.6 2331) rotate(-85)"/>
    <rect class="cls-25" x="1404.4" y="1097" width="61.1" height="20.8" transform="translate(-277.4 513.1) rotate(-18.5)"/>
  </g>
  <g>
    <path class="cls-29" d="M1396.2,1050.2l-10.2-54.7c-.9-4.8,2.3-9.5,7.1-10.4l17.1-3.2c4.8-.9,9.5,2.3,10.4,7.1l10.2,54.7c.9,4.8-2.3,9.5-7.1,10.4l-17.1,3.2c-4.8.9-9.5-2.3-10.4-7.1Z"/>
    <rect class="cls-29" x="1283.2" y="1037.7" width="128.2" height="36" transform="translate(-250.8 442.6) rotate(-17.1)"/>
    <rect class="cls-29" x="1274.5" y="991.2" width="128.2" height="36" transform="translate(-101.3 150.6) rotate(-6.2)"/>
  </g>
  <g>
    <rect class="cls-17" x="1399.5" y="957.3" width="58.4" height="84.1" transform="translate(-294.1 1267.5) rotate(-43.8)"/>
    <polygon class="cls-17" points="1468.7 978.8 1473 960.9 1420.8 949.7 1416.4 967.6 1468.7 978.8"/>
    <polygon class="cls-17" points="1405.7 1039.3 1387.6 1043 1378.5 990.2 1396.7 986.5 1405.7 1039.3"/>
  </g>
  <g>
    <g>
      <rect class="cls-11" x="261.5" y="1124.2" width="51" height="75.9" transform="translate(-907.9 1091.9) rotate(-72.8)"/>
      <rect class="cls-11" x="266.2" y="1187.8" width="47.7" height="16.3" transform="translate(-318.6 126.4) rotate(-16)"/>
      <rect class="cls-11" x="300.7" y="1111.2" width="16.3" height="47.9" transform="translate(-651.7 456) rotate(-39.5)"/>
    </g>
    <g>
      <rect class="cls-28" x="347.6" y="1127" width="46.8" height="32.5" transform="translate(-337.1 172.1) rotate(-18.1)"/>
      <polygon class="cls-28" points="370.3 1118.2 362.4 1111.7 344.2 1135.2 352.1 1141.7 370.3 1118.2"/>
      <polygon class="cls-28" points="385.5 1164.4 383 1174.4 354.3 1166.2 356.8 1156.2 385.5 1164.4"/>
    </g>
    <g>
      <path class="cls-12" d="M440.6,1167.5l-18.1,14.3c-3.9,3.1-9.5,2.4-12.5-1.4l-1.1-1.4c-3.1-3.9-2.4-9.5,1.5-12.5l18.1-14.3c3.9-3.1,9.5-2.4,12.5,1.4l1.1,1.4c3.1,3.9,2.4,9.5-1.5,12.5Z"/>
      <rect class="cls-12" x="449.2" y="1152" width="20.1" height="71.4" transform="translate(-705 671.7) rotate(-45)"/>
      <rect class="cls-12" x="428.6" y="1168.4" width="20.1" height="71.4" transform="translate(-599.3 452.5) rotate(-34.1)"/>
    </g>
    <g>
      <path class="cls-10" d="M325.3,1184.4l-.8,23.1c-.2,4.9-4.3,8.8-9.2,8.6h-1.8c-4.9-.2-8.8-4.4-8.6-9.3l.8-23.1c.2-4.9,4.3-8.8,9.2-8.6h1.8c4.9.2,8.8,4.4,8.6,9.3Z"/>
      <rect class="cls-10" x="317.1" y="1173.4" width="71.4" height="20.1" transform="translate(-92.6 31.7) rotate(-4.5)"/>
      <rect class="cls-10" x="341.8" y="1174.1" width="20.1" height="71.4" transform="translate(-889.4 1425.8) rotate(-83.7)"/>
    </g>
    <g>
      <rect class="cls-14" x="357.7" y="1162.4" width="75.9" height="51" transform="translate(-847.7 1040.5) rotate(-64.8)"/>
      <rect class="cls-14" x="353.6" y="1162.4" width="16.3" height="47.7" transform="translate(-162.9 62.5) rotate(-8.1)"/>
      <rect class="cls-14" x="395.3" y="1205.2" width="47.9" height="16.3" transform="translate(-573.2 399.1) rotate(-31.6)"/>
    </g>
    <g>
      <rect class="cls-25" x="327.3" y="1122.1" width="36.3" height="53.9" transform="translate(-819.2 860.2) rotate(-59.3)"/>
      <rect class="cls-25" x="332" y="1119.5" width="33.9" height="11.6" transform="translate(-50.3 16.8) rotate(-2.6)"/>
      <rect class="cls-25" x="320" y="1147.1" width="11.6" height="34" transform="translate(-478.8 261.9) rotate(-26.1)"/>
    </g>
    <g>
      <path class="cls-29" d="M358.4,1137.4l21.9-7.2c4.7-1.5,9.7,1,11.2,5.7l.6,1.7c1.5,4.7-1,9.7-5.7,11.2l-21.9,7.2c-4.7,1.5-9.7-1-11.2-5.7l-.6-1.7c-1.5-4.7,1-9.7,5.7-11.2Z"/>
      <rect class="cls-29" x="337.9" y="1076.2" width="20.1" height="71.4" transform="translate(-432.3 246.6) rotate(-24.7)"/>
      <rect class="cls-29" x="362.9" y="1068.1" width="20.1" height="71.4" transform="translate(-252.2 120.6) rotate(-13.8)"/>
    </g>
    <g>
      <rect class="cls-17" x="361.6" y="1136.5" width="46.8" height="32.5" transform="translate(-756 734.3) rotate(-51.4)"/>
      <polygon class="cls-17" points="399.3 1173.3 409.5 1174.4 411.9 1144.8 401.7 1143.7 399.3 1173.3"/>
      <polygon class="cls-17" points="361.3 1143 357.9 1133.3 386.4 1124.4 389.8 1134.2 361.3 1143"/>
    </g>
  </g>
  <g>
    <g>
      <rect class="cls-11" x="1286.6" y="1089.7" width="75.9" height="51" transform="translate(-72.5 2138.1) rotate(-76.3)"/>
      <rect class="cls-11" x="1349.9" y="1086.2" width="16.3" height="47.7" transform="translate(-293.2 518.6) rotate(-19.6)"/>
      <rect class="cls-11" x="1272.2" y="1086.8" width="47.9" height="16.3" transform="translate(-398.5 1180) rotate(-43.1)"/>
    </g>
    <g>
      <rect class="cls-28" x="1284.2" y="1009" width="32.5" height="46.8" transform="translate(-289.2 552.9) rotate(-21.7)"/>
      <polygon class="cls-28" points="1275.5 1034.8 1269.5 1043.1 1294.1 1059.8 1300.1 1051.5 1275.5 1034.8"/>
      <polygon class="cls-28" points="1320.7 1016.8 1330.8 1018.7 1324.4 1047.8 1314.2 1045.9 1320.7 1016.8"/>
    </g>
    <g>
      <path class="cls-12" d="M1320.3,961.5l15.4,17.2c3.3,3.7,3,9.3-.7,12.6l-1.3,1.2c-3.7,3.3-9.3,3-12.6-.7l-15.4-17.2c-3.3-3.7-3-9.3.7-12.6l1.3-1.2c3.7-3.3,9.3-3,12.6.7Z"/>
      <rect class="cls-12" x="1303.7" y="931.7" width="71.4" height="20.1" transform="translate(-253.4 1320.9) rotate(-48.5)"/>
      <rect class="cls-12" x="1321.3" y="951.3" width="71.4" height="20.1" transform="translate(-304.7 1028.2) rotate(-37.6)"/>
    </g>
    <g>
      <path class="cls-10" d="M1344.4,1075.6l23.1-.6c4.9-.1,9,3.8,9.2,8.7v1.8c.2,4.9-3.7,9-8.6,9.2l-23.1.6c-4.9.1-9-3.8-9.2-8.7v-1.8c-.2-4.9,3.7-9,8.6-9.2Z"/>
      <rect class="cls-10" x="1331.5" y="1012.6" width="20.1" height="71.4" transform="translate(-134.1 199.2) rotate(-8.1)"/>
      <rect class="cls-10" x="1332.3" y="1037.6" width="71.4" height="20.1" transform="translate(254.9 2362.8) rotate(-87.2)"/>
    </g>
    <g>
      <rect class="cls-14" x="1318.1" y="967.2" width="51" height="75.9" transform="translate(-86.1 1883.5) rotate(-68.4)"/>
      <rect class="cls-14" x="1320.1" y="1030.9" width="47.7" height="16.3" transform="translate(-181.6 291.7) rotate(-11.6)"/>
      <rect class="cls-14" x="1359.4" y="956" width="16.3" height="47.9" transform="translate(-314.8 965.1) rotate(-35.1)"/>
    </g>
    <g>
      <rect class="cls-25" x="1281" y="1039.6" width="53.9" height="36.2" transform="translate(-229.8 1739.6) rotate(-62.9)"/>
      <rect class="cls-25" x="1278" y="1038.8" width="11.6" height="33.9" transform="translate(-105.3 143) rotate(-6.1)"/>
      <rect class="cls-25" x="1307.2" y="1070.6" width="34" height="11.6" transform="translate(-359 795.6) rotate(-29.6)"/>
    </g>
    <g>
      <path class="cls-29" d="M1295.4,1045.5l-8.5-21.4c-1.8-4.6.4-9.8,5-11.6l1.7-.7c4.6-1.8,9.8.4,11.6,5l8.5,21.4c1.8,4.6-.4,9.8-5,11.6l-1.7.7c-4.6,1.8-9.8-.4-11.6-5Z"/>
      <rect class="cls-29" x="1234.8" y="1047.5" width="71.4" height="20.1" transform="translate(-348.9 726) rotate(-28.2)"/>
      <rect class="cls-29" x="1225.1" y="1023" width="71.4" height="20.1" transform="translate(-250.4 422.2) rotate(-17.3)"/>
    </g>
    <g>
      <rect class="cls-17" x="1292.9" y="994.6" width="32.5" height="46.8" transform="translate(-276.2 1504.7) rotate(-54.9)"/>
      <polygon class="cls-17" points="1328.7 1002.4 1329.2 992.2 1299.5 991.6 1299 1001.9 1328.7 1002.4"/>
      <polygon class="cls-17" points="1300.8 1042.2 1291.3 1046.2 1280.7 1018.3 1290.2 1014.3 1300.8 1042.2"/>
    </g>
  </g>
  <g>
    <g>
      <rect class="cls-13" x="586.2" y="802.3" width="112.5" height="75.7" transform="translate(-384.4 586.9) rotate(-38.7)"/>
      <rect class="cls-13" x="651.2" y="852.5" width="70.8" height="24.1" transform="translate(-347.9 1250) rotate(-72)"/>
      <rect class="cls-13" x="591.9" y="778.6" width="71" height="24.2" transform="translate(-72.9 63.7) rotate(-5.5)"/>
    </g>
    <g>
      <rect class="cls-28" x="694.5" y="632.4" width="69.5" height="48.2" transform="translate(-102 1177.9) rotate(-74.1)"/>
      <polygon class="cls-28" points="697.8 636.6 683.2 641 696.9 682.9 711.6 678.5 697.8 636.6"/>
      <polygon class="cls-28" points="767.2 656.3 777.3 667.8 743.4 696.2 733.3 684.8 767.2 656.3"/>
    </g>
    <g>
      <path class="cls-12" d="M773.4,656.9l3.3,42.7c.4,4.9-3.3,9.2-8.2,9.6l-11.3.9c-4.9.4-9.2-3.3-9.6-8.2l-3.3-42.7c-.4-4.9,3.3-9.2,8.2-9.6l11.3-.9c4.9-.4,9.2,3.3,9.6,8.2Z"/>
      <rect class="cls-12" x="761.1" y="640.3" width="105.9" height="29.8" transform="translate(-109.5 166.3) rotate(-10.9)"/>
      <rect class="cls-12" x="764.1" y="679.3" width="105.9" height="29.8"/>
    </g>
    <g>
      <path class="cls-10" d="M695.4,814.6l34.7,25.2c4,2.9,4.9,8.5,2,12.5l-6.6,9.1c-2.9,4-8.5,4.9-12.5,2l-34.7-25.2c-4-2.9-4.9-8.5-2-12.5l6.6-9.1c2.9-4,8.5-4.9,12.5-2Z"/>
      <rect class="cls-10" x="667.4" y="767.7" width="105.9" height="29.8" transform="translate(-315.3 1024.6) rotate(-60.5)"/>
      <rect class="cls-10" x="699.1" y="790.6" width="105.9" height="29.8" transform="translate(-348.7 856.7) rotate(-49.6)"/>
    </g>
    <g>
      <rect class="cls-23" x="723.7" y="677.3" width="75.7" height="112.5" transform="translate(-268.2 493.4) rotate(-30.8)"/>
      <rect class="cls-23" x="719.3" y="738.5" width="24.1" height="70.8" transform="translate(-284.6 1092.7) rotate(-64)"/>
      <rect class="cls-23" x="777" y="713.4" width="71" height="24.2" transform="translate(53.1 1506.3) rotate(-87.6)"/>
    </g>
    <g>
      <rect class="cls-25" x="632.2" y="736.2" width="80" height="53.8" transform="translate(-261.7 360.6) rotate(-25.3)"/>
      <rect class="cls-25" x="620.5" y="730.3" width="50.3" height="17.2" transform="translate(-321.5 904.3) rotate(-58.6)"/>
      <rect class="cls-25" x="665.8" y="774.4" width="17.2" height="50.5" transform="translate(-210.6 1357.3) rotate(-82.1)"/>
    </g>
    <g>
      <path class="cls-29" d="M660.7,740.3l11.8-41.2c1.3-4.7,6.3-7.5,11-6.1l10.9,3.1c4.7,1.3,7.5,6.3,6.1,11l-11.8,41.2c-1.3,4.7-6.3,7.5-11,6.1l-10.9-3.1c-4.7-1.3-7.5-6.3-6.1-11Z"/>
      <rect class="cls-29" x="607" y="674.9" width="29.8" height="105.9" transform="translate(-197.4 1223) rotate(-80.6)"/>
      <rect class="cls-29" x="617.8" y="637.3" width="29.8" height="105.9" transform="translate(-233.9 1044.9) rotate(-69.8)"/>
    </g>
    <g>
      <rect class="cls-17" x="685.4" y="682.7" width="48.2" height="69.5" transform="translate(-181.8 244.5) rotate(-17.4)"/>
      <polygon class="cls-17" points="746.7 716.9 756.5 705.2 722 677.8 712.2 689.4 746.7 716.9"/>
      <polygon class="cls-17" points="677.9 738.5 663.1 734.5 675.9 692.1 690.6 696.1 677.9 738.5"/>
    </g>
  </g>
  <g>
    <g>
      <rect class="cls-11" x="448.6" y="776.8" width="116.2" height="78.1" transform="translate(-346.5 374.9) rotate(-30.8)"/>
      <rect class="cls-11" x="428.6" y="772.2" width="73" height="24.9" transform="translate(-443.9 859.8) rotate(-64.1)"/>
      <rect class="cls-11" x="502.6" y="831.8" width="25" height="73.3" transform="translate(-374.3 1346.5) rotate(-87.6)"/>
    </g>
    <g>
      <rect class="cls-28" x="406.4" y="905.9" width="71.7" height="49.8" transform="translate(-587.8 959.5) rotate(-66.2)"/>
      <polygon class="cls-28" points="471.5 955.6 487.1 953.3 479 908.5 463.4 910.8 471.5 955.6"/>
      <polygon class="cls-28" points="403.4 925.6 394.6 912.5 433.4 888.2 442.1 901.3 403.4 925.6"/>
    </g>
    <g>
      <path class="cls-12" d="M343.2,990l2.8-44.7c.3-4.9,4.5-8.7,9.5-8.3l12.2.8c4.9.3,8.7,4.5,8.4,9.5l-2.8,44.7c-.3,4.9-4.5,8.7-9.5,8.3l-12.2-.8c-4.9-.3-8.6-4.5-8.4-9.5Z"/>
      <rect class="cls-12" x="246.8" y="970.4" width="109.3" height="30.7" transform="translate(-51.5 17.3) rotate(-3)"/>
      <rect class="cls-12" x="288.5" y="890.8" width="30.7" height="109.3" transform="translate(-674.2 1117) rotate(-82.1)"/>
    </g>
    <g>
      <path class="cls-10" d="M445.6,839.8l-32.3-31.1c-3.5-3.4-3.6-9.1-.2-12.6l8.5-8.8c3.4-3.5,9.1-3.7,12.6-.2l32.3,31.1c3.5,3.4,3.6,9.1.2,12.6l-8.5,8.8c-3.4,3.5-9.1,3.6-12.6.2Z"/>
      <rect class="cls-10" x="360.7" y="853.5" width="109.3" height="30.7" transform="translate(-527.1 671.1) rotate(-52.6)"/>
      <rect class="cls-10" x="331.7" y="825.5" width="109.3" height="30.7" transform="translate(-461.7 470.3) rotate(-41.7)"/>
    </g>
    <g>
      <rect class="cls-14" x="327.2" y="854.9" width="78.1" height="116.2" transform="translate(-326.2 214.2) rotate(-22.9)"/>
      <rect class="cls-14" x="390.4" y="839.6" width="24.9" height="73" transform="translate(-549.1 722.2) rotate(-56.1)"/>
      <rect class="cls-14" x="276.3" y="901.5" width="73.3" height="25" transform="translate(-642.5 1057.5) rotate(-79.6)"/>
    </g>
    <g>
      <rect class="cls-25" x="420.6" y="867.9" width="82.6" height="55.5" transform="translate(-246.7 179.1) rotate(-17.4)"/>
      <rect class="cls-25" x="459.5" y="915.2" width="51.9" height="17.7" transform="translate(-536.9 713.4) rotate(-50.6)"/>
      <rect class="cls-25" x="455.9" y="831.8" width="17.8" height="52.1" transform="translate(-487.4 1070.7) rotate(-74.2)"/>
    </g>
    <g>
      <path class="cls-29" d="M463.9,918l-18.1,41c-2,4.5-7.2,6.5-11.8,4.6l-11.2-4.9c-4.5-2-6.5-7.2-4.6-11.8l18.1-41c2-4.5,7.2-6.5,11.8-4.6l11.2,4.9c4.5,2,6.6,7.2,4.6,11.8Z"/>
      <rect class="cls-29" x="486.3" y="881.8" width="30.7" height="109.3" transform="translate(-541.6 1137.3) rotate(-72.7)"/>
      <rect class="cls-29" x="469.9" y="918.8" width="30.7" height="109.3" transform="translate(-601.9 941.8) rotate(-61.8)"/>
    </g>
    <g>
      <rect class="cls-17" x="392.3" y="901.1" width="49.8" height="71.7" transform="translate(-148.2 81.2) rotate(-9.5)"/>
      <polygon class="cls-17" points="379.1 932.2 367.4 942.7 398.7 975.7 410.5 965.2 379.1 932.2"/>
      <polygon class="cls-17" points="452.5 919.9 467 926.1 448 967.6 433.5 961.4 452.5 919.9"/>
    </g>
  </g>
  <g>
    <g>
      <rect class="cls-24" x="60.3" y="1113.3" width="124.3" height="83.6" transform="translate(-161.4 28.7) rotate(-8.1)"/>
      <rect class="cls-24" x="111.5" y="1189.7" width="78.2" height="26.7" transform="translate(-757.1 399.3) rotate(-41.3)"/>
      <rect class="cls-24" x="122.5" y="1060.5" width="26.8" height="78.4" transform="translate(-917.3 755.3) rotate(-64.8)"/>
    </g>
    <g>
      <rect class="cls-28" x="195.2" y="1041.6" width="76.8" height="53.3" transform="translate(-670.6 453.3) rotate(-43.4)"/>
      <polygon class="cls-28" points="215 1031.7 198.6 1027.5 188.1 1075.1 204.4 1079.2 215 1031.7"/>
      <polygon class="cls-28" points="269.8 1089.4 273 1106 224.8 1114 221.6 1097.4 269.8 1089.4"/>
    </g>
    <g>
      <path class="cls-12" d="M356.1,1050.2l-21.8,44.1c-2.2,4.4-7.5,6.2-11.9,4.1l-12.9-6.3c-4.4-2.2-6.2-7.5-4-11.9l21.8-44.1c2.2-4.4,7.5-6.2,11.9-4.1l12.9,6.3c4.4,2.2,6.2,7.5,4,11.9Z"/>
      <rect class="cls-12" x="378.9" y="1013.8" width="32.9" height="117" transform="translate(-747.5 1082.8) rotate(-70.3)"/>
      <rect class="cls-12" x="359.8" y="1052.5" width="32.9" height="117" transform="translate(-771.6 869.4) rotate(-59.4)"/>
    </g>
    <g>
      <path class="cls-10" d="M192.4,1156.1l19.5,45.2c1.9,4.5-.1,9.8-4.7,11.7l-13.2,5.7c-4.5,1.9-9.8-.1-11.7-4.7l-19.5-45.2c-1.9-4.5.1-9.8,4.7-11.7l13.2-5.7c4.5-1.9,9.8.1,11.7,4.7Z"/>
      <rect class="cls-10" x="176" y="1124" width="117" height="32.9" transform="translate(-536.9 268.4) rotate(-29.9)"/>
      <rect class="cls-10" x="193.2" y="1163.8" width="117" height="32.9" transform="translate(-370.2 146.1) rotate(-19)"/>
    </g>
    <g>
      <rect class="cls-26" x="259.5" y="1055.1" width="83.6" height="124.3" transform="translate(-2.9 .8) rotate(-.1)"/>
      <rect class="cls-26" x="236.5" y="1099.4" width="26.7" height="78.2" transform="translate(-585.4 325.5) rotate(-33.4)"/>
      <rect class="cls-26" x="315.1" y="1124.9" width="78.4" height="26.8" transform="translate(-792.8 813.6) rotate(-56.9)"/>
    </g>
    <g>
      <rect class="cls-25" x="170" y="1050.7" width="59.4" height="88.4" transform="translate(-909 1191.9) rotate(-84.7)"/>
      <rect class="cls-25" x="160.4" y="1047.5" width="55.6" height="19" transform="translate(-472.9 211) rotate(-27.9)"/>
      <rect class="cls-25" x="171.8" y="1103.1" width="19" height="55.8" transform="translate(-815.9 567.4) rotate(-51.4)"/>
    </g>
    <g>
      <path class="cls-29" d="M206.5,1072.3l35.7-33.8c3.6-3.4,9.2-3.2,12.6.3l9.9,10.4c3.4,3.6,3.2,9.2-.3,12.6l-35.7,33.8c-3.6,3.4-9.2,3.2-12.6-.3l-9.9-10.4c-3.4-3.6-3.2-9.2.3-12.6Z"/>
      <rect class="cls-29" x="161" y="979.6" width="32.9" height="117" transform="translate(-731.7 506.6) rotate(-50)"/>
      <rect class="cls-29" x="192.2" y="949.9" width="32.9" height="117" transform="translate(-589.3 357.5) rotate(-39.1)"/>
    </g>
    <g>
      <rect class="cls-17" x="222.6" y="1046" width="76.8" height="53.3" transform="translate(-843 1080.2) rotate(-76.7)"/>
      <polygon class="cls-17" points="296.5 1093 312.5 1087.5 295.1 1041.9 279.2 1047.4 296.5 1093"/>
      <polygon class="cls-17" points="219 1074.8 207.2 1062.7 243.2 1029.6 255 1041.7 219 1074.8"/>
    </g>
  </g>
  <g class="cls-31">
    <g>
      <rect class="cls-21" x="212.8" y="875.6" width="91.6" height="136.3" transform="translate(-719.5 913.8) rotate(-72.9)"/>
      <rect class="cls-21" x="221.3" y="989.9" width="85.7" height="29.2" transform="translate(-269.2 113.3) rotate(-16.2)"/>
      <rect class="cls-21" x="283.1" y="852.1" width="29.3" height="86" transform="translate(-502.8 396.3) rotate(-39.7)"/>
    </g>
    <g>
      <rect class="cls-28" x="367.3" y="880.2" width="84.1" height="58.4" transform="translate(-264.5 174.2) rotate(-18.3)"/>
      <polygon class="cls-28" points="408 864.5 393.7 852.8 361.1 895.1 375.4 906.8 408 864.5"/>
      <polygon class="cls-28" points="435.4 947.3 430.9 965.3 379.3 950.7 383.9 932.7 435.4 947.3"/>
    </g>
    <g>
      <path class="cls-12" d="M540,948.2l-43.5,34.7c-3.9,3.1-9.5,2.4-12.5-1.4l-10.9-13.6c-3.1-3.8-2.4-9.5,1.4-12.5l43.5-34.7c3.8-3.1,9.5-2.4,12.5,1.4l10.9,13.6c3.1,3.9,2.4,9.5-1.4,12.5Z"/>
      <rect class="cls-12" x="549.9" y="924.7" width="36" height="128.2" transform="translate(-533.5 693.4) rotate(-45.1)"/>
      <rect class="cls-12" x="512.9" y="954.2" width="36" height="128.2" transform="translate(-480.8 475) rotate(-34.2)"/>
    </g>
    <g>
      <path class="cls-10" d="M327.6,976.5l-1.8,55.6c-.2,4.9-4.3,8.8-9.2,8.6l-17.4-.6c-4.9-.2-8.8-4.3-8.6-9.2l1.8-55.6c.2-4.9,4.3-8.8,9.2-8.6l17.4.6c4.9.2,8.8,4.3,8.6,9.2Z"/>
      <rect class="cls-10" x="312.5" y="963.6" width="128.2" height="36" transform="translate(-79.1 34.1) rotate(-4.7)"/>
      <rect class="cls-10" x="357.2" y="964.8" width="36" height="128.2" transform="translate(-688.1 1291) rotate(-83.8)"/>
    </g>
    <g>
      <rect class="cls-19" x="385.5" y="943.8" width="136.2" height="91.6" transform="translate(-634.9 982.1) rotate(-65)"/>
      <rect class="cls-19" x="378.2" y="943.9" width="29.2" height="85.7" transform="translate(-137 66.3) rotate(-8.2)"/>
      <rect class="cls-19" x="453.5" y="1020.4" width="86" height="29.3" transform="translate(-470.2 415.8) rotate(-31.7)"/>
    </g>
    <g>
      <rect class="cls-25" x="330.8" y="871.6" width="65.1" height="96.8" transform="translate(-613.8 765.9) rotate(-59.5)"/>
      <rect class="cls-25" x="339.1" y="866.7" width="60.9" height="20.8" transform="translate(-41.4 18.6) rotate(-2.7)"/>
      <rect class="cls-25" x="317.8" y="916.7" width="20.8" height="61.1" transform="translate(-385 242.8) rotate(-26.2)"/>
    </g>
    <g>
      <path class="cls-29" d="M379.8,901.2l52.8-17.5c4.7-1.5,9.7,1,11.3,5.7l5.5,16.5c1.5,4.7-1,9.7-5.7,11.3l-52.8,17.5c-4.7,1.5-9.7-1-11.3-5.7l-5.5-16.5c-1.5-4.7,1-9.7,5.7-11.3Z"/>
      <rect class="cls-29" x="349.7" y="789.2" width="36" height="128.2" transform="translate(-324.2 233.1) rotate(-24.8)"/>
      <rect class="cls-29" x="394.6" y="774.4" width="36" height="128.2" transform="translate(-189.8 124) rotate(-13.9)"/>
    </g>
    <g>
      <rect class="cls-17" x="392.4" y="897.3" width="84.1" height="58.4" transform="translate(-561.3 690.5) rotate(-51.5)"/>
      <polygon class="cls-17" points="460.3 963.3 478.6 965.3 482.7 912 464.4 910.1 460.3 963.3"/>
      <polygon class="cls-17" points="391.9 909.1 385.8 891.6 436.9 875.5 443 893 391.9 909.1"/>
    </g>
  </g>
</svg>